<svg width="185" height="174" viewBox="0 0 185 174" fill="none" xmlns="http://www.w3.org/2000/svg">
<path d="M89.0835 82.5598L88.1158 82.8116L88.1158 82.8116L89.0835 82.5598ZM185 168L175.44 161.524L174.611 173.041L185 168ZM99.4369 122.341L98.4692 122.593L99.4369 122.341ZM151.405 165.583L151.476 164.585L151.405 165.583ZM24.4666 1.53115L24.444 2.5309L24.4666 1.53115ZM79.2843 44.9079L78.3165 45.1597L79.2843 44.9079ZM0.977371 1.99974L6.84402 2.13253L6.88928 0.133045L1.02263 0.000256061L0.977371 1.99974ZM18.5773 2.39811L24.444 2.5309L24.4892 0.53141L18.6226 0.398622L18.5773 2.39811ZM24.444 2.5309C25.6804 2.55888 26.9085 2.62652 28.1269 2.73271L28.3006 0.740259C27.0395 0.630358 25.7685 0.560367 24.4892 0.53141L24.444 2.5309ZM35.41 3.84523C37.8257 4.37624 40.1889 5.06109 42.4876 5.89026L43.1663 4.00891C40.7866 3.15055 38.3401 2.44157 35.8394 1.89187L35.41 3.84523ZM49.2422 8.83393C51.4316 9.96193 53.5421 11.2288 55.5609 12.6246L56.6983 10.9794C54.6088 9.53485 52.4244 8.22359 50.1582 7.05602L49.2422 8.83393ZM61.3393 17.1969C63.1618 18.8408 64.8799 20.6034 66.4811 22.4749L68.0008 21.1747C66.3434 19.2376 64.5651 17.4132 62.6788 15.7118L61.3393 17.1969ZM70.8988 28.3718C72.2342 30.4183 73.4441 32.5608 74.5162 34.7896L76.3185 33.9226C75.2086 31.6153 73.9562 29.3974 72.5737 27.2788L70.8988 28.3718ZM77.2734 41.6218C77.6568 42.7833 78.005 43.9629 78.3165 45.1597L80.252 44.656C79.9297 43.4176 79.5694 42.1968 79.1725 40.9948L77.2734 41.6218ZM78.3165 45.1597L79.5414 49.8662L81.4769 49.3625L80.252 44.656L78.3165 45.1597ZM81.9912 59.2792L84.441 68.6922L86.3766 68.1884L83.9267 58.7755L81.9912 59.2792ZM86.8909 78.1051L88.1158 82.8116L90.0513 82.3079L88.8264 77.6014L86.8909 78.1051ZM88.1158 82.8116L88.9786 86.1267L90.9141 85.623L90.0513 82.3079L88.1158 82.8116ZM90.7041 92.7569L92.4297 99.387L94.3652 98.8833L92.6396 92.2531L90.7041 92.7569ZM94.1553 106.017L95.8808 112.647L97.8163 112.144L96.0908 105.513L94.1553 106.017ZM97.6064 119.277L98.4692 122.593L100.405 122.089L99.5419 118.774L97.6064 119.277ZM98.4692 122.593C98.7791 123.783 99.1242 124.958 99.5034 126.116L101.404 125.493C101.038 124.375 100.704 123.24 100.405 122.089L98.4692 122.593ZM102.216 132.932C103.267 135.159 104.45 137.304 105.755 139.359L107.444 138.287C106.183 136.302 105.04 134.229 104.025 132.079L102.216 132.932ZM110.067 145.296C111.629 147.186 113.304 148.974 115.082 150.651L116.455 149.196C114.737 147.576 113.118 145.848 111.609 144.022L110.067 145.296ZM120.722 155.344C122.694 156.787 124.757 158.11 126.9 159.302L127.872 157.554C125.802 156.402 123.809 155.125 121.903 153.73L120.722 155.344ZM133.521 162.463C135.779 163.373 138.104 164.146 140.484 164.775L140.995 162.841C138.696 162.234 136.45 161.487 134.269 160.608L133.521 162.463ZM147.68 166.203C148.888 166.366 150.106 166.492 151.333 166.58L151.476 164.585C150.29 164.5 149.113 164.378 147.947 164.221L147.68 166.203ZM151.333 166.58L155.532 166.882L155.676 164.887L151.476 164.585L151.333 166.58ZM163.931 167.487L172.33 168.091L172.473 166.096L164.075 165.492L163.931 167.487Z" fill="#B6B6B6"/>
</svg>
