<svg width="186" height="174" viewBox="0 0 186 174" fill="none" xmlns="http://www.w3.org/2000/svg">
<path d="M186 6L176.406 12.4255L175.638 0.904053L186 6ZM101.089 51.2529L102.056 51.508L101.089 51.2529ZM153.314 8.17772L153.248 7.17993L153.314 8.17772ZM80.5081 129.259L79.5412 129.004L80.5081 129.259ZM0.977678 172L4.06792 171.931L4.11256 173.931L1.02232 174L0.977678 172ZM10.2484 171.793L16.4289 171.655L16.4735 173.655L10.293 173.793L10.2484 171.793ZM22.6094 171.517L25.6996 171.448L25.7442 173.448L22.654 173.517L22.6094 171.517ZM25.6996 171.448C26.933 171.421 28.1583 171.354 29.374 171.248L29.5467 173.241C28.2885 173.35 27.0205 173.419 25.7442 173.448L25.6996 171.448ZM36.6406 170.143C39.0509 169.615 41.4091 168.934 43.7034 168.109L44.38 169.991C42.005 170.845 39.5637 171.55 37.0685 172.097L36.6406 170.143ZM50.4457 165.181C52.6315 164.058 54.7389 162.798 56.7554 161.409L57.89 163.056C55.803 164.493 53.6217 165.798 51.3592 166.96L50.4457 165.181ZM62.5284 156.857C64.3499 155.221 66.0677 153.466 67.6694 151.603L69.1861 152.906C67.5283 154.835 65.7503 156.652 63.8651 158.345L62.5284 156.857ZM72.091 145.731C73.4286 143.692 74.6415 141.558 75.7175 139.338L77.5173 140.21C76.4034 142.509 75.1478 144.718 73.7631 146.828L72.091 145.731ZM78.489 132.53C78.8753 131.373 79.2265 130.197 79.5412 129.004L81.475 129.514C81.1494 130.748 80.7859 131.965 80.3861 133.163L78.489 132.53ZM79.5412 129.004L80.5703 125.104L82.5041 125.614L81.475 129.514L79.5412 129.004ZM82.6284 117.303L84.6865 109.502L86.6204 110.013L84.5622 117.813L82.6284 117.303ZM86.7447 101.702L88.8028 93.9011L90.7366 94.4114L88.6785 102.212L86.7447 101.702ZM90.8609 86.1005L92.919 78.2999L94.8529 78.8101L92.7947 86.6107L90.8609 86.1005ZM94.9772 70.4993L97.0353 62.6987L98.9691 63.2089L96.911 71.0095L94.9772 70.4993ZM99.0934 54.8981L100.122 50.9978L102.056 51.508L101.027 55.4083L99.0934 54.8981ZM100.122 50.9978C100.437 49.8062 100.787 48.6308 101.17 47.4727L103.069 48.1018C102.698 49.2207 102.36 50.3565 102.056 51.508L100.122 50.9978ZM103.911 40.655C104.972 38.429 106.165 36.2849 107.48 34.2317L109.165 35.3104C107.894 37.2938 106.741 39.365 105.717 41.5153L103.911 40.655ZM111.822 28.3028C113.394 26.4157 115.08 24.6315 116.867 22.9598L118.233 24.4207C116.506 26.0358 114.878 27.7596 113.359 29.5827L111.822 28.3028ZM122.536 18.2842C124.518 16.8472 126.59 15.5319 128.741 14.3479L129.706 16.1002C127.627 17.244 125.625 18.5147 123.71 19.9032L122.536 18.2842ZM135.388 11.2134C137.654 10.313 139.986 9.54941 142.373 8.93163L142.874 10.8678C140.568 11.4646 138.316 12.2023 136.127 13.0721L135.388 11.2134ZM149.588 7.53792C150.798 7.38153 152.018 7.26186 153.248 7.17993L153.381 9.17551C152.193 9.25468 151.013 9.37032 149.844 9.52142L149.588 7.53792ZM153.248 7.17993L157.334 6.90771L157.467 8.90329L153.381 9.17551L153.248 7.17993ZM165.505 6.36328L173.676 5.81886L173.809 7.81444L165.638 8.35886L165.505 6.36328Z" fill="#B6B6B6"/>
</svg>
