<svg width="186" height="174" viewBox="0 0 186 174" fill="none" xmlns="http://www.w3.org/2000/svg">
<path d="M186 6L176.406 12.4255L175.638 0.90406L186 6ZM153.314 8.17772L153.248 7.17993L153.314 8.17772ZM0.977678 172L25.6996 171.448L25.7442 173.448L1.02232 174L0.977678 172ZM79.5412 129.004L100.122 50.9978L102.056 51.508L81.475 129.514L79.5412 129.004ZM153.248 7.17993L176.953 5.60052L177.086 7.5961L153.381 9.17551L153.248 7.17993ZM100.122 50.9978C106.586 26.5002 127.968 8.86424 153.248 7.17993L153.381 9.17551C128.958 10.8027 108.301 27.8409 102.056 51.508L100.122 50.9978ZM25.6996 171.448C51.1007 170.881 73.0595 153.571 79.5412 129.004L81.475 129.514C74.7659 154.943 52.0366 172.861 25.7442 173.448L25.6996 171.448Z" fill="#3777A5"/>
</svg>
