<svg width="167" height="105" viewBox="0 0 167 105" fill="none" xmlns="http://www.w3.org/2000/svg">
<path d="M82.5332 12L79.9443 5.11426H79.9014C79.9551 5.68717 79.9819 6.39437 79.9819 7.23584V12H79.0688V4.14746H80.5298L82.9521 10.582H82.9951L85.4604 4.14746H86.9106V12H85.9331V7.17139C85.9331 6.63428 85.9582 5.95215 86.0083 5.125H85.9653L83.3442 12H82.5332ZM89.8809 12H88.9141V6.10254H89.8809V12ZM88.8389 4.50732C88.8389 4.29248 88.8926 4.13672 89 4.04004C89.111 3.94336 89.2471 3.89502 89.4082 3.89502C89.5586 3.89502 89.6893 3.94336 89.8003 4.04004C89.9149 4.13672 89.9722 4.29248 89.9722 4.50732C89.9722 4.71859 89.9149 4.87435 89.8003 4.97461C89.6893 5.07487 89.5586 5.125 89.4082 5.125C89.2471 5.125 89.111 5.07487 89 4.97461C88.8926 4.87435 88.8389 4.71859 88.8389 4.50732ZM95.5903 10.3726C95.5903 10.924 95.3844 11.3519 94.9727 11.6562C94.5609 11.957 93.9826 12.1074 93.2378 12.1074C92.4608 12.1074 91.8431 11.9839 91.3848 11.7368V10.856C92.0329 11.1711 92.6577 11.3286 93.2593 11.3286C93.7463 11.3286 94.1007 11.2498 94.3228 11.0923C94.5448 10.9347 94.6558 10.7235 94.6558 10.4585C94.6558 10.2257 94.5483 10.0288 94.3335 9.86768C94.1222 9.70654 93.7445 9.52214 93.2002 9.31445C92.6452 9.09961 92.2549 8.91699 92.0293 8.7666C91.8037 8.61263 91.6372 8.44076 91.5298 8.25098C91.4259 8.0612 91.374 7.83024 91.374 7.55811C91.374 7.07471 91.571 6.69336 91.9648 6.41406C92.3587 6.13477 92.8994 5.99512 93.5869 5.99512C94.2565 5.99512 94.8831 6.1276 95.4668 6.39258L95.1392 7.16064C94.5412 6.90999 94.0023 6.78467 93.5225 6.78467C93.1214 6.78467 92.8171 6.84912 92.6094 6.97803C92.4017 7.10335 92.2979 7.27702 92.2979 7.49902C92.2979 7.71387 92.3874 7.8929 92.5664 8.03613C92.7454 8.17578 93.1626 8.37093 93.8179 8.62158C94.3084 8.8042 94.6701 8.97428 94.9028 9.13184C95.1392 9.28939 95.3128 9.46663 95.4238 9.66357C95.5348 9.86051 95.5903 10.0968 95.5903 10.3726ZM99.3877 12.1074C98.5391 12.1074 97.8784 11.8478 97.4058 11.3286C96.9331 10.8058 96.6968 10.0575 96.6968 9.0835C96.6968 8.09521 96.9349 7.33431 97.4111 6.80078C97.891 6.26367 98.5731 5.99512 99.4575 5.99512C99.744 5.99512 100.027 6.02555 100.306 6.08643C100.589 6.14372 100.822 6.21891 101.004 6.31201L100.709 7.11768C100.211 6.93148 99.7869 6.83838 99.436 6.83838C98.8416 6.83838 98.403 7.02637 98.1201 7.40234C97.8372 7.77474 97.6958 8.33154 97.6958 9.07275C97.6958 9.78532 97.8372 10.3314 98.1201 10.7109C98.403 11.0869 98.8219 11.2749 99.377 11.2749C99.8962 11.2749 100.406 11.1603 100.908 10.9312V11.7905C100.5 12.0018 99.9928 12.1074 99.3877 12.1074ZM103.276 12H102.31V3.64258H103.276V12ZM108.787 12L108.599 11.1621H108.556C108.263 11.5309 107.969 11.7816 107.675 11.9141C107.385 12.043 107.018 12.1074 106.574 12.1074C105.994 12.1074 105.539 11.9552 105.21 11.6509C104.881 11.3465 104.716 10.9168 104.716 10.3618C104.716 9.16585 105.659 8.53923 107.546 8.48193L108.545 8.44434V8.09521C108.545 7.64762 108.449 7.3182 108.255 7.10693C108.062 6.89209 107.752 6.78467 107.326 6.78467C107.015 6.78467 106.719 6.83122 106.44 6.92432C106.164 7.01742 105.905 7.12126 105.661 7.23584L105.366 6.51074C105.663 6.35319 105.987 6.22965 106.338 6.14014C106.689 6.05062 107.036 6.00586 107.38 6.00586C108.092 6.00586 108.622 6.16341 108.97 6.47852C109.317 6.79362 109.491 7.29492 109.491 7.98242V12H108.787ZM106.794 11.3286C107.335 11.3286 107.759 11.1836 108.067 10.8936C108.379 10.5999 108.535 10.1846 108.535 9.64746V9.11572L107.665 9.15332C106.988 9.17839 106.494 9.28581 106.182 9.47559C105.874 9.66536 105.72 9.96436 105.72 10.3726C105.72 10.6805 105.813 10.9168 106 11.0815C106.189 11.2463 106.454 11.3286 106.794 11.3286ZM115.163 10.3726C115.163 10.924 114.957 11.3519 114.545 11.6562C114.133 11.957 113.555 12.1074 112.81 12.1074C112.033 12.1074 111.415 11.9839 110.957 11.7368V10.856C111.605 11.1711 112.23 11.3286 112.832 11.3286C113.319 11.3286 113.673 11.2498 113.895 11.0923C114.117 10.9347 114.228 10.7235 114.228 10.4585C114.228 10.2257 114.121 10.0288 113.906 9.86768C113.694 9.70654 113.317 9.52214 112.772 9.31445C112.217 9.09961 111.827 8.91699 111.602 8.7666C111.376 8.61263 111.209 8.44076 111.102 8.25098C110.998 8.0612 110.946 7.83024 110.946 7.55811C110.946 7.07471 111.143 6.69336 111.537 6.41406C111.931 6.13477 112.472 5.99512 113.159 5.99512C113.829 5.99512 114.455 6.1276 115.039 6.39258L114.711 7.16064C114.113 6.90999 113.575 6.78467 113.095 6.78467C112.694 6.78467 112.389 6.84912 112.182 6.97803C111.974 7.10335 111.87 7.27702 111.87 7.49902C111.87 7.71387 111.96 7.8929 112.139 8.03613C112.318 8.17578 112.735 8.37093 113.39 8.62158C113.881 8.8042 114.242 8.97428 114.475 9.13184C114.711 9.28939 114.885 9.46663 114.996 9.66357C115.107 9.86051 115.163 10.0968 115.163 10.3726ZM120.437 10.3726C120.437 10.924 120.231 11.3519 119.819 11.6562C119.408 11.957 118.829 12.1074 118.084 12.1074C117.307 12.1074 116.69 11.9839 116.231 11.7368V10.856C116.88 11.1711 117.504 11.3286 118.106 11.3286C118.593 11.3286 118.947 11.2498 119.169 11.0923C119.391 10.9347 119.502 10.7235 119.502 10.4585C119.502 10.2257 119.395 10.0288 119.18 9.86768C118.969 9.70654 118.591 9.52214 118.047 9.31445C117.492 9.09961 117.102 8.91699 116.876 8.7666C116.65 8.61263 116.484 8.44076 116.376 8.25098C116.273 8.0612 116.221 7.83024 116.221 7.55811C116.221 7.07471 116.418 6.69336 116.812 6.41406C117.205 6.13477 117.746 5.99512 118.434 5.99512C119.103 5.99512 119.73 6.1276 120.313 6.39258L119.986 7.16064C119.388 6.90999 118.849 6.78467 118.369 6.78467C117.968 6.78467 117.664 6.84912 117.456 6.97803C117.248 7.10335 117.145 7.27702 117.145 7.49902C117.145 7.71387 117.234 7.8929 117.413 8.03613C117.592 8.17578 118.009 8.37093 118.665 8.62158C119.155 8.8042 119.517 8.97428 119.75 9.13184C119.986 9.28939 120.16 9.46663 120.271 9.66357C120.382 9.86051 120.437 10.0968 120.437 10.3726ZM122.838 12H121.871V6.10254H122.838V12ZM121.796 4.50732C121.796 4.29248 121.85 4.13672 121.957 4.04004C122.068 3.94336 122.204 3.89502 122.365 3.89502C122.516 3.89502 122.646 3.94336 122.757 4.04004C122.872 4.13672 122.929 4.29248 122.929 4.50732C122.929 4.71859 122.872 4.87435 122.757 4.97461C122.646 5.07487 122.516 5.125 122.365 5.125C122.204 5.125 122.068 5.07487 121.957 4.97461C121.85 4.87435 121.796 4.71859 121.796 4.50732ZM127.425 6.85449H125.937V12H124.97V6.85449H123.939V6.40332L124.97 6.07031V5.73193C124.97 5.01579 125.126 4.47868 125.438 4.12061C125.753 3.76253 126.236 3.5835 126.888 3.5835C127.264 3.5835 127.645 3.64974 128.032 3.78223L127.774 4.53955C127.441 4.43213 127.149 4.37842 126.898 4.37842C126.573 4.37842 126.331 4.48584 126.173 4.70068C126.016 4.91553 125.937 5.2557 125.937 5.72119V6.10254H127.425V6.85449ZM129.466 12H128.499V6.10254H129.466V12ZM128.424 4.50732C128.424 4.29248 128.478 4.13672 128.585 4.04004C128.696 3.94336 128.832 3.89502 128.993 3.89502C129.144 3.89502 129.274 3.94336 129.385 4.04004C129.5 4.13672 129.557 4.29248 129.557 4.50732C129.557 4.71859 129.5 4.87435 129.385 4.97461C129.274 5.07487 129.144 5.125 128.993 5.125C128.832 5.125 128.696 5.07487 128.585 4.97461C128.478 4.87435 128.424 4.71859 128.424 4.50732ZM133.843 12.1074C132.959 12.1074 132.264 11.8407 131.759 11.3071C131.258 10.77 131.007 10.0324 131.007 9.09424C131.007 8.14893 131.242 7.39697 131.711 6.83838C132.18 6.2762 132.814 5.99512 133.612 5.99512C134.354 5.99512 134.944 6.23503 135.385 6.71484C135.825 7.19108 136.045 7.8374 136.045 8.65381V9.23926H132.006C132.024 9.90885 132.194 10.4173 132.517 10.7646C132.839 11.112 133.295 11.2856 133.886 11.2856C134.201 11.2856 134.5 11.2588 134.783 11.2051C135.066 11.1478 135.397 11.0386 135.777 10.8774V11.7261C135.451 11.8657 135.145 11.9642 134.858 12.0215C134.572 12.0788 134.234 12.1074 133.843 12.1074ZM133.602 6.78467C133.14 6.78467 132.774 6.93327 132.506 7.23047C132.237 7.52767 132.078 7.94124 132.028 8.47119H135.03C135.023 7.91976 134.896 7.50081 134.649 7.21436C134.402 6.9279 134.053 6.78467 133.602 6.78467ZM139.633 12.1074C138.867 12.1074 138.273 11.8424 137.85 11.3125C137.428 10.7826 137.216 10.0324 137.216 9.06201C137.216 8.0988 137.428 7.34684 137.85 6.80615C138.276 6.26546 138.874 5.99512 139.644 5.99512C140.435 5.99512 141.044 6.28516 141.47 6.86523H141.54C141.529 6.79362 141.515 6.65039 141.497 6.43555C141.479 6.21712 141.47 6.07031 141.47 5.99512V3.64258H142.437V12H141.658L141.513 11.2104H141.47C141.058 11.8084 140.446 12.1074 139.633 12.1074ZM139.789 11.3071C140.376 11.3071 140.804 11.1478 141.073 10.8291C141.345 10.5068 141.481 9.98047 141.481 9.25V9.07275C141.481 8.25277 141.343 7.66911 141.067 7.32178C140.795 6.97087 140.366 6.79541 139.778 6.79541C139.281 6.79541 138.896 6.99414 138.624 7.3916C138.351 7.78548 138.215 8.34945 138.215 9.0835C138.215 9.81396 138.35 10.3672 138.618 10.7432C138.89 11.1191 139.281 11.3071 139.789 11.3071ZM81.1797 26.3179C81.7741 26.3179 82.2056 26.1585 82.4741 25.8398C82.7463 25.5176 82.8823 25.002 82.8823 24.293V24.062C82.8823 23.2743 82.7463 22.7013 82.4741 22.3433C82.202 21.9852 81.7633 21.8062 81.1582 21.8062C80.6641 21.8062 80.2809 22.0031 80.0088 22.397C79.7402 22.7873 79.606 23.3459 79.606 24.0728C79.606 24.8032 79.7367 25.36 79.998 25.7432C80.263 26.1263 80.6569 26.3179 81.1797 26.3179ZM82.8716 26.9463L82.9038 26.2212H82.8608C82.4634 26.812 81.8547 27.1074 81.0347 27.1074C80.272 27.1074 79.6758 26.8424 79.2461 26.3125C78.82 25.779 78.6069 25.0288 78.6069 24.062C78.6069 23.1131 78.8218 22.3647 79.2515 21.8169C79.6847 21.269 80.2756 20.9951 81.0239 20.9951C81.8224 20.9951 82.4383 21.2923 82.8716 21.8867H82.9307L83.0596 21.1025H83.8276V27.0967C83.8276 27.9417 83.6128 28.5773 83.1831 29.0034C82.757 29.4295 82.0928 29.6426 81.1904 29.6426C80.3311 29.6426 79.6239 29.5173 79.0688 29.2666V28.375C79.6418 28.6829 80.3669 28.8369 81.2441 28.8369C81.7454 28.8369 82.1411 28.6901 82.4312 28.3965C82.7248 28.1029 82.8716 27.6965 82.8716 27.1772V26.9463ZM90.8262 24.0405C90.8262 25.0037 90.5827 25.7557 90.0957 26.2964C89.6087 26.8371 88.9355 27.1074 88.0762 27.1074C87.5426 27.1074 87.07 26.9839 86.6582 26.7368C86.2464 26.4862 85.9295 26.1281 85.7075 25.6626C85.4855 25.1971 85.3745 24.6564 85.3745 24.0405C85.3745 23.0809 85.6144 22.3343 86.0942 21.8008C86.5741 21.2637 87.2472 20.9951 88.1138 20.9951C88.9445 20.9951 89.6034 21.269 90.0903 21.8169C90.5809 22.3612 90.8262 23.1024 90.8262 24.0405ZM86.3735 24.0405C86.3735 24.7817 86.5186 25.3457 86.8086 25.7324C87.1022 26.1156 87.5337 26.3071 88.103 26.3071C88.6652 26.3071 89.0931 26.1156 89.3867 25.7324C89.6803 25.3457 89.8271 24.7817 89.8271 24.0405C89.8271 23.2993 89.6785 22.7425 89.3813 22.3701C89.0877 21.9941 88.6562 21.8062 88.0869 21.8062C86.9447 21.8062 86.3735 22.5509 86.3735 24.0405ZM97.4863 24.0405C97.4863 25.0037 97.2428 25.7557 96.7559 26.2964C96.2689 26.8371 95.5957 27.1074 94.7363 27.1074C94.2028 27.1074 93.7301 26.9839 93.3184 26.7368C92.9066 26.4862 92.5897 26.1281 92.3677 25.6626C92.1457 25.1971 92.0347 24.6564 92.0347 24.0405C92.0347 23.0809 92.2746 22.3343 92.7544 21.8008C93.2342 21.2637 93.9074 20.9951 94.7739 20.9951C95.6047 20.9951 96.2635 21.269 96.7505 21.8169C97.241 22.3612 97.4863 23.1024 97.4863 24.0405ZM93.0337 24.0405C93.0337 24.7817 93.1787 25.3457 93.4688 25.7324C93.7624 26.1156 94.1938 26.3071 94.7632 26.3071C95.3254 26.3071 95.7533 26.1156 96.0469 25.7324C96.3405 25.3457 96.4873 24.7817 96.4873 24.0405C96.4873 23.2993 96.3387 22.7425 96.0415 22.3701C95.7479 21.9941 95.3164 21.8062 94.7471 21.8062C93.6048 21.8062 93.0337 22.5509 93.0337 24.0405ZM101.112 27.1074C100.346 27.1074 99.7511 26.8424 99.3286 26.3125C98.9061 25.7826 98.6948 25.0324 98.6948 24.062C98.6948 23.0988 98.9061 22.3468 99.3286 21.8062C99.7547 21.2655 100.353 20.9951 101.123 20.9951C101.914 20.9951 102.523 21.2852 102.949 21.8652H103.019C103.008 21.7936 102.993 21.6504 102.976 21.4355C102.958 21.2171 102.949 21.0703 102.949 20.9951V18.6426H103.916V27H103.137L102.992 26.2104H102.949C102.537 26.8084 101.925 27.1074 101.112 27.1074ZM101.268 26.3071C101.855 26.3071 102.283 26.1478 102.551 25.8291C102.823 25.5068 102.959 24.9805 102.959 24.25V24.0728C102.959 23.2528 102.822 22.6691 102.546 22.3218C102.274 21.9709 101.844 21.7954 101.257 21.7954C100.759 21.7954 100.374 21.9941 100.102 22.3916C99.8299 22.7855 99.6938 23.3494 99.6938 24.0835C99.6938 24.814 99.8281 25.3672 100.097 25.7432C100.369 26.1191 100.759 26.3071 101.268 26.3071ZM111.156 27.1074C110.271 27.1074 109.577 26.8407 109.072 26.3071C108.57 25.77 108.32 25.0324 108.32 24.0942C108.32 23.1489 108.554 22.397 109.023 21.8384C109.493 21.2762 110.126 20.9951 110.925 20.9951C111.666 20.9951 112.257 21.235 112.697 21.7148C113.138 22.1911 113.358 22.8374 113.358 23.6538V24.2393H109.319C109.337 24.9089 109.507 25.4173 109.829 25.7646C110.151 26.112 110.608 26.2856 111.199 26.2856C111.514 26.2856 111.813 26.2588 112.096 26.2051C112.379 26.1478 112.71 26.0386 113.089 25.8774V26.7261C112.764 26.8657 112.457 26.9642 112.171 27.0215C111.884 27.0788 111.546 27.1074 111.156 27.1074ZM110.914 21.7847C110.452 21.7847 110.087 21.9333 109.818 22.2305C109.55 22.5277 109.39 22.9412 109.34 23.4712H112.343C112.336 22.9198 112.208 22.5008 111.961 22.2144C111.714 21.9279 111.365 21.7847 110.914 21.7847ZM116.946 27.1074C116.18 27.1074 115.585 26.8424 115.163 26.3125C114.74 25.7826 114.529 25.0324 114.529 24.062C114.529 23.0988 114.74 22.3468 115.163 21.8062C115.589 21.2655 116.187 20.9951 116.957 20.9951C117.748 20.9951 118.357 21.2852 118.783 21.8652H118.853C118.842 21.7936 118.827 21.6504 118.81 21.4355C118.792 21.2171 118.783 21.0703 118.783 20.9951V18.6426H119.75V27H118.971L118.826 26.2104H118.783C118.371 26.8084 117.759 27.1074 116.946 27.1074ZM117.102 26.3071C117.689 26.3071 118.117 26.1478 118.385 25.8291C118.657 25.5068 118.793 24.9805 118.793 24.25V24.0728C118.793 23.2528 118.656 22.6691 118.38 22.3218C118.108 21.9709 117.678 21.7954 117.091 21.7954C116.593 21.7954 116.208 21.9941 115.936 22.3916C115.664 22.7855 115.528 23.3494 115.528 24.0835C115.528 24.814 115.662 25.3672 115.931 25.7432C116.203 26.1191 116.593 26.3071 117.102 26.3071ZM122.591 27H121.624V21.1025H122.591V27ZM121.549 19.5073C121.549 19.2925 121.603 19.1367 121.71 19.04C121.821 18.9434 121.957 18.895 122.118 18.895C122.269 18.895 122.399 18.9434 122.51 19.04C122.625 19.1367 122.682 19.2925 122.682 19.5073C122.682 19.7186 122.625 19.8743 122.51 19.9746C122.399 20.0749 122.269 20.125 122.118 20.125C121.957 20.125 121.821 20.0749 121.71 19.9746C121.603 19.8743 121.549 19.7186 121.549 19.5073ZM126.431 26.3179C126.556 26.3179 126.703 26.3053 126.872 26.2803C127.04 26.2552 127.167 26.2266 127.253 26.1943V26.9355C127.163 26.9749 127.024 27.0125 126.834 27.0483C126.648 27.0877 126.458 27.1074 126.265 27.1074C125.112 27.1074 124.535 26.5005 124.535 25.2866V21.8545H123.703V21.3926L124.546 21.0059L124.933 19.749H125.507V21.1025H127.21V21.8545H125.507V25.2598C125.507 25.5999 125.588 25.8613 125.749 26.0439C125.914 26.2266 126.141 26.3179 126.431 26.3179ZM132.275 25.3726C132.275 25.924 132.069 26.3519 131.657 26.6562C131.245 26.957 130.667 27.1074 129.922 27.1074C129.145 27.1074 128.528 26.9839 128.069 26.7368V25.856C128.717 26.1711 129.342 26.3286 129.944 26.3286C130.431 26.3286 130.785 26.2498 131.007 26.0923C131.229 25.9347 131.34 25.7235 131.34 25.4585C131.34 25.2257 131.233 25.0288 131.018 24.8677C130.807 24.7065 130.429 24.5221 129.885 24.3145C129.33 24.0996 128.939 23.917 128.714 23.7666C128.488 23.6126 128.322 23.4408 128.214 23.251C128.111 23.0612 128.059 22.8302 128.059 22.5581C128.059 22.0747 128.256 21.6934 128.649 21.4141C129.043 21.1348 129.584 20.9951 130.271 20.9951C130.941 20.9951 131.568 21.1276 132.151 21.3926L131.824 22.1606C131.226 21.91 130.687 21.7847 130.207 21.7847C129.806 21.7847 129.502 21.8491 129.294 21.978C129.086 22.1034 128.982 22.277 128.982 22.499C128.982 22.7139 129.072 22.8929 129.251 23.0361C129.43 23.1758 129.847 23.3709 130.502 23.6216C130.993 23.8042 131.355 23.9743 131.587 24.1318C131.824 24.2894 131.997 24.4666 132.108 24.6636C132.219 24.8605 132.275 25.0968 132.275 25.3726Z" fill="#515151"/>
<path d="M85.0415 67.1475V72.2285C85.0415 73.1237 84.7712 73.8273 84.2305 74.3394C83.6898 74.8514 82.9396 75.1074 81.98 75.1074C81.0311 75.1074 80.2952 74.8496 79.7725 74.334C79.2497 73.8148 78.9883 73.1058 78.9883 72.207V67.1475H79.9819V72.2393C79.9819 72.8802 80.152 73.3761 80.4922 73.7271C80.8359 74.078 81.3516 74.2534 82.0391 74.2534C82.6872 74.2534 83.1849 74.0798 83.5322 73.7324C83.8831 73.3851 84.0586 72.8838 84.0586 72.2285V67.1475H85.0415ZM90.998 75V71.2295C90.998 70.7497 90.8906 70.3934 90.6758 70.1606C90.4645 69.9243 90.1315 69.8062 89.6768 69.8062C89.0716 69.8062 88.6312 69.9744 88.3555 70.311C88.0833 70.644 87.9473 71.1883 87.9473 71.9438V75H86.9805V69.1025H87.7593L87.9043 69.9082H87.958C88.1406 69.6182 88.3966 69.3944 88.7261 69.2368C89.0555 69.0757 89.4189 68.9951 89.8164 68.9951C90.5397 68.9951 91.0768 69.1706 91.4277 69.5215C91.7786 69.8724 91.9541 70.4185 91.9541 71.1597V75H90.998ZM96.1436 75.1074C95.2949 75.1074 94.6343 74.8478 94.1616 74.3286C93.689 73.8058 93.4526 73.0575 93.4526 72.0835C93.4526 71.0952 93.6908 70.3343 94.167 69.8008C94.6468 69.2637 95.3289 68.9951 96.2134 68.9951C96.4998 68.9951 96.7827 69.0256 97.062 69.0864C97.3449 69.1437 97.5776 69.2189 97.7603 69.312L97.4648 70.1177C96.9671 69.9315 96.5428 69.8384 96.1919 69.8384C95.5975 69.8384 95.1589 70.0264 94.876 70.4023C94.5931 70.7747 94.4517 71.3315 94.4517 72.0728C94.4517 72.7853 94.5931 73.3314 94.876 73.7109C95.1589 74.0869 95.5778 74.2749 96.1328 74.2749C96.652 74.2749 97.1623 74.1603 97.6636 73.9312V74.7905C97.2554 75.0018 96.7487 75.1074 96.1436 75.1074ZM102.707 75L102.519 74.1621H102.476C102.182 74.5309 101.889 74.7816 101.595 74.9141C101.305 75.043 100.938 75.1074 100.494 75.1074C99.9141 75.1074 99.4593 74.9552 99.1299 74.6509C98.8005 74.3465 98.6357 73.9168 98.6357 73.3618C98.6357 72.1659 99.5793 71.5392 101.466 71.4819L102.465 71.4443V71.0952C102.465 70.6476 102.369 70.3182 102.175 70.1069C101.982 69.8921 101.672 69.7847 101.246 69.7847C100.935 69.7847 100.639 69.8312 100.36 69.9243C100.084 70.0174 99.8245 70.1213 99.5811 70.2358L99.2856 69.5107C99.5828 69.3532 99.9069 69.2297 100.258 69.1401C100.609 69.0506 100.956 69.0059 101.3 69.0059C102.012 69.0059 102.542 69.1634 102.89 69.4785C103.237 69.7936 103.411 70.2949 103.411 70.9824V75H102.707ZM100.714 74.3286C101.255 74.3286 101.679 74.1836 101.987 73.8936C102.299 73.5999 102.455 73.1846 102.455 72.6475V72.1157L101.584 72.1533C100.908 72.1784 100.414 72.2858 100.102 72.4756C99.7941 72.6654 99.6401 72.9644 99.6401 73.3726C99.6401 73.6805 99.7332 73.9168 99.9194 74.0815C100.109 74.2463 100.374 74.3286 100.714 74.3286ZM106.155 69.1025V72.8999C106.155 73.3761 106.261 73.7306 106.472 73.9634C106.687 74.1925 107.018 74.3071 107.466 74.3071C108.071 74.3071 108.511 74.1388 108.787 73.8022C109.063 73.4657 109.201 72.9232 109.201 72.1748V69.1025H110.173V75H109.378L109.238 74.2212H109.19C109.014 74.5041 108.766 74.7225 108.443 74.8765C108.121 75.0304 107.747 75.1074 107.321 75.1074C106.612 75.1074 106.076 74.9373 105.715 74.5972C105.357 74.257 105.178 73.7127 105.178 72.9644V69.1025H106.155ZM114.287 74.3179C114.882 74.3179 115.313 74.1585 115.582 73.8398C115.854 73.5176 115.99 73.002 115.99 72.293V72.062C115.99 71.2743 115.854 70.7013 115.582 70.3433C115.309 69.9852 114.871 69.8062 114.266 69.8062C113.771 69.8062 113.388 70.0031 113.116 70.397C112.848 70.7873 112.713 71.3459 112.713 72.0728C112.713 72.8032 112.844 73.36 113.105 73.7432C113.37 74.1263 113.764 74.3179 114.287 74.3179ZM115.979 74.9463L116.011 74.2212H115.968C115.571 74.812 114.962 75.1074 114.142 75.1074C113.379 75.1074 112.783 74.8424 112.354 74.3125C111.927 73.779 111.714 73.0288 111.714 72.062C111.714 71.1131 111.929 70.3647 112.359 69.8169C112.792 69.269 113.383 68.9951 114.131 68.9951C114.93 68.9951 115.546 69.2923 115.979 69.8867H116.038L116.167 69.1025H116.935V75.0967C116.935 75.9417 116.72 76.5773 116.291 77.0034C115.864 77.4295 115.2 77.6426 114.298 77.6426C113.438 77.6426 112.731 77.5173 112.176 77.2666V76.375C112.749 76.6829 113.474 76.8369 114.352 76.8369C114.853 76.8369 115.249 76.6901 115.539 76.3965C115.832 76.1029 115.979 75.6965 115.979 75.1772V74.9463ZM122.827 75V71.2295C122.827 70.7497 122.72 70.3934 122.505 70.1606C122.294 69.9243 121.961 69.8062 121.506 69.8062C120.908 69.8062 120.469 69.9727 120.19 70.3057C119.914 70.6387 119.776 71.1883 119.776 71.9546V75H118.81V66.6426H119.776V69.0918C119.776 69.4141 119.758 69.6898 119.723 69.9189H119.787C119.963 69.6325 120.211 69.4087 120.534 69.2476C120.856 69.0864 121.219 69.0059 121.624 69.0059C122.34 69.0059 122.879 69.1777 123.241 69.5215C123.602 69.8617 123.783 70.4077 123.783 71.1597V75H122.827ZM127.581 74.3179C127.706 74.3179 127.853 74.3053 128.021 74.2803C128.189 74.2552 128.316 74.2266 128.402 74.1943V74.9355C128.313 74.9749 128.173 75.0125 127.983 75.0483C127.797 75.0877 127.607 75.1074 127.414 75.1074C126.261 75.1074 125.685 74.5005 125.685 73.2866V69.8545H124.852V69.3926L125.695 69.0059L126.082 67.749H126.657V69.1025H128.359V69.8545H126.657V73.2598C126.657 73.5999 126.737 73.8613 126.898 74.0439C127.063 74.2266 127.291 74.3179 127.581 74.3179ZM81.0239 90.1074C80.2576 90.1074 79.6632 89.8424 79.2407 89.3125C78.8182 88.7826 78.6069 88.0324 78.6069 87.062C78.6069 86.0988 78.8182 85.3468 79.2407 84.8062C79.6668 84.2655 80.2648 83.9951 81.0347 83.9951C81.826 83.9951 82.4347 84.2852 82.8608 84.8652H82.9307C82.9199 84.7936 82.9056 84.6504 82.8877 84.4355C82.8698 84.2171 82.8608 84.0703 82.8608 83.9951V81.6426H83.8276V90H83.0488L82.9038 89.2104H82.8608C82.4491 89.8084 81.8368 90.1074 81.0239 90.1074ZM81.1797 89.3071C81.7669 89.3071 82.1948 89.1478 82.4634 88.8291C82.7355 88.5068 82.8716 87.9805 82.8716 87.25V87.0728C82.8716 86.2528 82.7337 85.6691 82.458 85.3218C82.1859 84.9709 81.7562 84.7954 81.1689 84.7954C80.6712 84.7954 80.2863 84.9941 80.0142 85.3916C79.742 85.7855 79.606 86.3494 79.606 87.0835C79.606 87.814 79.7402 88.3672 80.0088 88.7432C80.2809 89.1191 80.6712 89.3071 81.1797 89.3071ZM89.3438 90L89.1558 89.1621H89.1128C88.8192 89.5309 88.5256 89.7816 88.2319 89.9141C87.9419 90.043 87.5749 90.1074 87.1309 90.1074C86.5508 90.1074 86.096 89.9552 85.7666 89.6509C85.4372 89.3465 85.2725 88.9168 85.2725 88.3618C85.2725 87.1659 86.216 86.5392 88.103 86.4819L89.1021 86.4443V86.0952C89.1021 85.6476 89.0054 85.3182 88.812 85.1069C88.6187 84.8921 88.3089 84.7847 87.8828 84.7847C87.5713 84.7847 87.2759 84.8312 86.9966 84.9243C86.7209 85.0174 86.4613 85.1213 86.2178 85.2358L85.9224 84.5107C86.2196 84.3532 86.5436 84.2297 86.8945 84.1401C87.2454 84.0506 87.5928 84.0059 87.9365 84.0059C88.6491 84.0059 89.179 84.1634 89.5264 84.4785C89.8737 84.7936 90.0474 85.2949 90.0474 85.9824V90H89.3438ZM87.3511 89.3286C87.8918 89.3286 88.3161 89.1836 88.624 88.8936C88.9355 88.5999 89.0913 88.1846 89.0913 87.6475V87.1157L88.2212 87.1533C87.5444 87.1784 87.0503 87.2858 86.7388 87.4756C86.4308 87.6654 86.2769 87.9644 86.2769 88.3726C86.2769 88.6805 86.37 88.9168 86.5562 89.0815C86.7459 89.2463 87.0109 89.3286 87.3511 89.3286ZM99.3823 90V86.2026C99.3823 85.2716 98.9831 84.8062 98.1846 84.8062C97.6367 84.8062 97.2339 84.9655 96.9761 85.2842C96.7183 85.6029 96.5894 86.0898 96.5894 86.7451V90H95.6279V86.2026C95.6279 85.7371 95.5295 85.388 95.3325 85.1553C95.1392 84.9225 94.8348 84.8062 94.4194 84.8062C93.8752 84.8062 93.4759 84.9727 93.2217 85.3057C92.971 85.6387 92.8457 86.1847 92.8457 86.9438V90H91.8789V84.1025H92.6577L92.8027 84.9082H92.8564C93.0247 84.6217 93.2611 84.3979 93.5654 84.2368C93.8734 84.0757 94.2171 83.9951 94.5967 83.9951C95.5205 83.9951 96.1221 84.3245 96.4014 84.9834H96.4551C96.6449 84.6683 96.9027 84.4248 97.2285 84.2529C97.5579 84.0811 97.9303 83.9951 98.3457 83.9951C99.0117 83.9951 99.5094 84.167 99.8389 84.5107C100.172 84.8545 100.338 85.4041 100.338 86.1597V90H99.3823ZM105.812 90L105.624 89.1621H105.581C105.287 89.5309 104.993 89.7816 104.7 89.9141C104.41 90.043 104.043 90.1074 103.599 90.1074C103.019 90.1074 102.564 89.9552 102.234 89.6509C101.905 89.3465 101.74 88.9168 101.74 88.3618C101.74 87.1659 102.684 86.5392 104.571 86.4819L105.57 86.4443V86.0952C105.57 85.6476 105.473 85.3182 105.28 85.1069C105.086 84.8921 104.777 84.7847 104.351 84.7847C104.039 84.7847 103.744 84.8312 103.464 84.9243C103.189 85.0174 102.929 85.1213 102.686 85.2358L102.39 84.5107C102.687 84.3532 103.011 84.2297 103.362 84.1401C103.713 84.0506 104.061 84.0059 104.404 84.0059C105.117 84.0059 105.647 84.1634 105.994 84.4785C106.341 84.7936 106.515 85.2949 106.515 85.9824V90H105.812ZM103.819 89.3286C104.36 89.3286 104.784 89.1836 105.092 88.8936C105.403 88.5999 105.559 88.1846 105.559 87.6475V87.1157L104.689 87.1533C104.012 87.1784 103.518 87.2858 103.207 87.4756C102.899 87.6654 102.745 87.9644 102.745 88.3726C102.745 88.6805 102.838 88.9168 103.024 89.0815C103.214 89.2463 103.479 89.3286 103.819 89.3286ZM110.592 89.3179C111.186 89.3179 111.618 89.1585 111.886 88.8398C112.158 88.5176 112.294 88.002 112.294 87.293V87.062C112.294 86.2743 112.158 85.7013 111.886 85.3433C111.614 84.9852 111.175 84.8062 110.57 84.8062C110.076 84.8062 109.693 85.0031 109.421 85.397C109.152 85.7873 109.018 86.3459 109.018 87.0728C109.018 87.8032 109.149 88.36 109.41 88.7432C109.675 89.1263 110.069 89.3179 110.592 89.3179ZM112.284 89.9463L112.316 89.2212H112.273C111.875 89.812 111.267 90.1074 110.447 90.1074C109.684 90.1074 109.088 89.8424 108.658 89.3125C108.232 88.779 108.019 88.0288 108.019 87.062C108.019 86.1131 108.234 85.3647 108.664 84.8169C109.097 84.269 109.688 83.9951 110.436 83.9951C111.235 83.9951 111.85 84.2923 112.284 84.8867H112.343L112.472 84.1025H113.24V90.0967C113.24 90.9417 113.025 91.5773 112.595 92.0034C112.169 92.4295 111.505 92.6426 110.603 92.6426C109.743 92.6426 109.036 92.5173 108.481 92.2666V91.375C109.054 91.6829 109.779 91.8369 110.656 91.8369C111.158 91.8369 111.553 91.6901 111.843 91.3965C112.137 91.1029 112.284 90.6965 112.284 90.1772V89.9463ZM116.081 90H115.114V84.1025H116.081V90ZM115.039 82.5073C115.039 82.2925 115.093 82.1367 115.2 82.04C115.311 81.9434 115.447 81.895 115.608 81.895C115.759 81.895 115.889 81.9434 116 82.04C116.115 82.1367 116.172 82.2925 116.172 82.5073C116.172 82.7186 116.115 82.8743 116 82.9746C115.889 83.0749 115.759 83.125 115.608 83.125C115.447 83.125 115.311 83.0749 115.2 82.9746C115.093 82.8743 115.039 82.7186 115.039 82.5073ZM121.968 90V86.2295C121.968 85.7497 121.86 85.3934 121.646 85.1606C121.434 84.9243 121.101 84.8062 120.646 84.8062C120.041 84.8062 119.601 84.9744 119.325 85.311C119.053 85.644 118.917 86.1883 118.917 86.9438V90H117.95V84.1025H118.729L118.874 84.9082H118.928C119.11 84.6182 119.366 84.3944 119.696 84.2368C120.025 84.0757 120.389 83.9951 120.786 83.9951C121.509 83.9951 122.047 84.1706 122.397 84.5215C122.748 84.8724 122.924 85.4185 122.924 86.1597V90H121.968ZM126.995 89.3179C127.59 89.3179 128.021 89.1585 128.29 88.8398C128.562 88.5176 128.698 88.002 128.698 87.293V87.062C128.698 86.2743 128.562 85.7013 128.29 85.3433C128.017 84.9852 127.579 84.8062 126.974 84.8062C126.479 84.8062 126.096 85.0031 125.824 85.397C125.556 85.7873 125.421 86.3459 125.421 87.0728C125.421 87.8032 125.552 88.36 125.813 88.7432C126.078 89.1263 126.472 89.3179 126.995 89.3179ZM128.687 89.9463L128.719 89.2212H128.676C128.279 89.812 127.67 90.1074 126.85 90.1074C126.087 90.1074 125.491 89.8424 125.062 89.3125C124.635 88.779 124.422 88.0288 124.422 87.062C124.422 86.1131 124.637 85.3647 125.067 84.8169C125.5 84.269 126.091 83.9951 126.839 83.9951C127.638 83.9951 128.254 84.2923 128.687 84.8867H128.746L128.875 84.1025H129.643V90.0967C129.643 90.9417 129.428 91.5773 128.999 92.0034C128.572 92.4295 127.908 92.6426 127.006 92.6426C126.146 92.6426 125.439 92.5173 124.884 92.2666V91.375C125.457 91.6829 126.182 91.8369 127.06 91.8369C127.561 91.8369 127.957 91.6901 128.247 91.3965C128.54 91.1029 128.687 90.6965 128.687 90.1772V89.9463ZM136.883 90.1074C135.999 90.1074 135.304 89.8407 134.799 89.3071C134.298 88.77 134.047 88.0324 134.047 87.0942C134.047 86.1489 134.282 85.397 134.751 84.8384C135.22 84.2762 135.854 83.9951 136.652 83.9951C137.394 83.9951 137.984 84.235 138.425 84.7148C138.865 85.1911 139.085 85.8374 139.085 86.6538V87.2393H135.046C135.064 87.9089 135.234 88.4173 135.557 88.7646C135.879 89.112 136.335 89.2856 136.926 89.2856C137.241 89.2856 137.54 89.2588 137.823 89.2051C138.106 89.1478 138.437 89.0386 138.817 88.8774V89.7261C138.491 89.8657 138.185 89.9642 137.898 90.0215C137.612 90.0788 137.274 90.1074 136.883 90.1074ZM136.642 84.7847C136.18 84.7847 135.814 84.9333 135.546 85.2305C135.277 85.5277 135.118 85.9412 135.068 86.4712H138.07C138.063 85.9198 137.936 85.5008 137.689 85.2144C137.442 84.9279 137.093 84.7847 136.642 84.7847ZM142.673 90.1074C141.907 90.1074 141.313 89.8424 140.89 89.3125C140.468 88.7826 140.256 88.0324 140.256 87.062C140.256 86.0988 140.468 85.3468 140.89 84.8062C141.316 84.2655 141.914 83.9951 142.684 83.9951C143.475 83.9951 144.084 84.2852 144.51 84.8652H144.58C144.569 84.7936 144.555 84.6504 144.537 84.4355C144.519 84.2171 144.51 84.0703 144.51 83.9951V81.6426H145.477V90H144.698L144.553 89.2104H144.51C144.098 89.8084 143.486 90.1074 142.673 90.1074ZM142.829 89.3071C143.416 89.3071 143.844 89.1478 144.113 88.8291C144.385 88.5068 144.521 87.9805 144.521 87.25V87.0728C144.521 86.2528 144.383 85.6691 144.107 85.3218C143.835 84.9709 143.406 84.7954 142.818 84.7954C142.321 84.7954 141.936 84.9941 141.664 85.3916C141.391 85.7855 141.255 86.3494 141.255 87.0835C141.255 87.814 141.39 88.3672 141.658 88.7432C141.93 89.1191 142.321 89.3071 142.829 89.3071ZM148.318 90H147.352V84.1025H148.318V90ZM147.276 82.5073C147.276 82.2925 147.33 82.1367 147.438 82.04C147.549 81.9434 147.685 81.895 147.846 81.895C147.996 81.895 148.127 81.9434 148.238 82.04C148.352 82.1367 148.41 82.2925 148.41 82.5073C148.41 82.7186 148.352 82.8743 148.238 82.9746C148.127 83.0749 147.996 83.125 147.846 83.125C147.685 83.125 147.549 83.0749 147.438 82.9746C147.33 82.8743 147.276 82.7186 147.276 82.5073ZM152.159 89.3179C152.284 89.3179 152.431 89.3053 152.599 89.2803C152.767 89.2552 152.895 89.2266 152.98 89.1943V89.9355C152.891 89.9749 152.751 90.0125 152.562 90.0483C152.375 90.0877 152.186 90.1074 151.992 90.1074C150.839 90.1074 150.263 89.5005 150.263 88.2866V84.8545H149.43V84.3926L150.273 84.0059L150.66 82.749H151.235V84.1025H152.938V84.8545H151.235V88.2598C151.235 88.5999 151.315 88.8613 151.477 89.0439C151.641 89.2266 151.869 89.3179 152.159 89.3179ZM158.002 88.3726C158.002 88.924 157.797 89.3519 157.385 89.6562C156.973 89.957 156.395 90.1074 155.65 90.1074C154.873 90.1074 154.255 89.9839 153.797 89.7368V88.856C154.445 89.1711 155.07 89.3286 155.671 89.3286C156.158 89.3286 156.513 89.2498 156.735 89.0923C156.957 88.9347 157.068 88.7235 157.068 88.4585C157.068 88.2257 156.96 88.0288 156.746 87.8677C156.534 87.7065 156.157 87.5221 155.612 87.3145C155.057 87.0996 154.667 86.917 154.441 86.7666C154.216 86.6126 154.049 86.4408 153.942 86.251C153.838 86.0612 153.786 85.8302 153.786 85.5581C153.786 85.0747 153.983 84.6934 154.377 84.4141C154.771 84.1348 155.312 83.9951 155.999 83.9951C156.669 83.9951 157.295 84.1276 157.879 84.3926L157.551 85.1606C156.953 84.91 156.414 84.7847 155.935 84.7847C155.534 84.7847 155.229 84.8491 155.021 84.978C154.814 85.1034 154.71 85.277 154.71 85.499C154.71 85.7139 154.799 85.8929 154.979 86.0361C155.158 86.1758 155.575 86.3709 156.23 86.6216C156.721 86.8042 157.082 86.9743 157.315 87.1318C157.551 87.2894 157.725 87.4666 157.836 87.6636C157.947 87.8605 158.002 88.0968 158.002 88.3726Z" fill="#515151"/>
<rect x="0.500787" y="-0.49931" width="20.8388" height="65.352" rx="3.5" transform="matrix(0.00157506 -0.999999 0.999999 0.00137894 1.99931 24.8408)" stroke="#C57619" stroke-dasharray="5 5"/>
<rect x="0.500787" y="-0.49931" width="51.8559" height="66.5356" rx="3.5" transform="matrix(0.00157506 -0.999999 0.999999 0.00137894 1.97953 104.169)" stroke="#A7A7A7" stroke-dasharray="5 5"/>
<rect x="1" y="47.2446" width="43.268" height="66.4422" rx="2" transform="rotate(-89.9156 1 47.2446)" fill="#C57619" fill-opacity="0.1"/>
<circle cx="9.26514" cy="36.5" r="3.5" transform="rotate(-90 9.26514 36.5)" fill="#C57619"/>
<circle cx="25.2651" cy="36.5" r="3.5" transform="rotate(-90 25.2651 36.5)" fill="#C57619"/>
<circle cx="41.2651" cy="36.5" r="3.5" transform="rotate(-90 41.2651 36.5)" fill="#C57619"/>
<circle cx="57.2651" cy="36.5" r="3.5" transform="rotate(-90 57.2651 36.5)" fill="#C57619"/>
<line x1="23.1789" y1="75" x2="28.8492" y2="80.6703" stroke="#A7A7A7" stroke-width="2" stroke-linecap="round" stroke-linejoin="round"/>
<line x1="1" y1="-1" x2="9.01904" y2="-1" transform="matrix(-0.707107 0.707107 0.707107 0.707107 29.7646 75)" stroke="#A7A7A7" stroke-width="2" stroke-linecap="round" stroke-linejoin="round"/>
<line x1="23.1789" y1="60" x2="28.8492" y2="65.6703" stroke="#A7A7A7" stroke-width="2" stroke-linecap="round" stroke-linejoin="round"/>
<line x1="1" y1="-1" x2="9.01904" y2="-1" transform="matrix(-0.707107 0.707107 0.707107 0.707107 29.7646 60)" stroke="#A7A7A7" stroke-width="2" stroke-linecap="round" stroke-linejoin="round"/>
<line x1="23.4142" y1="90" x2="29.0845" y2="95.6703" stroke="#A7A7A7" stroke-width="2" stroke-linecap="round" stroke-linejoin="round"/>
<line x1="1" y1="-1" x2="9.01904" y2="-1" transform="matrix(-0.707107 0.707107 0.707107 0.707107 30 90)" stroke="#A7A7A7" stroke-width="2" stroke-linecap="round" stroke-linejoin="round"/>
<line x1="39.4162" y1="75" x2="45.0865" y2="80.6703" stroke="#A7A7A7" stroke-width="2" stroke-linecap="round" stroke-linejoin="round"/>
<line x1="1" y1="-1" x2="9.01904" y2="-1" transform="matrix(-0.707107 0.707107 0.707107 0.707107 46.002 75)" stroke="#A7A7A7" stroke-width="2" stroke-linecap="round" stroke-linejoin="round"/>
<line x1="39.4162" y1="60" x2="45.0865" y2="65.6703" stroke="#A7A7A7" stroke-width="2" stroke-linecap="round" stroke-linejoin="round"/>
<line x1="1" y1="-1" x2="9.01904" y2="-1" transform="matrix(-0.707107 0.707107 0.707107 0.707107 46.002 60)" stroke="#A7A7A7" stroke-width="2" stroke-linecap="round" stroke-linejoin="round"/>
<line x1="55.4162" y1="75" x2="61.0865" y2="80.6703" stroke="#A7A7A7" stroke-width="2" stroke-linecap="round" stroke-linejoin="round"/>
<line x1="1" y1="-1" x2="9.01904" y2="-1" transform="matrix(-0.707107 0.707107 0.707107 0.707107 62.002 75)" stroke="#A7A7A7" stroke-width="2" stroke-linecap="round" stroke-linejoin="round"/>
<line x1="55.4162" y1="60" x2="61.0865" y2="65.6703" stroke="#A7A7A7" stroke-width="2" stroke-linecap="round" stroke-linejoin="round"/>
<line x1="1" y1="-1" x2="9.01904" y2="-1" transform="matrix(-0.707107 0.707107 0.707107 0.707107 62.002 60)" stroke="#A7A7A7" stroke-width="2" stroke-linecap="round" stroke-linejoin="round"/>
<circle cx="9.26514" cy="36.5" r="3.5" transform="rotate(-90 9.26514 36.5)" fill="#C57619"/>
<circle cx="25.2651" cy="36.5" r="3.5" transform="rotate(-90 25.2651 36.5)" fill="#C57619"/>
<circle cx="41.2651" cy="36.5" r="3.5" transform="rotate(-90 41.2651 36.5)" fill="#C57619"/>
<circle cx="57.2651" cy="36.5" r="3.5" transform="rotate(-90 57.2651 36.5)" fill="#C57619"/>
<line x1="8.17935" y1="11.4341" x2="13.8497" y2="17.1044" stroke="#C47619" stroke-width="2" stroke-linecap="round" stroke-linejoin="round"/>
<line x1="1" y1="-1" x2="9.01904" y2="-1" transform="matrix(-0.707107 0.707107 0.707107 0.707107 14.7651 11.4341)" stroke="#C47619" stroke-width="2" stroke-linecap="round" stroke-linejoin="round"/>
<line x1="8.17886" y1="75" x2="13.8492" y2="80.6703" stroke="#A7A7A7" stroke-width="2" stroke-linecap="round" stroke-linejoin="round"/>
<line x1="1" y1="-1" x2="9.01904" y2="-1" transform="matrix(-0.707107 0.707107 0.707107 0.707107 14.7646 75)" stroke="#A7A7A7" stroke-width="2" stroke-linecap="round" stroke-linejoin="round"/>
<line x1="8.17886" y1="60" x2="13.8492" y2="65.6703" stroke="#A7A7A7" stroke-width="2" stroke-linecap="round" stroke-linejoin="round"/>
<line x1="1" y1="-1" x2="9.01904" y2="-1" transform="matrix(-0.707107 0.707107 0.707107 0.707107 14.7646 60)" stroke="#A7A7A7" stroke-width="2" stroke-linecap="round" stroke-linejoin="round"/>
<line x1="8.41421" y1="90" x2="14.0845" y2="95.6703" stroke="#A7A7A7" stroke-width="2" stroke-linecap="round" stroke-linejoin="round"/>
<line x1="1" y1="-1" x2="9.01904" y2="-1" transform="matrix(-0.707107 0.707107 0.707107 0.707107 15 90)" stroke="#A7A7A7" stroke-width="2" stroke-linecap="round" stroke-linejoin="round"/>
</svg>
