<svg width="483" height="68" viewBox="0 0 483 68" fill="none" xmlns="http://www.w3.org/2000/svg">
<rect x="120" y="37" width="94" height="27" rx="2" fill="#CE7474" fill-opacity="0.2"/>
<rect x="122" width="67" height="27" rx="2" fill="#A0A0A0" fill-opacity="0.2"/>
<rect x="360" y="37" width="123" height="27" rx="2" fill="#A6CE74" fill-opacity="0.2"/>
<path d="M9.5498 12.9072C9.5498 14.5524 9.0804 15.8125 8.1416 16.6875C7.20736 17.5625 5.85612 18 4.08789 18H1.25781V8.00586H4.39551C6.02702 8.00586 7.29395 8.43652 8.19629 9.29785C9.09863 10.1592 9.5498 11.3623 9.5498 12.9072ZM7.34863 12.9619C7.34863 10.8154 6.40072 9.74219 4.50488 9.74219H3.37695V16.25H4.28613C6.3278 16.25 7.34863 15.154 7.34863 12.9619ZM16.3105 18L15.9072 16.9609H15.8525C15.5016 17.403 15.1393 17.7106 14.7656 17.8838C14.3965 18.0524 13.9134 18.1367 13.3164 18.1367C12.5827 18.1367 12.0039 17.9271 11.5801 17.5078C11.1608 17.0885 10.9512 16.4915 10.9512 15.7168C10.9512 14.9056 11.2337 14.3086 11.7988 13.9258C12.3685 13.5384 13.2253 13.3242 14.3691 13.2832L15.6953 13.2422V12.9072C15.6953 12.1325 15.2988 11.7451 14.5059 11.7451C13.8952 11.7451 13.1774 11.9297 12.3525 12.2988L11.6621 10.8906C12.5417 10.4303 13.5169 10.2002 14.5879 10.2002C15.6133 10.2002 16.3994 10.4235 16.9463 10.8701C17.4932 11.3167 17.7666 11.9958 17.7666 12.9072V18H16.3105ZM15.6953 14.459L14.8887 14.4863C14.2826 14.5046 13.8314 14.6139 13.5352 14.8145C13.2389 15.015 13.0908 15.3203 13.0908 15.7305C13.0908 16.3184 13.4281 16.6123 14.1025 16.6123C14.5856 16.6123 14.9707 16.4733 15.2578 16.1953C15.5495 15.9173 15.6953 15.5482 15.6953 15.0879V14.459ZM26.7627 18H24.6777V13.5361C24.6777 12.9847 24.5843 12.5723 24.3975 12.2988C24.2152 12.0208 23.9258 11.8818 23.5293 11.8818C22.9961 11.8818 22.6087 12.0778 22.3672 12.4697C22.1257 12.8617 22.0049 13.5065 22.0049 14.4043V18H19.9199V10.3574H21.5127L21.793 11.335H21.9092C22.1143 10.984 22.4105 10.7106 22.7979 10.5146C23.1852 10.3141 23.6296 10.2139 24.1309 10.2139C25.2747 10.2139 26.0495 10.5876 26.4551 11.335H26.6396C26.8447 10.9795 27.1455 10.7038 27.542 10.5078C27.943 10.3118 28.3942 10.2139 28.8955 10.2139C29.7614 10.2139 30.4154 10.4372 30.8574 10.8838C31.304 11.3258 31.5273 12.0368 31.5273 13.0166V18H29.4355V13.5361C29.4355 12.9847 29.3421 12.5723 29.1553 12.2988C28.973 12.0208 28.6836 11.8818 28.2871 11.8818C27.7767 11.8818 27.3939 12.0641 27.1387 12.4287C26.888 12.7933 26.7627 13.3721 26.7627 14.165V18ZM38.5273 18L38.124 16.9609H38.0693C37.7184 17.403 37.3561 17.7106 36.9824 17.8838C36.6133 18.0524 36.1302 18.1367 35.5332 18.1367C34.7995 18.1367 34.2207 17.9271 33.7969 17.5078C33.3776 17.0885 33.168 16.4915 33.168 15.7168C33.168 14.9056 33.4505 14.3086 34.0156 13.9258C34.5853 13.5384 35.4421 13.3242 36.5859 13.2832L37.9121 13.2422V12.9072C37.9121 12.1325 37.5156 11.7451 36.7227 11.7451C36.112 11.7451 35.3942 11.9297 34.5693 12.2988L33.8789 10.8906C34.7585 10.4303 35.7337 10.2002 36.8047 10.2002C37.8301 10.2002 38.6162 10.4235 39.1631 10.8701C39.71 11.3167 39.9834 11.9958 39.9834 12.9072V18H38.5273ZM37.9121 14.459L37.1055 14.4863C36.4993 14.5046 36.0482 14.6139 35.752 14.8145C35.4557 15.015 35.3076 15.3203 35.3076 15.7305C35.3076 16.3184 35.6449 16.6123 36.3193 16.6123C36.8024 16.6123 37.1875 16.4733 37.4746 16.1953C37.7663 15.9173 37.9121 15.5482 37.9121 15.0879V14.459ZM45.3018 16.5029C45.8623 16.5029 46.2633 16.3434 46.5049 16.0244C46.7464 15.7008 46.8672 15.179 46.8672 14.459V14.2061C46.8672 13.3903 46.7396 12.8047 46.4844 12.4492C46.2337 12.0892 45.8281 11.9092 45.2676 11.9092C44.2878 11.9092 43.7979 12.6794 43.7979 14.2197C43.7979 14.9854 43.9186 15.5573 44.1602 15.9355C44.4062 16.3138 44.7868 16.5029 45.3018 16.5029ZM48.8154 18.0137C48.8154 19.112 48.4941 19.9437 47.8516 20.5088C47.2135 21.0785 46.2611 21.3633 44.9941 21.3633C43.8776 21.3633 42.9251 21.2129 42.1367 20.9121V19.2441C43.0618 19.6361 44.0553 19.832 45.1172 19.832C46.1882 19.832 46.7236 19.2533 46.7236 18.0957V17.9453L46.7852 17.0088H46.7236C46.236 17.7607 45.5137 18.1367 44.5566 18.1367C43.6406 18.1367 42.9297 17.7835 42.4238 17.0771C41.9225 16.3708 41.6719 15.4092 41.6719 14.1924C41.6719 12.9391 41.9316 11.9639 42.4512 11.2666C42.9753 10.5648 43.6953 10.2139 44.6113 10.2139C45.5501 10.2139 46.2884 10.5876 46.8262 11.335H46.8809L47.0518 10.3574H48.8154V18.0137ZM50.9072 8.38184C50.9072 7.7028 51.2855 7.36328 52.042 7.36328C52.7985 7.36328 53.1768 7.7028 53.1768 8.38184C53.1768 8.7054 53.0811 8.95833 52.8896 9.14062C52.7028 9.31836 52.4202 9.40723 52.042 9.40723C51.2855 9.40723 50.9072 9.06543 50.9072 8.38184ZM53.0811 18H50.9961V10.3574H53.0811V18ZM62.3301 18H60.2451V13.5361C60.2451 12.9847 60.1471 12.5723 59.9512 12.2988C59.7552 12.0208 59.443 11.8818 59.0146 11.8818C58.4313 11.8818 58.0098 12.0778 57.75 12.4697C57.4902 12.8571 57.3604 13.502 57.3604 14.4043V18H55.2754V10.3574H56.8682L57.1484 11.335H57.2646C57.4971 10.9658 57.8161 10.6878 58.2217 10.501C58.6318 10.3096 59.0967 10.2139 59.6162 10.2139C60.5049 10.2139 61.1794 10.4554 61.6396 10.9385C62.0999 11.417 62.3301 12.1097 62.3301 13.0166V18ZM67.6416 16.5029C68.2021 16.5029 68.6032 16.3434 68.8447 16.0244C69.0863 15.7008 69.207 15.179 69.207 14.459V14.2061C69.207 13.3903 69.0794 12.8047 68.8242 12.4492C68.5736 12.0892 68.168 11.9092 67.6074 11.9092C66.6276 11.9092 66.1377 12.6794 66.1377 14.2197C66.1377 14.9854 66.2585 15.5573 66.5 15.9355C66.7461 16.3138 67.1266 16.5029 67.6416 16.5029ZM71.1553 18.0137C71.1553 19.112 70.834 19.9437 70.1914 20.5088C69.5534 21.0785 68.6009 21.3633 67.334 21.3633C66.2174 21.3633 65.265 21.2129 64.4766 20.9121V19.2441C65.4017 19.6361 66.3952 19.832 67.457 19.832C68.528 19.832 69.0635 19.2533 69.0635 18.0957V17.9453L69.125 17.0088H69.0635C68.5758 17.7607 67.8535 18.1367 66.8965 18.1367C65.9805 18.1367 65.2695 17.7835 64.7637 17.0771C64.2624 16.3708 64.0117 15.4092 64.0117 14.1924C64.0117 12.9391 64.2715 11.9639 64.791 11.2666C65.3151 10.5648 66.0352 10.2139 66.9512 10.2139C67.89 10.2139 68.6283 10.5876 69.166 11.335H69.2207L69.3916 10.3574H71.1553V18.0137ZM83.0361 15.2246C83.0361 16.127 82.7103 16.8379 82.0586 17.3574C81.4115 17.877 80.5091 18.1367 79.3516 18.1367C78.2852 18.1367 77.3418 17.9362 76.5215 17.5352V15.5664C77.196 15.8672 77.7656 16.0791 78.2305 16.2021C78.6999 16.3252 79.1283 16.3867 79.5156 16.3867C79.9805 16.3867 80.3359 16.2979 80.582 16.1201C80.8327 15.9424 80.958 15.6781 80.958 15.3271C80.958 15.1312 80.9033 14.958 80.7939 14.8076C80.6846 14.6527 80.5228 14.5046 80.3086 14.3633C80.099 14.222 79.6683 13.9964 79.0166 13.6865C78.4059 13.3994 77.9479 13.1237 77.6426 12.8594C77.3372 12.5951 77.0934 12.2874 76.9111 11.9365C76.7288 11.5856 76.6377 11.1755 76.6377 10.7061C76.6377 9.82194 76.9362 9.12695 77.5332 8.62109C78.1348 8.11523 78.9642 7.8623 80.0215 7.8623C80.541 7.8623 81.0355 7.92383 81.5049 8.04688C81.9788 8.16992 82.4733 8.3431 82.9883 8.56641L82.3047 10.2139C81.7715 9.99512 81.3294 9.84245 80.9785 9.75586C80.6322 9.66927 80.2904 9.62598 79.9531 9.62598C79.5521 9.62598 79.2445 9.7194 79.0303 9.90625C78.8161 10.0931 78.709 10.3369 78.709 10.6377C78.709 10.8245 78.7523 10.9886 78.8389 11.1299C78.9255 11.2666 79.0622 11.401 79.249 11.5332C79.4404 11.6608 79.8893 11.8932 80.5957 12.2305C81.5299 12.6771 82.1702 13.126 82.5166 13.5771C82.863 14.0238 83.0361 14.5729 83.0361 15.2246ZM87.7871 18.1367C85.4082 18.1367 84.2188 16.8311 84.2188 14.2197C84.2188 12.9209 84.5423 11.9297 85.1895 11.2461C85.8366 10.5579 86.764 10.2139 87.9717 10.2139C88.8558 10.2139 89.6488 10.387 90.3506 10.7334L89.7354 12.3467C89.4072 12.2145 89.1019 12.1074 88.8193 12.0254C88.5368 11.9388 88.2542 11.8955 87.9717 11.8955C86.887 11.8955 86.3447 12.6657 86.3447 14.2061C86.3447 15.7008 86.887 16.4482 87.9717 16.4482C88.3727 16.4482 88.7441 16.3958 89.0859 16.291C89.4277 16.1816 89.7695 16.013 90.1113 15.7852V17.5693C89.7741 17.7835 89.4323 17.9316 89.0859 18.0137C88.7441 18.0957 88.3112 18.1367 87.7871 18.1367ZM93.5498 14.165C93.5498 14.9215 93.6729 15.4935 93.9189 15.8809C94.1696 16.2682 94.5752 16.4619 95.1357 16.4619C95.6917 16.4619 96.0905 16.2705 96.332 15.8877C96.5781 15.5003 96.7012 14.9261 96.7012 14.165C96.7012 13.4085 96.5781 12.8411 96.332 12.4629C96.0859 12.0846 95.6826 11.8955 95.1221 11.8955C94.5661 11.8955 94.165 12.0846 93.9189 12.4629C93.6729 12.8366 93.5498 13.404 93.5498 14.165ZM98.834 14.165C98.834 15.4092 98.5059 16.3822 97.8496 17.084C97.1934 17.7858 96.2796 18.1367 95.1084 18.1367C94.3747 18.1367 93.7275 17.9772 93.167 17.6582C92.6064 17.3346 92.1758 16.8721 91.875 16.2705C91.5742 15.6689 91.4238 14.9671 91.4238 14.165C91.4238 12.9163 91.7497 11.9456 92.4014 11.2529C93.0531 10.5602 93.9691 10.2139 95.1494 10.2139C95.8831 10.2139 96.5303 10.3734 97.0908 10.6924C97.6514 11.0114 98.082 11.4694 98.3828 12.0664C98.6836 12.6634 98.834 13.363 98.834 14.165ZM104.822 10.2139C105.105 10.2139 105.34 10.2344 105.526 10.2754L105.369 12.2305C105.201 12.1849 104.995 12.1621 104.754 12.1621C104.089 12.1621 103.569 12.333 103.195 12.6748C102.826 13.0166 102.642 13.4951 102.642 14.1104V18H100.557V10.3574H102.136L102.443 11.6426H102.546C102.783 11.2142 103.102 10.8701 103.503 10.6104C103.909 10.346 104.348 10.2139 104.822 10.2139ZM109.942 11.6973C109.5 11.6973 109.154 11.8385 108.903 12.1211C108.653 12.3991 108.509 12.7956 108.473 13.3105H111.398C111.389 12.7956 111.255 12.3991 110.995 12.1211C110.735 11.8385 110.384 11.6973 109.942 11.6973ZM110.236 18.1367C109.006 18.1367 108.044 17.7972 107.352 17.1182C106.659 16.4391 106.312 15.4775 106.312 14.2334C106.312 12.9528 106.632 11.9639 107.27 11.2666C107.912 10.5648 108.799 10.2139 109.929 10.2139C111.009 10.2139 111.85 10.5215 112.451 11.1367C113.053 11.752 113.354 12.6019 113.354 13.6865V14.6982H108.425C108.448 15.2907 108.623 15.7533 108.951 16.0859C109.279 16.4186 109.74 16.585 110.332 16.585C110.792 16.585 111.228 16.5371 111.638 16.4414C112.048 16.3457 112.476 16.193 112.923 15.9834V17.5967C112.558 17.779 112.169 17.9134 111.754 18C111.339 18.0911 110.833 18.1367 110.236 18.1367Z" fill="black"/>
<path d="M5.86035 56H4.65723V49.7588C4.65723 49.5628 4.65723 49.3532 4.65723 49.1299C4.66178 48.9066 4.66634 48.6855 4.6709 48.4668C4.68001 48.2435 4.68685 48.0316 4.69141 47.8311C4.70052 47.626 4.70736 47.446 4.71191 47.291C4.63444 47.373 4.56608 47.4437 4.50684 47.5029C4.44759 47.5622 4.38607 47.6191 4.32227 47.6738C4.26302 47.7285 4.19922 47.7878 4.13086 47.8516C4.0625 47.9108 3.98047 47.9814 3.88477 48.0635L2.87305 48.8906L2.2168 48.0498L4.83496 46.0059H5.86035V56ZM9.71582 55.2412C9.71582 55.068 9.73861 54.9222 9.78418 54.8037C9.82975 54.6807 9.89128 54.5827 9.96875 54.5098C10.0462 54.4323 10.1374 54.3776 10.2422 54.3457C10.347 54.3092 10.4609 54.291 10.584 54.291C10.7025 54.291 10.8141 54.3092 10.9189 54.3457C11.0283 54.3776 11.1217 54.4323 11.1992 54.5098C11.2767 54.5827 11.3382 54.6807 11.3838 54.8037C11.4294 54.9222 11.4521 55.068 11.4521 55.2412C11.4521 55.4098 11.4294 55.5557 11.3838 55.6787C11.3382 55.7972 11.2767 55.8952 11.1992 55.9727C11.1217 56.0501 11.0283 56.1071 10.9189 56.1436C10.8141 56.18 10.7025 56.1982 10.584 56.1982C10.4609 56.1982 10.347 56.18 10.2422 56.1436C10.1374 56.1071 10.0462 56.0501 9.96875 55.9727C9.89128 55.8952 9.82975 55.7972 9.78418 55.6787C9.73861 55.5557 9.71582 55.4098 9.71582 55.2412ZM20.6328 56H19.3682V47.1133H16.2441V46.0059H23.7363V47.1133H20.6328V56ZM30.2031 56V51.2012C30.2031 50.5905 30.0664 50.137 29.793 49.8408C29.5241 49.54 29.1003 49.3896 28.5215 49.3896C27.7604 49.3896 27.2021 49.6016 26.8467 50.0254C26.4958 50.4492 26.3203 51.1488 26.3203 52.124V56H25.0898V45.3633H26.3203V48.4805C26.3203 48.8906 26.2975 49.2415 26.252 49.5332H26.334C26.5573 49.1686 26.874 48.8838 27.2842 48.6787C27.6943 48.4736 28.1569 48.3711 28.6719 48.3711C29.5833 48.3711 30.2692 48.5898 30.7295 49.0273C31.1898 49.4603 31.4199 50.1553 31.4199 51.1123V56H30.2031ZM37.2441 48.3574C37.5768 48.3574 37.8708 48.3848 38.126 48.4395L37.9756 49.5742C37.6976 49.5104 37.4264 49.4785 37.1621 49.4785C36.7656 49.4785 36.3965 49.5879 36.0547 49.8066C35.7174 50.0254 35.4531 50.3285 35.2617 50.7158C35.0703 51.0986 34.9746 51.5247 34.9746 51.9941V56H33.7441V48.4941H34.7559L34.8926 49.8682H34.9473C35.2344 49.3714 35.5739 48.9954 35.9658 48.7402C36.3577 48.485 36.7839 48.3574 37.2441 48.3574ZM42.583 56.1367C41.4574 56.1367 40.5732 55.7972 39.9307 55.1182C39.2926 54.4346 38.9736 53.4958 38.9736 52.3018C38.9736 51.0986 39.2721 50.1416 39.8691 49.4307C40.4661 48.7152 41.2728 48.3574 42.2891 48.3574C43.2324 48.3574 43.9844 48.6628 44.5449 49.2734C45.1055 49.8796 45.3857 50.7021 45.3857 51.7412V52.4863H40.2451C40.2679 53.3385 40.4844 53.9857 40.8945 54.4277C41.3047 54.8698 41.8857 55.0908 42.6377 55.0908C43.0387 55.0908 43.4193 55.0566 43.7793 54.9883C44.1393 54.9154 44.5609 54.7764 45.0439 54.5713V55.6514C44.6292 55.8291 44.2396 55.9544 43.875 56.0273C43.5104 56.1003 43.0798 56.1367 42.583 56.1367ZM42.2754 49.3623C41.6875 49.3623 41.2227 49.5514 40.8809 49.9297C40.5391 50.3079 40.3363 50.8343 40.2725 51.5088H44.0938C44.0846 50.807 43.9229 50.2738 43.6084 49.9092C43.2939 49.5446 42.8496 49.3623 42.2754 49.3623ZM52.1807 53.9287C52.1807 54.6305 51.9186 55.1751 51.3945 55.5625C50.8704 55.9453 50.1344 56.1367 49.1865 56.1367C48.1976 56.1367 47.4115 55.9795 46.8281 55.665V54.5439C47.653 54.945 48.4482 55.1455 49.2139 55.1455C49.8337 55.1455 50.2848 55.0452 50.5674 54.8447C50.8499 54.6442 50.9912 54.3753 50.9912 54.0381C50.9912 53.7419 50.8545 53.4912 50.5811 53.2861C50.3122 53.0811 49.8314 52.8464 49.1387 52.582C48.4323 52.3086 47.9355 52.0762 47.6484 51.8848C47.3613 51.6888 47.1494 51.4701 47.0127 51.2285C46.8805 50.987 46.8145 50.693 46.8145 50.3467C46.8145 49.7314 47.0651 49.2461 47.5664 48.8906C48.0677 48.5352 48.7559 48.3574 49.6309 48.3574C50.4831 48.3574 51.2806 48.526 52.0234 48.8633L51.6064 49.8408C50.8454 49.5218 50.1595 49.3623 49.5488 49.3623C49.0384 49.3623 48.651 49.4443 48.3867 49.6084C48.1224 49.7679 47.9902 49.9889 47.9902 50.2715C47.9902 50.5449 48.1042 50.7728 48.332 50.9551C48.5599 51.1328 49.0908 51.3812 49.9248 51.7002C50.5492 51.9326 51.0094 52.1491 51.3057 52.3496C51.6064 52.5501 51.8275 52.7757 51.9688 53.0264C52.11 53.277 52.1807 53.5778 52.1807 53.9287ZM59.1191 56V51.2012C59.1191 50.5905 58.9824 50.137 58.709 49.8408C58.4401 49.54 58.0163 49.3896 57.4375 49.3896C56.6764 49.3896 56.1182 49.6016 55.7627 50.0254C55.4118 50.4492 55.2363 51.1488 55.2363 52.124V56H54.0059V45.3633H55.2363V48.4805C55.2363 48.8906 55.2135 49.2415 55.168 49.5332H55.25C55.4733 49.1686 55.79 48.8838 56.2002 48.6787C56.6104 48.4736 57.0729 48.3711 57.5879 48.3711C58.4993 48.3711 59.1852 48.5898 59.6455 49.0273C60.1058 49.4603 60.3359 50.1553 60.3359 51.1123V56H59.1191ZM69.1816 52.2334C69.1816 53.4593 68.8717 54.4163 68.252 55.1045C67.6322 55.7926 66.7754 56.1367 65.6816 56.1367C65.0026 56.1367 64.401 55.9795 63.877 55.665C63.3529 55.346 62.9495 54.8903 62.667 54.2979C62.3844 53.7054 62.2432 53.0173 62.2432 52.2334C62.2432 51.012 62.5485 50.0618 63.1592 49.3828C63.7699 48.6992 64.6266 48.3574 65.7295 48.3574C66.7868 48.3574 67.6253 48.7061 68.2451 49.4033C68.8695 50.096 69.1816 51.0394 69.1816 52.2334ZM63.5146 52.2334C63.5146 53.1768 63.6992 53.8945 64.0684 54.3867C64.4421 54.8743 64.9912 55.1182 65.7158 55.1182C66.4313 55.1182 66.9759 54.8743 67.3496 54.3867C67.7233 53.8945 67.9102 53.1768 67.9102 52.2334C67.9102 51.29 67.721 50.5814 67.3428 50.1074C66.9691 49.6289 66.4199 49.3896 65.6953 49.3896C64.2415 49.3896 63.5146 50.3376 63.5146 52.2334ZM72.3672 56H71.1367V45.3633H72.3672V56ZM77.4053 56.1367C76.43 56.1367 75.6735 55.7995 75.1357 55.125C74.598 54.4505 74.3291 53.4958 74.3291 52.2607C74.3291 51.0348 74.598 50.0778 75.1357 49.3896C75.6781 48.7015 76.4391 48.3574 77.4189 48.3574C78.4261 48.3574 79.2008 48.7266 79.7432 49.4648H79.832C79.8184 49.3737 79.8001 49.1914 79.7773 48.918C79.7546 48.64 79.7432 48.4531 79.7432 48.3574V45.3633H80.9736V56H79.9824L79.7979 54.9951H79.7432C79.2191 55.7562 78.4398 56.1367 77.4053 56.1367ZM77.6035 55.1182C78.3509 55.1182 78.8955 54.9154 79.2373 54.5098C79.5837 54.0996 79.7568 53.4297 79.7568 52.5V52.2744C79.7568 51.2308 79.5814 50.488 79.2305 50.0459C78.8841 49.5993 78.3372 49.376 77.5898 49.376C76.9564 49.376 76.4665 49.6289 76.1201 50.1348C75.7738 50.6361 75.6006 51.3538 75.6006 52.2881C75.6006 53.2178 75.7715 53.9219 76.1133 54.4004C76.4596 54.8789 76.9564 55.1182 77.6035 55.1182ZM83.3662 55.2412C83.3662 55.068 83.389 54.9222 83.4346 54.8037C83.4801 54.6807 83.5417 54.5827 83.6191 54.5098C83.6966 54.4323 83.7878 54.3776 83.8926 54.3457C83.9974 54.3092 84.1113 54.291 84.2344 54.291C84.3529 54.291 84.4645 54.3092 84.5693 54.3457C84.6787 54.3776 84.7721 54.4323 84.8496 54.5098C84.9271 54.5827 84.9886 54.6807 85.0342 54.8037C85.0798 54.9222 85.1025 55.068 85.1025 55.2412C85.1025 55.4098 85.0798 55.5557 85.0342 55.6787C84.9886 55.7972 84.9271 55.8952 84.8496 55.9727C84.7721 56.0501 84.6787 56.1071 84.5693 56.1436C84.4645 56.18 84.3529 56.1982 84.2344 56.1982C84.1113 56.1982 83.9974 56.18 83.8926 56.1436C83.7878 56.1071 83.6966 56.0501 83.6191 55.9727C83.5417 55.8952 83.4801 55.7972 83.4346 55.6787C83.389 55.5557 83.3662 55.4098 83.3662 55.2412ZM83.3662 49.2529C83.3662 49.0752 83.389 48.9271 83.4346 48.8086C83.4801 48.6855 83.5417 48.5876 83.6191 48.5146C83.6966 48.4372 83.7878 48.3825 83.8926 48.3506C83.9974 48.3187 84.1113 48.3027 84.2344 48.3027C84.3529 48.3027 84.4645 48.3187 84.5693 48.3506C84.6787 48.3825 84.7721 48.4372 84.8496 48.5146C84.9271 48.5876 84.9886 48.6855 85.0342 48.8086C85.0798 48.9271 85.1025 49.0752 85.1025 49.2529C85.1025 49.4215 85.0798 49.5651 85.0342 49.6836C84.9886 49.8021 84.9271 49.9001 84.8496 49.9775C84.7721 50.055 84.6787 50.112 84.5693 50.1484C84.4645 50.1849 84.3529 50.2031 84.2344 50.2031C84.1113 50.2031 83.9974 50.1849 83.8926 50.1484C83.7878 50.112 83.6966 50.055 83.6191 49.9775C83.5417 49.9001 83.4801 49.8021 83.4346 49.6836C83.389 49.5651 83.3662 49.4215 83.3662 49.2529ZM96.9902 50.9893C96.9902 51.7959 96.931 52.5182 96.8125 53.1562C96.6986 53.7943 96.5117 54.3343 96.252 54.7764C95.9967 55.2184 95.6663 55.5557 95.2607 55.7881C94.8551 56.0205 94.363 56.1367 93.7842 56.1367C93.2464 56.1367 92.777 56.0205 92.376 55.7881C91.9795 55.5557 91.6491 55.2184 91.3848 54.7764C91.125 54.3343 90.929 53.7943 90.7969 53.1562C90.6693 52.5182 90.6055 51.7959 90.6055 50.9893C90.6055 50.1826 90.6624 49.4603 90.7764 48.8223C90.8949 48.1842 91.0794 47.6465 91.3301 47.209C91.5853 46.7669 91.9134 46.4297 92.3145 46.1973C92.7201 45.9648 93.21 45.8486 93.7842 45.8486C94.3265 45.8486 94.7982 45.9648 95.1992 46.1973C95.6003 46.4251 95.9329 46.7601 96.1973 47.2021C96.4616 47.6396 96.6598 48.1774 96.792 48.8154C96.9242 49.4535 96.9902 50.1781 96.9902 50.9893ZM91.8701 50.9893C91.8701 51.6729 91.9043 52.2699 91.9727 52.7803C92.041 53.2907 92.1504 53.7168 92.3008 54.0586C92.4512 54.3958 92.6471 54.651 92.8887 54.8242C93.1348 54.9928 93.4333 55.0771 93.7842 55.0771C94.1351 55.0771 94.4336 54.9928 94.6797 54.8242C94.9258 54.6556 95.1263 54.4027 95.2812 54.0654C95.4408 53.7282 95.5547 53.3044 95.623 52.7939C95.696 52.279 95.7324 51.6774 95.7324 50.9893C95.7324 50.3057 95.696 49.7087 95.623 49.1982C95.5547 48.6878 95.4408 48.264 95.2812 47.9268C95.1263 47.5895 94.9258 47.3366 94.6797 47.168C94.4336 46.9993 94.1351 46.915 93.7842 46.915C93.4333 46.915 93.1348 46.9993 92.8887 47.168C92.6471 47.3366 92.4512 47.5895 92.3008 47.9268C92.1504 48.264 92.041 48.6878 91.9727 49.1982C91.9043 49.7087 91.8701 50.3057 91.8701 50.9893ZM98.6514 55.2412C98.6514 55.068 98.6742 54.9222 98.7197 54.8037C98.7653 54.6807 98.8268 54.5827 98.9043 54.5098C98.9818 54.4323 99.0729 54.3776 99.1777 54.3457C99.2826 54.3092 99.3965 54.291 99.5195 54.291C99.638 54.291 99.7497 54.3092 99.8545 54.3457C99.9639 54.3776 100.057 54.4323 100.135 54.5098C100.212 54.5827 100.274 54.6807 100.319 54.8037C100.365 54.9222 100.388 55.068 100.388 55.2412C100.388 55.4098 100.365 55.5557 100.319 55.6787C100.274 55.7972 100.212 55.8952 100.135 55.9727C100.057 56.0501 99.9639 56.1071 99.8545 56.1436C99.7497 56.18 99.638 56.1982 99.5195 56.1982C99.3965 56.1982 99.2826 56.18 99.1777 56.1436C99.0729 56.1071 98.9818 56.0501 98.9043 55.9727C98.8268 55.8952 98.7653 55.7972 98.7197 55.6787C98.6742 55.5557 98.6514 55.4098 98.6514 55.2412ZM105.132 49.8682C105.583 49.8682 106.002 49.932 106.39 50.0596C106.782 50.1826 107.121 50.3672 107.408 50.6133C107.7 50.8594 107.928 51.1647 108.092 51.5293C108.256 51.8939 108.338 52.3154 108.338 52.7939C108.338 53.3135 108.26 53.7806 108.105 54.1953C107.951 54.61 107.72 54.9609 107.415 55.248C107.11 55.5352 106.731 55.7562 106.28 55.9111C105.834 56.0615 105.319 56.1367 104.735 56.1367C104.503 56.1367 104.273 56.1253 104.045 56.1025C103.822 56.0798 103.605 56.0456 103.396 56C103.19 55.959 102.994 55.9043 102.808 55.8359C102.621 55.7676 102.452 55.6878 102.302 55.5967V54.4209C102.452 54.5257 102.628 54.6191 102.828 54.7012C103.033 54.7832 103.247 54.8516 103.471 54.9062C103.694 54.9609 103.917 55.0042 104.141 55.0361C104.368 55.0635 104.578 55.0771 104.77 55.0771C105.13 55.0771 105.451 55.0361 105.733 54.9541C106.016 54.8675 106.255 54.7354 106.451 54.5576C106.647 54.3799 106.798 54.1566 106.902 53.8877C107.007 53.6188 107.06 53.2998 107.06 52.9307C107.06 52.279 106.859 51.7822 106.458 51.4404C106.057 51.0941 105.474 50.9209 104.708 50.9209C104.585 50.9209 104.451 50.9277 104.305 50.9414C104.163 50.9505 104.02 50.9642 103.874 50.9824C103.733 51.0007 103.596 51.0212 103.464 51.0439C103.336 51.0622 103.225 51.0804 103.129 51.0986L102.514 50.709L102.89 46.0059H107.606V47.1406H103.97L103.703 50.0049C103.849 49.9775 104.04 49.9479 104.277 49.916C104.519 49.8841 104.804 49.8682 105.132 49.8682Z" fill="black"/>
<path d="M140.365 48.9072C140.365 50.557 139.914 51.8193 139.012 52.6943C138.114 53.5648 136.824 54 135.143 54H132.36V44.0059H135.437C136.991 44.0059 138.201 44.4342 139.066 45.291C139.932 46.1432 140.365 47.3486 140.365 48.9072ZM139.039 48.9482C139.039 47.6768 138.725 46.7152 138.096 46.0635C137.471 45.4072 136.526 45.0791 135.259 45.0791H133.618V52.9199H134.979C137.686 52.9199 139.039 51.596 139.039 48.9482ZM147.051 54L146.812 52.9336H146.757C146.383 53.403 146.009 53.722 145.636 53.8906C145.267 54.0547 144.799 54.1367 144.234 54.1367C143.496 54.1367 142.917 53.943 142.498 53.5557C142.079 53.1683 141.869 52.6214 141.869 51.915C141.869 50.3929 143.07 49.5954 145.472 49.5225L146.743 49.4746V49.0303C146.743 48.4606 146.62 48.0413 146.374 47.7725C146.128 47.499 145.734 47.3623 145.191 47.3623C144.795 47.3623 144.419 47.4215 144.063 47.54C143.713 47.6585 143.382 47.7907 143.072 47.9365L142.696 47.0137C143.075 46.8132 143.487 46.6559 143.934 46.542C144.38 46.4281 144.822 46.3711 145.26 46.3711C146.167 46.3711 146.841 46.5716 147.283 46.9727C147.725 47.3737 147.946 48.0117 147.946 48.8867V54H147.051ZM144.515 53.1455C145.203 53.1455 145.743 52.9609 146.135 52.5918C146.531 52.2181 146.729 51.6895 146.729 51.0059V50.3291L145.622 50.377C144.761 50.4089 144.132 50.5456 143.735 50.7871C143.343 51.0286 143.147 51.4092 143.147 51.9287C143.147 52.3206 143.266 52.6214 143.503 52.8311C143.744 53.0407 144.082 53.1455 144.515 53.1455ZM159.827 54V49.167C159.827 47.9821 159.319 47.3896 158.303 47.3896C157.605 47.3896 157.093 47.5924 156.765 47.998C156.437 48.4036 156.272 49.0234 156.272 49.8574V54H155.049V49.167C155.049 48.5745 154.924 48.1302 154.673 47.834C154.427 47.5378 154.039 47.3896 153.511 47.3896C152.818 47.3896 152.31 47.6016 151.986 48.0254C151.667 48.4492 151.508 49.1442 151.508 50.1104V54H150.277V46.4941H151.269L151.453 47.5195H151.521C151.736 47.1549 152.036 46.8701 152.424 46.665C152.816 46.46 153.253 46.3574 153.736 46.3574C154.912 46.3574 155.678 46.7767 156.033 47.6152H156.102C156.343 47.2142 156.671 46.9043 157.086 46.6855C157.505 46.4668 157.979 46.3574 158.508 46.3574C159.355 46.3574 159.989 46.5762 160.408 47.0137C160.832 47.4512 161.044 48.1507 161.044 49.1123V54H159.827ZM168.01 54L167.771 52.9336H167.716C167.342 53.403 166.968 53.722 166.595 53.8906C166.226 54.0547 165.758 54.1367 165.193 54.1367C164.455 54.1367 163.876 53.943 163.457 53.5557C163.038 53.1683 162.828 52.6214 162.828 51.915C162.828 50.3929 164.029 49.5954 166.431 49.5225L167.702 49.4746V49.0303C167.702 48.4606 167.579 48.0413 167.333 47.7725C167.087 47.499 166.693 47.3623 166.15 47.3623C165.754 47.3623 165.378 47.4215 165.022 47.54C164.672 47.6585 164.341 47.7907 164.031 47.9365L163.655 47.0137C164.034 46.8132 164.446 46.6559 164.893 46.542C165.339 46.4281 165.781 46.3711 166.219 46.3711C167.126 46.3711 167.8 46.5716 168.242 46.9727C168.684 47.3737 168.905 48.0117 168.905 48.8867V54H168.01ZM165.474 53.1455C166.162 53.1455 166.702 52.9609 167.094 52.5918C167.49 52.2181 167.688 51.6895 167.688 51.0059V50.3291L166.581 50.377C165.72 50.4089 165.091 50.5456 164.694 50.7871C164.302 51.0286 164.106 51.4092 164.106 51.9287C164.106 52.3206 164.225 52.6214 164.462 52.8311C164.703 53.0407 165.041 53.1455 165.474 53.1455ZM174.094 53.1318C174.85 53.1318 175.399 52.929 175.741 52.5234C176.088 52.1133 176.261 51.457 176.261 50.5547V50.2607C176.261 49.2581 176.088 48.529 175.741 48.0732C175.395 47.6175 174.837 47.3896 174.066 47.3896C173.438 47.3896 172.95 47.6403 172.604 48.1416C172.262 48.6383 172.091 49.3493 172.091 50.2744C172.091 51.2041 172.257 51.9128 172.59 52.4004C172.927 52.888 173.428 53.1318 174.094 53.1318ZM176.247 53.9316L176.288 53.0088H176.233C175.728 53.7607 174.953 54.1367 173.909 54.1367C172.938 54.1367 172.18 53.7995 171.633 53.125C171.09 52.446 170.819 51.4912 170.819 50.2607C170.819 49.0531 171.093 48.1006 171.64 47.4033C172.191 46.7061 172.943 46.3574 173.896 46.3574C174.912 46.3574 175.696 46.7357 176.247 47.4922H176.322L176.486 46.4941H177.464V54.123C177.464 55.1986 177.19 56.0075 176.644 56.5498C176.101 57.0921 175.256 57.3633 174.107 57.3633C173.014 57.3633 172.114 57.2038 171.407 56.8848V55.75C172.136 56.1419 173.059 56.3379 174.176 56.3379C174.814 56.3379 175.317 56.151 175.687 55.7773C176.06 55.4036 176.247 54.8864 176.247 54.2256V53.9316ZM181.08 54H179.85V46.4941H181.08V54ZM179.754 44.4639C179.754 44.1904 179.822 43.9922 179.959 43.8691C180.1 43.7461 180.273 43.6846 180.479 43.6846C180.67 43.6846 180.836 43.7461 180.978 43.8691C181.123 43.9922 181.196 44.1904 181.196 44.4639C181.196 44.7327 181.123 44.931 180.978 45.0586C180.836 45.1862 180.67 45.25 180.479 45.25C180.273 45.25 180.1 45.1862 179.959 45.0586C179.822 44.931 179.754 44.7327 179.754 44.4639ZM188.572 54V49.2012C188.572 48.5905 188.436 48.137 188.162 47.8408C187.893 47.54 187.469 47.3896 186.891 47.3896C186.12 47.3896 185.56 47.6038 185.209 48.0322C184.863 48.4561 184.689 49.1488 184.689 50.1104V54H183.459V46.4941H184.45L184.635 47.5195H184.703C184.936 47.1504 185.261 46.8656 185.681 46.665C186.1 46.46 186.562 46.3574 187.068 46.3574C187.989 46.3574 188.673 46.5807 189.119 47.0273C189.566 47.474 189.789 48.1689 189.789 49.1123V54H188.572ZM194.971 53.1318C195.727 53.1318 196.276 52.929 196.618 52.5234C196.965 52.1133 197.138 51.457 197.138 50.5547V50.2607C197.138 49.2581 196.965 48.529 196.618 48.0732C196.272 47.6175 195.714 47.3896 194.943 47.3896C194.314 47.3896 193.827 47.6403 193.48 48.1416C193.139 48.6383 192.968 49.3493 192.968 50.2744C192.968 51.2041 193.134 51.9128 193.467 52.4004C193.804 52.888 194.305 53.1318 194.971 53.1318ZM197.124 53.9316L197.165 53.0088H197.11C196.604 53.7607 195.83 54.1367 194.786 54.1367C193.815 54.1367 193.057 53.7995 192.51 53.125C191.967 52.446 191.696 51.4912 191.696 50.2607C191.696 49.0531 191.97 48.1006 192.517 47.4033C193.068 46.7061 193.82 46.3574 194.772 46.3574C195.789 46.3574 196.573 46.7357 197.124 47.4922H197.199L197.363 46.4941H198.341V54.123C198.341 55.1986 198.067 56.0075 197.521 56.5498C196.978 57.0921 196.133 57.3633 194.984 57.3633C193.891 57.3633 192.991 57.2038 192.284 56.8848V55.75C193.013 56.1419 193.936 56.3379 195.053 56.3379C195.691 56.3379 196.194 56.151 196.563 55.7773C196.937 55.4036 197.124 54.8864 197.124 54.2256V53.9316Z" fill="black"/>
<path d="M377.283 54H375.813L370.461 45.7012H370.406L370.44 46.2549C370.495 47.0843 370.522 47.8044 370.522 48.415V54H369.36V44.0059H370.816L371.124 44.4912L374.405 49.5635L376.148 52.2773H376.203C376.194 52.168 376.176 51.7783 376.148 51.1084C376.121 50.4339 376.107 49.9463 376.107 49.6455V44.0059H377.283V54ZM386.348 50.2334C386.348 51.4593 386.038 52.4163 385.418 53.1045C384.798 53.7926 383.941 54.1367 382.848 54.1367C382.169 54.1367 381.567 53.9795 381.043 53.665C380.519 53.346 380.116 52.8903 379.833 52.2979C379.55 51.7054 379.409 51.0173 379.409 50.2334C379.409 49.012 379.715 48.0618 380.325 47.3828C380.936 46.6992 381.793 46.3574 382.896 46.3574C383.953 46.3574 384.791 46.7061 385.411 47.4033C386.035 48.096 386.348 49.0394 386.348 50.2334ZM380.681 50.2334C380.681 51.1768 380.865 51.8945 381.234 52.3867C381.608 52.8743 382.157 53.1182 382.882 53.1182C383.597 53.1182 384.142 52.8743 384.516 52.3867C384.889 51.8945 385.076 51.1768 385.076 50.2334C385.076 49.29 384.887 48.5814 384.509 48.1074C384.135 47.6289 383.586 47.3896 382.861 47.3896C381.408 47.3896 380.681 48.3376 380.681 50.2334ZM393.416 54V49.2012C393.416 48.5905 393.279 48.137 393.006 47.8408C392.737 47.54 392.313 47.3896 391.734 47.3896C390.964 47.3896 390.404 47.6038 390.053 48.0322C389.706 48.4561 389.533 49.1488 389.533 50.1104V54H388.303V46.4941H389.294L389.479 47.5195H389.547C389.779 47.1504 390.105 46.8656 390.524 46.665C390.944 46.46 391.406 46.3574 391.912 46.3574C392.833 46.3574 393.516 46.5807 393.963 47.0273C394.41 47.474 394.633 48.1689 394.633 49.1123V54H393.416ZM396.451 50.418V49.2695H399.842V50.418H396.451ZM408.011 54.1367C407.035 54.1367 406.279 53.7995 405.741 53.125C405.203 52.4505 404.935 51.4958 404.935 50.2607C404.935 49.0348 405.203 48.0778 405.741 47.3896C406.284 46.7015 407.045 46.3574 408.024 46.3574C409.032 46.3574 409.806 46.7266 410.349 47.4648H410.438C410.424 47.3737 410.406 47.1914 410.383 46.918C410.36 46.64 410.349 46.4531 410.349 46.3574V43.3633H411.579V54H410.588L410.403 52.9951H410.349C409.825 53.7562 409.045 54.1367 408.011 54.1367ZM408.209 53.1182C408.956 53.1182 409.501 52.9154 409.843 52.5098C410.189 52.0996 410.362 51.4297 410.362 50.5V50.2744C410.362 49.2308 410.187 48.488 409.836 48.0459C409.49 47.5993 408.943 47.376 408.195 47.376C407.562 47.376 407.072 47.6289 406.726 48.1348C406.379 48.6361 406.206 49.3538 406.206 50.2881C406.206 51.2178 406.377 51.9219 406.719 52.4004C407.065 52.8789 407.562 53.1182 408.209 53.1182ZM418.6 54L418.36 52.9336H418.306C417.932 53.403 417.558 53.722 417.185 53.8906C416.815 54.0547 416.348 54.1367 415.783 54.1367C415.045 54.1367 414.466 53.943 414.047 53.5557C413.628 53.1683 413.418 52.6214 413.418 51.915C413.418 50.3929 414.619 49.5954 417.021 49.5225L418.292 49.4746V49.0303C418.292 48.4606 418.169 48.0413 417.923 47.7725C417.677 47.499 417.283 47.3623 416.74 47.3623C416.344 47.3623 415.968 47.4215 415.612 47.54C415.261 47.6585 414.931 47.7907 414.621 47.9365L414.245 47.0137C414.623 46.8132 415.036 46.6559 415.482 46.542C415.929 46.4281 416.371 46.3711 416.809 46.3711C417.715 46.3711 418.39 46.5716 418.832 46.9727C419.274 47.3737 419.495 48.0117 419.495 48.8867V54H418.6ZM416.063 53.1455C416.752 53.1455 417.292 52.9609 417.684 52.5918C418.08 52.2181 418.278 51.6895 418.278 51.0059V50.3291L417.171 50.377C416.31 50.4089 415.681 50.5456 415.284 50.7871C414.892 51.0286 414.696 51.4092 414.696 51.9287C414.696 52.3206 414.815 52.6214 415.052 52.8311C415.293 53.0407 415.631 53.1455 416.063 53.1455ZM431.376 54V49.167C431.376 47.9821 430.868 47.3896 429.852 47.3896C429.154 47.3896 428.642 47.5924 428.313 47.998C427.985 48.4036 427.821 49.0234 427.821 49.8574V54H426.598V49.167C426.598 48.5745 426.472 48.1302 426.222 47.834C425.976 47.5378 425.588 47.3896 425.06 47.3896C424.367 47.3896 423.859 47.6016 423.535 48.0254C423.216 48.4492 423.057 49.1442 423.057 50.1104V54H421.826V46.4941H422.817L423.002 47.5195H423.07C423.285 47.1549 423.585 46.8701 423.973 46.665C424.365 46.46 424.802 46.3574 425.285 46.3574C426.461 46.3574 427.227 46.7767 427.582 47.6152H427.65C427.892 47.2142 428.22 46.9043 428.635 46.6855C429.054 46.4668 429.528 46.3574 430.057 46.3574C430.904 46.3574 431.538 46.5762 431.957 47.0137C432.381 47.4512 432.593 48.1507 432.593 49.1123V54H431.376ZM439.559 54L439.319 52.9336H439.265C438.891 53.403 438.517 53.722 438.144 53.8906C437.774 54.0547 437.307 54.1367 436.742 54.1367C436.004 54.1367 435.425 53.943 435.006 53.5557C434.587 53.1683 434.377 52.6214 434.377 51.915C434.377 50.3929 435.578 49.5954 437.979 49.5225L439.251 49.4746V49.0303C439.251 48.4606 439.128 48.0413 438.882 47.7725C438.636 47.499 438.242 47.3623 437.699 47.3623C437.303 47.3623 436.927 47.4215 436.571 47.54C436.22 47.6585 435.89 47.7907 435.58 47.9365L435.204 47.0137C435.582 46.8132 435.995 46.6559 436.441 46.542C436.888 46.4281 437.33 46.3711 437.768 46.3711C438.674 46.3711 439.349 46.5716 439.791 46.9727C440.233 47.3737 440.454 48.0117 440.454 48.8867V54H439.559ZM437.022 53.1455C437.711 53.1455 438.251 52.9609 438.643 52.5918C439.039 52.2181 439.237 51.6895 439.237 51.0059V50.3291L438.13 50.377C437.269 50.4089 436.64 50.5456 436.243 50.7871C435.851 51.0286 435.655 51.4092 435.655 51.9287C435.655 52.3206 435.774 52.6214 436.011 52.8311C436.252 53.0407 436.59 53.1455 437.022 53.1455ZM445.643 53.1318C446.399 53.1318 446.948 52.929 447.29 52.5234C447.636 52.1133 447.81 51.457 447.81 50.5547V50.2607C447.81 49.2581 447.636 48.529 447.29 48.0732C446.944 47.6175 446.385 47.3896 445.615 47.3896C444.986 47.3896 444.499 47.6403 444.152 48.1416C443.811 48.6383 443.64 49.3493 443.64 50.2744C443.64 51.2041 443.806 51.9128 444.139 52.4004C444.476 52.888 444.977 53.1318 445.643 53.1318ZM447.796 53.9316L447.837 53.0088H447.782C447.276 53.7607 446.502 54.1367 445.458 54.1367C444.487 54.1367 443.729 53.7995 443.182 53.125C442.639 52.446 442.368 51.4912 442.368 50.2607C442.368 49.0531 442.642 48.1006 443.188 47.4033C443.74 46.7061 444.492 46.3574 445.444 46.3574C446.461 46.3574 447.244 46.7357 447.796 47.4922H447.871L448.035 46.4941H449.013V54.123C449.013 55.1986 448.739 56.0075 448.192 56.5498C447.65 57.0921 446.805 57.3633 445.656 57.3633C444.562 57.3633 443.662 57.2038 442.956 56.8848V55.75C443.685 56.1419 444.608 56.3379 445.725 56.3379C446.363 56.3379 446.866 56.151 447.235 55.7773C447.609 55.4036 447.796 54.8864 447.796 54.2256V53.9316ZM452.629 54H451.398V46.4941H452.629V54ZM451.303 44.4639C451.303 44.1904 451.371 43.9922 451.508 43.8691C451.649 43.7461 451.822 43.6846 452.027 43.6846C452.219 43.6846 452.385 43.7461 452.526 43.8691C452.672 43.9922 452.745 44.1904 452.745 44.4639C452.745 44.7327 452.672 44.931 452.526 45.0586C452.385 45.1862 452.219 45.25 452.027 45.25C451.822 45.25 451.649 45.1862 451.508 45.0586C451.371 44.931 451.303 44.7327 451.303 44.4639ZM460.121 54V49.2012C460.121 48.5905 459.984 48.137 459.711 47.8408C459.442 47.54 459.018 47.3896 458.439 47.3896C457.669 47.3896 457.109 47.6038 456.758 48.0322C456.411 48.4561 456.238 49.1488 456.238 50.1104V54H455.008V46.4941H455.999L456.184 47.5195H456.252C456.484 47.1504 456.81 46.8656 457.229 46.665C457.649 46.46 458.111 46.3574 458.617 46.3574C459.538 46.3574 460.221 46.5807 460.668 47.0273C461.115 47.474 461.338 48.1689 461.338 49.1123V54H460.121ZM466.52 53.1318C467.276 53.1318 467.825 52.929 468.167 52.5234C468.513 52.1133 468.687 51.457 468.687 50.5547V50.2607C468.687 49.2581 468.513 48.529 468.167 48.0732C467.821 47.6175 467.262 47.3896 466.492 47.3896C465.863 47.3896 465.376 47.6403 465.029 48.1416C464.688 48.6383 464.517 49.3493 464.517 50.2744C464.517 51.2041 464.683 51.9128 465.016 52.4004C465.353 52.888 465.854 53.1318 466.52 53.1318ZM468.673 53.9316L468.714 53.0088H468.659C468.153 53.7607 467.379 54.1367 466.335 54.1367C465.364 54.1367 464.605 53.7995 464.059 53.125C463.516 52.446 463.245 51.4912 463.245 50.2607C463.245 49.0531 463.519 48.1006 464.065 47.4033C464.617 46.7061 465.369 46.3574 466.321 46.3574C467.338 46.3574 468.121 46.7357 468.673 47.4922H468.748L468.912 46.4941H469.89V54.123C469.89 55.1986 469.616 56.0075 469.069 56.5498C468.527 57.0921 467.682 57.3633 466.533 57.3633C465.439 57.3633 464.539 57.2038 463.833 56.8848V55.75C464.562 56.1419 465.485 56.3379 466.602 56.3379C467.24 56.3379 467.743 56.151 468.112 55.7773C468.486 55.4036 468.673 54.8864 468.673 54.2256V53.9316Z" fill="black"/>
<path d="M247.891 57H241.656V55.9336L244.049 53.3291C244.391 52.96 244.696 52.6227 244.965 52.3174C245.234 52.012 245.462 51.7135 245.648 51.4219C245.84 51.1302 245.986 50.8385 246.086 50.5469C246.186 50.2507 246.236 49.9294 246.236 49.583C246.236 49.3141 246.198 49.0771 246.12 48.8721C246.043 48.667 245.931 48.4938 245.785 48.3525C245.644 48.2067 245.475 48.0973 245.279 48.0244C245.083 47.9515 244.865 47.915 244.623 47.915C244.19 47.915 243.798 48.0039 243.447 48.1816C243.101 48.3548 242.771 48.5781 242.456 48.8516L241.759 48.0381C241.941 47.874 242.137 47.7214 242.347 47.5801C242.556 47.4342 242.782 47.3089 243.023 47.2041C243.265 47.0993 243.52 47.0173 243.789 46.958C244.058 46.8942 244.34 46.8623 244.637 46.8623C245.074 46.8623 245.468 46.9238 245.819 47.0469C246.175 47.1699 246.476 47.3477 246.722 47.5801C246.968 47.8079 247.157 48.0882 247.289 48.4209C247.426 48.749 247.494 49.1204 247.494 49.5352C247.494 49.9225 247.433 50.2917 247.31 50.6426C247.191 50.9935 247.025 51.3398 246.811 51.6816C246.601 52.0189 246.348 52.3584 246.052 52.7002C245.76 53.042 245.443 53.3975 245.102 53.7666L243.181 55.8105V55.8652H247.891V57ZM249.716 56.2412C249.716 56.068 249.739 55.9222 249.784 55.8037C249.83 55.6807 249.891 55.5827 249.969 55.5098C250.046 55.4323 250.137 55.3776 250.242 55.3457C250.347 55.3092 250.461 55.291 250.584 55.291C250.702 55.291 250.814 55.3092 250.919 55.3457C251.028 55.3776 251.122 55.4323 251.199 55.5098C251.277 55.5827 251.338 55.6807 251.384 55.8037C251.429 55.9222 251.452 56.068 251.452 56.2412C251.452 56.4098 251.429 56.5557 251.384 56.6787C251.338 56.7972 251.277 56.8952 251.199 56.9727C251.122 57.0501 251.028 57.1071 250.919 57.1436C250.814 57.18 250.702 57.1982 250.584 57.1982C250.461 57.1982 250.347 57.18 250.242 57.1436C250.137 57.1071 250.046 57.0501 249.969 56.9727C249.891 56.8952 249.83 56.7972 249.784 56.6787C249.739 56.5557 249.716 56.4098 249.716 56.2412ZM260.633 57H259.368V48.1133H256.244V47.0059H263.736V48.1133H260.633V57ZM270.203 57V52.2012C270.203 51.5905 270.066 51.137 269.793 50.8408C269.524 50.54 269.1 50.3896 268.521 50.3896C267.76 50.3896 267.202 50.6016 266.847 51.0254C266.496 51.4492 266.32 52.1488 266.32 53.124V57H265.09V46.3633H266.32V49.4805C266.32 49.8906 266.298 50.2415 266.252 50.5332H266.334C266.557 50.1686 266.874 49.8838 267.284 49.6787C267.694 49.4736 268.157 49.3711 268.672 49.3711C269.583 49.3711 270.269 49.5898 270.729 50.0273C271.19 50.4603 271.42 51.1553 271.42 52.1123V57H270.203ZM277.244 49.3574C277.577 49.3574 277.871 49.3848 278.126 49.4395L277.976 50.5742C277.698 50.5104 277.426 50.4785 277.162 50.4785C276.766 50.4785 276.396 50.5879 276.055 50.8066C275.717 51.0254 275.453 51.3285 275.262 51.7158C275.07 52.0986 274.975 52.5247 274.975 52.9941V57H273.744V49.4941H274.756L274.893 50.8682H274.947C275.234 50.3714 275.574 49.9954 275.966 49.7402C276.358 49.485 276.784 49.3574 277.244 49.3574ZM282.583 57.1367C281.457 57.1367 280.573 56.7972 279.931 56.1182C279.293 55.4346 278.974 54.4958 278.974 53.3018C278.974 52.0986 279.272 51.1416 279.869 50.4307C280.466 49.7152 281.273 49.3574 282.289 49.3574C283.232 49.3574 283.984 49.6628 284.545 50.2734C285.105 50.8796 285.386 51.7021 285.386 52.7412V53.4863H280.245C280.268 54.3385 280.484 54.9857 280.895 55.4277C281.305 55.8698 281.886 56.0908 282.638 56.0908C283.039 56.0908 283.419 56.0566 283.779 55.9883C284.139 55.9154 284.561 55.7764 285.044 55.5713V56.6514C284.629 56.8291 284.24 56.9544 283.875 57.0273C283.51 57.1003 283.08 57.1367 282.583 57.1367ZM282.275 50.3623C281.688 50.3623 281.223 50.5514 280.881 50.9297C280.539 51.3079 280.336 51.8343 280.272 52.5088H284.094C284.085 51.807 283.923 51.2738 283.608 50.9092C283.294 50.5446 282.85 50.3623 282.275 50.3623ZM292.181 54.9287C292.181 55.6305 291.919 56.1751 291.395 56.5625C290.87 56.9453 290.134 57.1367 289.187 57.1367C288.198 57.1367 287.411 56.9795 286.828 56.665V55.5439C287.653 55.945 288.448 56.1455 289.214 56.1455C289.834 56.1455 290.285 56.0452 290.567 55.8447C290.85 55.6442 290.991 55.3753 290.991 55.0381C290.991 54.7419 290.854 54.4912 290.581 54.2861C290.312 54.0811 289.831 53.8464 289.139 53.582C288.432 53.3086 287.936 53.0762 287.648 52.8848C287.361 52.6888 287.149 52.4701 287.013 52.2285C286.881 51.987 286.814 51.693 286.814 51.3467C286.814 50.7314 287.065 50.2461 287.566 49.8906C288.068 49.5352 288.756 49.3574 289.631 49.3574C290.483 49.3574 291.281 49.526 292.023 49.8633L291.606 50.8408C290.845 50.5218 290.16 50.3623 289.549 50.3623C289.038 50.3623 288.651 50.4443 288.387 50.6084C288.122 50.7679 287.99 50.9889 287.99 51.2715C287.99 51.5449 288.104 51.7728 288.332 51.9551C288.56 52.1328 289.091 52.3812 289.925 52.7002C290.549 52.9326 291.009 53.1491 291.306 53.3496C291.606 53.5501 291.827 53.7757 291.969 54.0264C292.11 54.277 292.181 54.5778 292.181 54.9287ZM299.119 57V52.2012C299.119 51.5905 298.982 51.137 298.709 50.8408C298.44 50.54 298.016 50.3896 297.438 50.3896C296.676 50.3896 296.118 50.6016 295.763 51.0254C295.412 51.4492 295.236 52.1488 295.236 53.124V57H294.006V46.3633H295.236V49.4805C295.236 49.8906 295.214 50.2415 295.168 50.5332H295.25C295.473 50.1686 295.79 49.8838 296.2 49.6787C296.61 49.4736 297.073 49.3711 297.588 49.3711C298.499 49.3711 299.185 49.5898 299.646 50.0273C300.106 50.4603 300.336 51.1553 300.336 52.1123V57H299.119ZM309.182 53.2334C309.182 54.4593 308.872 55.4163 308.252 56.1045C307.632 56.7926 306.775 57.1367 305.682 57.1367C305.003 57.1367 304.401 56.9795 303.877 56.665C303.353 56.346 302.95 55.8903 302.667 55.2979C302.384 54.7054 302.243 54.0173 302.243 53.2334C302.243 52.012 302.549 51.0618 303.159 50.3828C303.77 49.6992 304.627 49.3574 305.729 49.3574C306.787 49.3574 307.625 49.7061 308.245 50.4033C308.869 51.096 309.182 52.0394 309.182 53.2334ZM303.515 53.2334C303.515 54.1768 303.699 54.8945 304.068 55.3867C304.442 55.8743 304.991 56.1182 305.716 56.1182C306.431 56.1182 306.976 55.8743 307.35 55.3867C307.723 54.8945 307.91 54.1768 307.91 53.2334C307.91 52.29 307.721 51.5814 307.343 51.1074C306.969 50.6289 306.42 50.3896 305.695 50.3896C304.242 50.3896 303.515 51.3376 303.515 53.2334ZM312.367 57H311.137V46.3633H312.367V57ZM317.405 57.1367C316.43 57.1367 315.674 56.7995 315.136 56.125C314.598 55.4505 314.329 54.4958 314.329 53.2607C314.329 52.0348 314.598 51.0778 315.136 50.3896C315.678 49.7015 316.439 49.3574 317.419 49.3574C318.426 49.3574 319.201 49.7266 319.743 50.4648H319.832C319.818 50.3737 319.8 50.1914 319.777 49.918C319.755 49.64 319.743 49.4531 319.743 49.3574V46.3633H320.974V57H319.982L319.798 55.9951H319.743C319.219 56.7562 318.44 57.1367 317.405 57.1367ZM317.604 56.1182C318.351 56.1182 318.896 55.9154 319.237 55.5098C319.584 55.0996 319.757 54.4297 319.757 53.5V53.2744C319.757 52.2308 319.581 51.488 319.23 51.0459C318.884 50.5993 318.337 50.376 317.59 50.376C316.956 50.376 316.466 50.6289 316.12 51.1348C315.774 51.6361 315.601 52.3538 315.601 53.2881C315.601 54.2178 315.771 54.9219 316.113 55.4004C316.46 55.8789 316.956 56.1182 317.604 56.1182ZM323.366 56.2412C323.366 56.068 323.389 55.9222 323.435 55.8037C323.48 55.6807 323.542 55.5827 323.619 55.5098C323.697 55.4323 323.788 55.3776 323.893 55.3457C323.997 55.3092 324.111 55.291 324.234 55.291C324.353 55.291 324.465 55.3092 324.569 55.3457C324.679 55.3776 324.772 55.4323 324.85 55.5098C324.927 55.5827 324.989 55.6807 325.034 55.8037C325.08 55.9222 325.103 56.068 325.103 56.2412C325.103 56.4098 325.08 56.5557 325.034 56.6787C324.989 56.7972 324.927 56.8952 324.85 56.9727C324.772 57.0501 324.679 57.1071 324.569 57.1436C324.465 57.18 324.353 57.1982 324.234 57.1982C324.111 57.1982 323.997 57.18 323.893 57.1436C323.788 57.1071 323.697 57.0501 323.619 56.9727C323.542 56.8952 323.48 56.7972 323.435 56.6787C323.389 56.5557 323.366 56.4098 323.366 56.2412ZM323.366 50.2529C323.366 50.0752 323.389 49.9271 323.435 49.8086C323.48 49.6855 323.542 49.5876 323.619 49.5146C323.697 49.4372 323.788 49.3825 323.893 49.3506C323.997 49.3187 324.111 49.3027 324.234 49.3027C324.353 49.3027 324.465 49.3187 324.569 49.3506C324.679 49.3825 324.772 49.4372 324.85 49.5146C324.927 49.5876 324.989 49.6855 325.034 49.8086C325.08 49.9271 325.103 50.0752 325.103 50.2529C325.103 50.4215 325.08 50.5651 325.034 50.6836C324.989 50.8021 324.927 50.9001 324.85 50.9775C324.772 51.055 324.679 51.112 324.569 51.1484C324.465 51.1849 324.353 51.2031 324.234 51.2031C324.111 51.2031 323.997 51.1849 323.893 51.1484C323.788 51.112 323.697 51.055 323.619 50.9775C323.542 50.9001 323.48 50.8021 323.435 50.6836C323.389 50.5651 323.366 50.4215 323.366 50.2529ZM336.99 51.9893C336.99 52.7959 336.931 53.5182 336.812 54.1562C336.699 54.7943 336.512 55.3343 336.252 55.7764C335.997 56.2184 335.666 56.5557 335.261 56.7881C334.855 57.0205 334.363 57.1367 333.784 57.1367C333.246 57.1367 332.777 57.0205 332.376 56.7881C331.979 56.5557 331.649 56.2184 331.385 55.7764C331.125 55.3343 330.929 54.7943 330.797 54.1562C330.669 53.5182 330.605 52.7959 330.605 51.9893C330.605 51.1826 330.662 50.4603 330.776 49.8223C330.895 49.1842 331.079 48.6465 331.33 48.209C331.585 47.7669 331.913 47.4297 332.314 47.1973C332.72 46.9648 333.21 46.8486 333.784 46.8486C334.326 46.8486 334.798 46.9648 335.199 47.1973C335.6 47.4251 335.933 47.7601 336.197 48.2021C336.462 48.6396 336.66 49.1774 336.792 49.8154C336.924 50.4535 336.99 51.1781 336.99 51.9893ZM331.87 51.9893C331.87 52.6729 331.904 53.2699 331.973 53.7803C332.041 54.2907 332.15 54.7168 332.301 55.0586C332.451 55.3958 332.647 55.651 332.889 55.8242C333.135 55.9928 333.433 56.0771 333.784 56.0771C334.135 56.0771 334.434 55.9928 334.68 55.8242C334.926 55.6556 335.126 55.4027 335.281 55.0654C335.441 54.7282 335.555 54.3044 335.623 53.7939C335.696 53.279 335.732 52.6774 335.732 51.9893C335.732 51.3057 335.696 50.7087 335.623 50.1982C335.555 49.6878 335.441 49.264 335.281 48.9268C335.126 48.5895 334.926 48.3366 334.68 48.168C334.434 47.9993 334.135 47.915 333.784 47.915C333.433 47.915 333.135 47.9993 332.889 48.168C332.647 48.3366 332.451 48.5895 332.301 48.9268C332.15 49.264 332.041 49.6878 331.973 50.1982C331.904 50.7087 331.87 51.3057 331.87 51.9893ZM338.651 56.2412C338.651 56.068 338.674 55.9222 338.72 55.8037C338.765 55.6807 338.827 55.5827 338.904 55.5098C338.982 55.4323 339.073 55.3776 339.178 55.3457C339.283 55.3092 339.396 55.291 339.52 55.291C339.638 55.291 339.75 55.3092 339.854 55.3457C339.964 55.3776 340.057 55.4323 340.135 55.5098C340.212 55.5827 340.274 55.6807 340.319 55.8037C340.365 55.9222 340.388 56.068 340.388 56.2412C340.388 56.4098 340.365 56.5557 340.319 56.6787C340.274 56.7972 340.212 56.8952 340.135 56.9727C340.057 57.0501 339.964 57.1071 339.854 57.1436C339.75 57.18 339.638 57.1982 339.52 57.1982C339.396 57.1982 339.283 57.18 339.178 57.1436C339.073 57.1071 338.982 57.0501 338.904 56.9727C338.827 56.8952 338.765 56.7972 338.72 56.6787C338.674 56.5557 338.651 56.4098 338.651 56.2412ZM348.434 51.2715C348.434 51.75 348.409 52.2285 348.358 52.707C348.313 53.181 348.229 53.6344 348.105 54.0674C347.987 54.5003 347.823 54.9059 347.613 55.2842C347.404 55.6579 347.137 55.9814 346.813 56.2549C346.49 56.5283 346.103 56.7448 345.651 56.9043C345.2 57.0592 344.672 57.1367 344.065 57.1367C343.979 57.1367 343.883 57.1344 343.778 57.1299C343.674 57.1253 343.569 57.1162 343.464 57.1025C343.359 57.0934 343.257 57.082 343.156 57.0684C343.056 57.0547 342.967 57.0365 342.89 57.0137V55.9473C343.049 56.0065 343.229 56.0498 343.43 56.0771C343.63 56.1045 343.828 56.1182 344.024 56.1182C344.64 56.1182 345.146 56.0111 345.542 55.7969C345.938 55.5827 346.253 55.2933 346.485 54.9287C346.718 54.5596 346.882 54.1312 346.978 53.6436C347.078 53.1559 347.139 52.641 347.162 52.0986H347.073C346.982 52.2627 346.873 52.4154 346.745 52.5566C346.618 52.6979 346.467 52.821 346.294 52.9258C346.121 53.0306 345.925 53.1126 345.706 53.1719C345.487 53.2311 345.243 53.2607 344.975 53.2607C344.542 53.2607 344.15 53.1947 343.799 53.0625C343.448 52.9258 343.149 52.7275 342.903 52.4678C342.657 52.208 342.466 51.8913 342.329 51.5176C342.197 51.1393 342.131 50.7087 342.131 50.2256C342.131 49.7061 342.201 49.2389 342.343 48.8242C342.489 48.4049 342.691 48.0518 342.951 47.7646C343.215 47.473 343.535 47.2497 343.908 47.0947C344.286 46.9398 344.708 46.8623 345.173 46.8623C345.633 46.8623 346.062 46.9512 346.458 47.1289C346.854 47.3066 347.199 47.5778 347.49 47.9424C347.782 48.307 348.012 48.7673 348.181 49.3232C348.349 49.8747 348.434 50.5241 348.434 51.2715ZM345.187 47.915C344.913 47.915 344.662 47.9606 344.435 48.0518C344.211 48.1429 344.018 48.2842 343.854 48.4756C343.689 48.667 343.562 48.9085 343.471 49.2002C343.384 49.4873 343.341 49.8291 343.341 50.2256C343.341 50.5446 343.377 50.8317 343.45 51.0869C343.528 51.3376 343.642 51.5518 343.792 51.7295C343.942 51.9072 344.129 52.0439 344.353 52.1396C344.58 52.2354 344.845 52.2832 345.146 52.2832C345.455 52.2832 345.736 52.2308 345.986 52.126C346.237 52.0166 346.451 51.8776 346.629 51.709C346.807 51.5358 346.943 51.3398 347.039 51.1211C347.139 50.9023 347.189 50.6836 347.189 50.4648C347.189 50.1595 347.146 49.8564 347.06 49.5557C346.978 49.2503 346.852 48.9769 346.684 48.7354C346.52 48.4893 346.312 48.291 346.062 48.1406C345.811 47.9902 345.519 47.915 345.187 47.915Z" fill="black"/>
<path d="M138.328 13.9893C138.328 14.7959 138.269 15.5182 138.15 16.1562C138.036 16.7943 137.85 17.3343 137.59 17.7764C137.335 18.2184 137.004 18.5557 136.599 18.7881C136.193 19.0205 135.701 19.1367 135.122 19.1367C134.584 19.1367 134.115 19.0205 133.714 18.7881C133.317 18.5557 132.987 18.2184 132.723 17.7764C132.463 17.3343 132.267 16.7943 132.135 16.1562C132.007 15.5182 131.943 14.7959 131.943 13.9893C131.943 13.1826 132 12.4603 132.114 11.8223C132.233 11.1842 132.417 10.6465 132.668 10.209C132.923 9.76693 133.251 9.42969 133.652 9.19727C134.058 8.96484 134.548 8.84863 135.122 8.84863C135.664 8.84863 136.136 8.96484 136.537 9.19727C136.938 9.42513 137.271 9.76009 137.535 10.2021C137.799 10.6396 137.998 11.1774 138.13 11.8154C138.262 12.4535 138.328 13.1781 138.328 13.9893ZM133.208 13.9893C133.208 14.6729 133.242 15.2699 133.311 15.7803C133.379 16.2907 133.488 16.7168 133.639 17.0586C133.789 17.3958 133.985 17.651 134.227 17.8242C134.473 17.9928 134.771 18.0771 135.122 18.0771C135.473 18.0771 135.771 17.9928 136.018 17.8242C136.264 17.6556 136.464 17.4027 136.619 17.0654C136.779 16.7282 136.893 16.3044 136.961 15.7939C137.034 15.279 137.07 14.6774 137.07 13.9893C137.07 13.3057 137.034 12.7087 136.961 12.1982C136.893 11.6878 136.779 11.264 136.619 10.9268C136.464 10.5895 136.264 10.3366 136.018 10.168C135.771 9.99935 135.473 9.91504 135.122 9.91504C134.771 9.91504 134.473 9.99935 134.227 10.168C133.985 10.3366 133.789 10.5895 133.639 10.9268C133.488 11.264 133.379 11.6878 133.311 12.1982C133.242 12.7087 133.208 13.3057 133.208 13.9893ZM139.989 18.2412C139.989 18.068 140.012 17.9222 140.058 17.8037C140.103 17.6807 140.165 17.5827 140.242 17.5098C140.32 17.4323 140.411 17.3776 140.516 17.3457C140.62 17.3092 140.734 17.291 140.857 17.291C140.976 17.291 141.088 17.3092 141.192 17.3457C141.302 17.3776 141.395 17.4323 141.473 17.5098C141.55 17.5827 141.612 17.6807 141.657 17.8037C141.703 17.9222 141.726 18.068 141.726 18.2412C141.726 18.4098 141.703 18.5557 141.657 18.6787C141.612 18.7972 141.55 18.8952 141.473 18.9727C141.395 19.0501 141.302 19.1071 141.192 19.1436C141.088 19.18 140.976 19.1982 140.857 19.1982C140.734 19.1982 140.62 19.18 140.516 19.1436C140.411 19.1071 140.32 19.0501 140.242 18.9727C140.165 18.8952 140.103 18.7972 140.058 18.6787C140.012 18.5557 139.989 18.4098 139.989 18.2412ZM146.606 8.84863C146.989 8.84863 147.349 8.89876 147.687 8.99902C148.028 9.09928 148.327 9.24967 148.582 9.4502C148.842 9.65072 149.047 9.90137 149.197 10.2021C149.348 10.5029 149.423 10.8538 149.423 11.2549C149.423 11.5602 149.377 11.8359 149.286 12.082C149.195 12.3281 149.07 12.5514 148.91 12.752C148.751 12.9479 148.562 13.1257 148.343 13.2852C148.124 13.4401 147.887 13.5814 147.632 13.709C147.896 13.8503 148.154 14.0075 148.404 14.1807C148.66 14.3538 148.885 14.5498 149.081 14.7686C149.282 14.9827 149.441 15.2243 149.56 15.4932C149.683 15.762 149.744 16.0628 149.744 16.3955C149.744 16.8148 149.667 17.1953 149.512 17.5371C149.361 17.8743 149.147 18.1615 148.869 18.3984C148.596 18.6354 148.265 18.8177 147.878 18.9453C147.495 19.0729 147.071 19.1367 146.606 19.1367C146.105 19.1367 145.659 19.0752 145.267 18.9521C144.879 18.8291 144.551 18.6536 144.282 18.4258C144.018 18.1934 143.815 17.9108 143.674 17.5781C143.537 17.2454 143.469 16.8695 143.469 16.4502C143.469 16.1084 143.519 15.8008 143.619 15.5273C143.724 15.2539 143.863 15.0078 144.036 14.7891C144.209 14.5703 144.414 14.3766 144.651 14.208C144.888 14.0394 145.139 13.8913 145.403 13.7637C145.18 13.6224 144.97 13.4697 144.774 13.3057C144.578 13.137 144.408 12.9502 144.262 12.7451C144.12 12.54 144.007 12.3145 143.92 12.0684C143.838 11.8177 143.797 11.542 143.797 11.2412C143.797 10.8447 143.872 10.4984 144.022 10.2021C144.177 9.90137 144.385 9.65072 144.645 9.4502C144.904 9.24967 145.203 9.09928 145.54 8.99902C145.882 8.89876 146.237 8.84863 146.606 8.84863ZM144.692 16.4639C144.692 16.7054 144.729 16.9287 144.802 17.1338C144.875 17.3343 144.989 17.5075 145.144 17.6533C145.299 17.7946 145.494 17.9062 145.731 17.9883C145.968 18.0658 146.251 18.1045 146.579 18.1045C146.898 18.1045 147.178 18.0658 147.42 17.9883C147.666 17.9062 147.871 17.7923 148.035 17.6465C148.199 17.4961 148.322 17.3161 148.404 17.1064C148.486 16.8968 148.527 16.6644 148.527 16.4092C148.527 16.1722 148.482 15.958 148.391 15.7666C148.304 15.5752 148.176 15.3975 148.008 15.2334C147.844 15.0693 147.646 14.9144 147.413 14.7686C147.181 14.6227 146.921 14.4792 146.634 14.3379L146.429 14.2422C145.854 14.5156 145.422 14.8301 145.13 15.1855C144.838 15.5365 144.692 15.9626 144.692 16.4639ZM146.593 9.8877C146.11 9.8877 145.725 10.0085 145.438 10.25C145.155 10.4915 145.014 10.8424 145.014 11.3027C145.014 11.5625 145.052 11.7858 145.13 11.9727C145.212 12.1595 145.324 12.3258 145.465 12.4717C145.606 12.6175 145.775 12.7497 145.971 12.8682C146.171 12.9821 146.388 13.0938 146.62 13.2031C146.839 13.1029 147.044 12.9935 147.235 12.875C147.431 12.7565 147.6 12.6221 147.741 12.4717C147.887 12.3213 148.001 12.1504 148.083 11.959C148.165 11.7676 148.206 11.5488 148.206 11.3027C148.206 10.8424 148.062 10.4915 147.775 10.25C147.488 10.0085 147.094 9.8877 146.593 9.8877ZM152.376 19L156.225 10.1406H151.07V9.00586H157.496V9.99707L153.702 19H152.376ZM163.026 19H161.823V12.7588C161.823 12.5628 161.823 12.3532 161.823 12.1299C161.828 11.9066 161.832 11.6855 161.837 11.4668C161.846 11.2435 161.853 11.0316 161.857 10.8311C161.867 10.626 161.873 10.446 161.878 10.291C161.8 10.373 161.732 10.4437 161.673 10.5029C161.614 10.5622 161.552 10.6191 161.488 10.6738C161.429 10.7285 161.365 10.7878 161.297 10.8516C161.229 10.9108 161.146 10.9814 161.051 11.0635L160.039 11.8906L159.383 11.0498L162.001 9.00586H163.026V19ZM173.308 16.7578H171.852V19H170.648V16.7578H166.034V15.6709L170.566 8.95117H171.852V15.623H173.308V16.7578ZM170.648 15.623V13.1895C170.648 12.9342 170.651 12.6676 170.655 12.3896C170.664 12.1071 170.674 11.8337 170.683 11.5693C170.692 11.3005 170.701 11.0498 170.71 10.8174C170.724 10.585 170.733 10.3913 170.737 10.2363H170.676C170.644 10.3275 170.603 10.43 170.553 10.5439C170.507 10.6533 170.455 10.765 170.396 10.8789C170.341 10.9883 170.284 11.0954 170.225 11.2002C170.165 11.305 170.111 11.3939 170.061 11.4668L167.251 15.623H170.648ZM180.479 19H174.244V17.9336L176.637 15.3291C176.979 14.96 177.284 14.6227 177.553 14.3174C177.822 14.012 178.049 13.7135 178.236 13.4219C178.428 13.1302 178.574 12.8385 178.674 12.5469C178.774 12.2507 178.824 11.9294 178.824 11.583C178.824 11.3141 178.785 11.0771 178.708 10.8721C178.631 10.667 178.519 10.4938 178.373 10.3525C178.232 10.2067 178.063 10.0973 177.867 10.0244C177.671 9.9515 177.452 9.91504 177.211 9.91504C176.778 9.91504 176.386 10.0039 176.035 10.1816C175.689 10.3548 175.358 10.5781 175.044 10.8516L174.347 10.0381C174.529 9.87402 174.725 9.72135 174.935 9.58008C175.144 9.43424 175.37 9.30892 175.611 9.2041C175.853 9.09928 176.108 9.01725 176.377 8.95801C176.646 8.89421 176.928 8.8623 177.225 8.8623C177.662 8.8623 178.056 8.92383 178.407 9.04688C178.763 9.16992 179.063 9.34766 179.31 9.58008C179.556 9.80794 179.745 10.0882 179.877 10.4209C180.014 10.749 180.082 11.1204 180.082 11.5352C180.082 11.9225 180.021 12.2917 179.897 12.6426C179.779 12.9935 179.613 13.3398 179.398 13.6816C179.189 14.0189 178.936 14.3584 178.64 14.7002C178.348 15.042 178.031 15.3975 177.689 15.7666L175.769 17.8105V17.8652H180.479V19Z" fill="#3F3F3F"/>
</svg>
