<svg width="483" height="98" viewBox="0 0 483 98" fill="none" xmlns="http://www.w3.org/2000/svg">
<path d="M4.99707 17H0.451172V15.7969L1.66797 15.2363V8.76953L0.451172 8.20898V7.00586H4.99707V8.20898L3.78027 8.76953V15.2363L4.99707 15.7969V17ZM13.6035 17H11.5186V12.5361C11.5186 11.9847 11.4206 11.5723 11.2246 11.2988C11.0286 11.0208 10.7165 10.8818 10.2881 10.8818C9.70475 10.8818 9.2832 11.0778 9.02344 11.4697C8.76367 11.8571 8.63379 12.502 8.63379 13.4043V17H6.54883V9.35742H8.1416L8.42188 10.335H8.53809C8.77051 9.96582 9.08952 9.68783 9.49512 9.50098C9.90527 9.30957 10.3701 9.21387 10.8896 9.21387C11.7783 9.21387 12.4528 9.4554 12.9131 9.93848C13.3734 10.417 13.6035 11.1097 13.6035 12.0166V17ZM19.9473 17.1367C19.0495 17.1367 18.3454 16.8109 17.835 16.1592H17.7256C17.7985 16.7972 17.835 17.1663 17.835 17.2666V20.3633H15.75V9.35742H17.4453L17.7393 10.3486H17.835C18.3226 9.59212 19.0449 9.21387 20.002 9.21387C20.9043 9.21387 21.6107 9.5625 22.1211 10.2598C22.6315 10.957 22.8867 11.9255 22.8867 13.165C22.8867 13.9808 22.766 14.6895 22.5244 15.291C22.2874 15.8926 21.9479 16.3506 21.5059 16.665C21.0638 16.9795 20.5443 17.1367 19.9473 17.1367ZM19.332 10.8818C18.8171 10.8818 18.4411 11.0413 18.2041 11.3604C17.9671 11.6748 17.8441 12.1966 17.835 12.9258V13.1514C17.835 13.9717 17.9557 14.5596 18.1973 14.915C18.4434 15.2705 18.8307 15.4482 19.3594 15.4482C20.2936 15.4482 20.7607 14.6781 20.7607 13.1377C20.7607 12.3857 20.6445 11.8229 20.4121 11.4492C20.1842 11.071 19.8242 10.8818 19.332 10.8818ZM30.0234 17L29.7432 16.0225H29.6338C29.4105 16.3779 29.0938 16.6536 28.6836 16.8496C28.2734 17.041 27.8063 17.1367 27.2822 17.1367C26.3844 17.1367 25.7077 16.8975 25.252 16.4189C24.7962 15.9359 24.5684 15.2432 24.5684 14.3408V9.35742H26.6533V13.8213C26.6533 14.3727 26.7513 14.7874 26.9473 15.0654C27.1432 15.3389 27.4554 15.4756 27.8838 15.4756C28.4671 15.4756 28.8887 15.2819 29.1484 14.8945C29.4082 14.5026 29.5381 13.8555 29.5381 12.9531V9.35742H31.623V17H30.0234ZM37.0303 15.4756C37.3949 15.4756 37.8324 15.3958 38.3428 15.2363V16.7881C37.8232 17.0205 37.1852 17.1367 36.4287 17.1367C35.5947 17.1367 34.9863 16.9271 34.6035 16.5078C34.2253 16.084 34.0361 15.4505 34.0361 14.6074V10.9229H33.0381V10.041L34.1865 9.34375L34.7881 7.73047H36.1211V9.35742H38.2607V10.9229H36.1211V14.6074C36.1211 14.9036 36.2031 15.1224 36.3672 15.2637C36.5358 15.4049 36.7568 15.4756 37.0303 15.4756Z" fill="black"/>
<path d="M188.489 17L186.083 9.15918H186.021C186.108 10.7542 186.151 11.8184 186.151 12.3516V17H184.258V7.00586H187.143L189.508 14.6484H189.549L192.058 7.00586H194.942V17H192.967V12.2695C192.967 12.0462 192.969 11.7887 192.974 11.4971C192.983 11.2054 193.015 10.4307 193.069 9.17285H193.008L190.431 17H188.489ZM198.962 13.165C198.962 13.9215 199.085 14.4935 199.331 14.8809C199.582 15.2682 199.987 15.4619 200.548 15.4619C201.104 15.4619 201.503 15.2705 201.744 14.8877C201.99 14.5003 202.113 13.9261 202.113 13.165C202.113 12.4085 201.99 11.8411 201.744 11.4629C201.498 11.0846 201.095 10.8955 200.534 10.8955C199.978 10.8955 199.577 11.0846 199.331 11.4629C199.085 11.8366 198.962 12.404 198.962 13.165ZM204.246 13.165C204.246 14.4092 203.918 15.3822 203.262 16.084C202.605 16.7858 201.692 17.1367 200.521 17.1367C199.787 17.1367 199.14 16.9772 198.579 16.6582C198.019 16.3346 197.588 15.8721 197.287 15.2705C196.986 14.6689 196.836 13.9671 196.836 13.165C196.836 11.9163 197.162 10.9456 197.813 10.2529C198.465 9.56022 199.381 9.21387 200.562 9.21387C201.295 9.21387 201.942 9.37337 202.503 9.69238C203.063 10.0114 203.494 10.4694 203.795 11.0664C204.096 11.6634 204.246 12.363 204.246 13.165ZM208.389 17.1367C207.491 17.1367 206.785 16.7881 206.27 16.0908C205.759 15.3936 205.504 14.4274 205.504 13.1924C205.504 11.9391 205.764 10.9639 206.283 10.2666C206.807 9.56478 207.527 9.21387 208.443 9.21387C209.405 9.21387 210.139 9.58757 210.645 10.335H210.713C210.608 9.7653 210.556 9.25716 210.556 8.81055V6.36328H212.647V17H211.048L210.645 16.0088H210.556C210.082 16.7607 209.359 17.1367 208.389 17.1367ZM209.12 15.4756C209.653 15.4756 210.043 15.3206 210.289 15.0107C210.54 14.7008 210.676 14.1745 210.699 13.4316V13.2061C210.699 12.3857 210.572 11.7979 210.316 11.4424C210.066 11.0869 209.656 10.9092 209.086 10.9092C208.621 10.9092 208.259 11.1074 207.999 11.5039C207.744 11.8958 207.616 12.4678 207.616 13.2197C207.616 13.9717 207.746 14.5368 208.006 14.915C208.266 15.2887 208.637 15.4756 209.12 15.4756ZM217.993 10.6973C217.551 10.6973 217.205 10.8385 216.954 11.1211C216.703 11.3991 216.56 11.7956 216.523 12.3105H219.449C219.44 11.7956 219.306 11.3991 219.046 11.1211C218.786 10.8385 218.435 10.6973 217.993 10.6973ZM218.287 17.1367C217.057 17.1367 216.095 16.7972 215.402 16.1182C214.71 15.4391 214.363 14.4775 214.363 13.2334C214.363 11.9528 214.682 10.9639 215.32 10.2666C215.963 9.56478 216.849 9.21387 217.979 9.21387C219.06 9.21387 219.9 9.52148 220.502 10.1367C221.104 10.752 221.404 11.6019 221.404 12.6865V13.6982H216.476C216.498 14.2907 216.674 14.7533 217.002 15.0859C217.33 15.4186 217.79 15.585 218.383 15.585C218.843 15.585 219.278 15.5371 219.688 15.4414C220.099 15.3457 220.527 15.193 220.974 14.9834V16.5967C220.609 16.779 220.219 16.9134 219.805 17C219.39 17.0911 218.884 17.1367 218.287 17.1367ZM225.185 17H223.1V6.36328H225.185V17Z" fill="black"/>
<path d="M343.329 10.9893C343.329 12.6436 342.919 13.915 342.099 14.8037C341.278 15.6924 340.103 16.1367 338.571 16.1367C337.04 16.1367 335.864 15.6924 335.044 14.8037C334.224 13.915 333.813 12.639 333.813 10.9756C333.813 9.31217 334.224 8.04297 335.044 7.16797C335.869 6.28841 337.049 5.84863 338.585 5.84863C340.121 5.84863 341.294 6.29069 342.105 7.1748C342.921 8.05892 343.329 9.3304 343.329 10.9893ZM336.035 10.9893C336.035 12.1058 336.247 12.9466 336.671 13.5117C337.095 14.0768 337.728 14.3594 338.571 14.3594C340.262 14.3594 341.107 13.236 341.107 10.9893C341.107 8.73796 340.267 7.6123 338.585 7.6123C337.742 7.6123 337.106 7.89714 336.678 8.4668C336.249 9.0319 336.035 9.87272 336.035 10.9893ZM350.65 16L350.37 15.0225H350.261C350.037 15.3779 349.721 15.6536 349.311 15.8496C348.9 16.041 348.433 16.1367 347.909 16.1367C347.011 16.1367 346.335 15.8975 345.879 15.4189C345.423 14.9359 345.195 14.2432 345.195 13.3408V8.35742H347.28V12.8213C347.28 13.3727 347.378 13.7874 347.574 14.0654C347.77 14.3389 348.082 14.4756 348.511 14.4756C349.094 14.4756 349.516 14.2819 349.775 13.8945C350.035 13.5026 350.165 12.8555 350.165 11.9531V8.35742H352.25V16H350.65ZM357.657 14.4756C358.022 14.4756 358.459 14.3958 358.97 14.2363V15.7881C358.45 16.0205 357.812 16.1367 357.056 16.1367C356.222 16.1367 355.613 15.9271 355.23 15.5078C354.852 15.084 354.663 14.4505 354.663 13.6074V9.92285H353.665V9.04102L354.813 8.34375L355.415 6.73047H356.748V8.35742H358.888V9.92285H356.748V13.6074C356.748 13.9036 356.83 14.1224 356.994 14.2637C357.163 14.4049 357.384 14.4756 357.657 14.4756ZM364.719 16.1367C363.821 16.1367 363.117 15.8109 362.606 15.1592H362.497C362.57 15.7972 362.606 16.1663 362.606 16.2666V19.3633H360.521V8.35742H362.217L362.511 9.34863H362.606C363.094 8.59212 363.816 8.21387 364.773 8.21387C365.676 8.21387 366.382 8.5625 366.893 9.25977C367.403 9.95703 367.658 10.9255 367.658 12.165C367.658 12.9808 367.537 13.6895 367.296 14.291C367.059 14.8926 366.719 15.3506 366.277 15.665C365.835 15.9795 365.316 16.1367 364.719 16.1367ZM364.104 9.88184C363.589 9.88184 363.213 10.0413 362.976 10.3604C362.739 10.6748 362.616 11.1966 362.606 11.9258V12.1514C362.606 12.9717 362.727 13.5596 362.969 13.915C363.215 14.2705 363.602 14.4482 364.131 14.4482C365.065 14.4482 365.532 13.6781 365.532 12.1377C365.532 11.3857 365.416 10.8229 365.184 10.4492C364.956 10.071 364.596 9.88184 364.104 9.88184ZM374.795 16L374.515 15.0225H374.405C374.182 15.3779 373.865 15.6536 373.455 15.8496C373.045 16.041 372.578 16.1367 372.054 16.1367C371.156 16.1367 370.479 15.8975 370.023 15.4189C369.568 14.9359 369.34 14.2432 369.34 13.3408V8.35742H371.425V12.8213C371.425 13.3727 371.523 13.7874 371.719 14.0654C371.915 14.3389 372.227 14.4756 372.655 14.4756C373.239 14.4756 373.66 14.2819 373.92 13.8945C374.18 13.5026 374.31 12.8555 374.31 11.9531V8.35742H376.395V16H374.795ZM381.802 14.4756C382.166 14.4756 382.604 14.3958 383.114 14.2363V15.7881C382.595 16.0205 381.957 16.1367 381.2 16.1367C380.366 16.1367 379.758 15.9271 379.375 15.5078C378.997 15.084 378.808 14.4505 378.808 13.6074V9.92285H377.81V9.04102L378.958 8.34375L379.56 6.73047H380.893V8.35742H383.032V9.92285H380.893V13.6074C380.893 13.9036 380.975 14.1224 381.139 14.2637C381.307 14.4049 381.528 14.4756 381.802 14.4756Z" fill="black"/>
<rect x="406" y="36" width="67" height="27" rx="2" fill="#CE7474" fill-opacity="0.2"/>
<rect x="406" y="71" width="67" height="27" rx="2" fill="#A6CE74" fill-opacity="0.2"/>
<path d="M192.048 65.24C190.32 65.24 188.88 64.872 187.728 64.136C186.592 63.4 185.744 62.368 185.184 61.04C184.624 59.712 184.344 58.16 184.344 56.384C184.344 54.608 184.624 53.064 185.184 51.752C185.744 50.44 186.6 49.424 187.752 48.704C188.904 47.968 190.344 47.6 192.072 47.6C193.72 47.6 195.112 47.968 196.248 48.704C197.4 49.424 198.272 50.448 198.864 51.776C199.456 53.088 199.752 54.632 199.752 56.408C199.752 58.184 199.456 59.736 198.864 61.064C198.272 62.376 197.4 63.4 196.248 64.136C195.096 64.872 193.696 65.24 192.048 65.24ZM192.048 63.872C193.76 63.872 194.96 63.216 195.648 61.904C196.352 60.592 196.704 58.76 196.704 56.408C196.704 54.056 196.352 52.232 195.648 50.936C194.96 49.624 193.768 48.968 192.072 48.968C190.376 48.968 189.168 49.624 188.448 50.936C187.728 52.232 187.368 54.056 187.368 56.408C187.368 58.76 187.72 60.592 188.424 61.904C189.144 63.216 190.352 63.872 192.048 63.872ZM202.654 65V63.92H203.158C203.638 63.92 204.054 63.832 204.406 63.656C204.758 63.48 204.934 63.048 204.934 62.36V50.528C204.934 49.84 204.758 49.408 204.406 49.232C204.054 49.04 203.638 48.944 203.158 48.944H202.654V47.864H209.47C211.598 47.864 213.174 48.248 214.198 49.016C215.238 49.784 215.758 50.928 215.758 52.448C215.758 53.296 215.582 54.016 215.23 54.608C214.894 55.184 214.462 55.656 213.934 56.024C213.406 56.376 212.862 56.656 212.302 56.864L215.47 61.976C215.87 62.632 216.262 63.12 216.646 63.44C217.03 63.76 217.462 63.92 217.942 63.92H218.038V65H217.558C216.566 65 215.782 64.952 215.206 64.856C214.646 64.744 214.182 64.536 213.814 64.232C213.446 63.912 213.086 63.448 212.734 62.84L209.614 57.464H207.718V62.36C207.718 63.048 207.894 63.48 208.246 63.656C208.598 63.832 209.014 63.92 209.494 63.92H209.998V65H202.654ZM207.718 56.264H209.326C210.638 56.264 211.542 55.96 212.038 55.352C212.534 54.744 212.782 53.824 212.782 52.592C212.782 51.328 212.51 50.432 211.966 49.904C211.438 49.36 210.542 49.088 209.278 49.088H207.718V56.264ZM219.452 65V63.92H219.956C220.436 63.92 220.852 63.832 221.204 63.656C221.556 63.48 221.732 63.048 221.732 62.36V50.624C221.732 49.888 221.556 49.424 221.204 49.232C220.868 49.04 220.452 48.944 219.956 48.944H219.452V47.864H231.884L232.004 52.112H230.636L230.516 51.056C230.452 50.512 230.276 50.056 229.988 49.688C229.7 49.32 229.228 49.136 228.572 49.136H224.54V55.424H230.3V56.672H224.54V63.728H229.22C229.892 63.728 230.38 63.544 230.684 63.176C231.004 62.792 231.204 62.336 231.284 61.808L231.452 60.752H232.82L232.652 65H219.452ZM240.52 65.24C238.793 65.24 237.521 64.912 236.704 64.256C235.904 63.6 235.504 62.8 235.504 61.856C235.504 61.28 235.688 60.84 236.056 60.536C236.424 60.232 236.904 60.08 237.496 60.08C237.544 61.184 237.825 62.112 238.337 62.864C238.865 63.616 239.673 63.992 240.761 63.992C241.785 63.992 242.592 63.736 243.184 63.224C243.776 62.712 244.072 62 244.072 61.088C244.072 60.512 243.944 60.024 243.688 59.624C243.449 59.208 243.049 58.832 242.489 58.496C241.929 58.144 241.185 57.776 240.257 57.392C238.721 56.768 237.601 56.056 236.896 55.256C236.192 54.44 235.84 53.392 235.84 52.112C235.84 51.168 236.072 50.368 236.536 49.712C237 49.04 237.64 48.528 238.457 48.176C239.289 47.808 240.225 47.624 241.265 47.624C242.785 47.624 243.937 47.896 244.721 48.44C245.521 48.984 245.921 49.616 245.921 50.336C245.921 50.864 245.729 51.28 245.345 51.584C244.961 51.872 244.425 52.016 243.737 52.016C243.737 51.536 243.649 51.056 243.473 50.576C243.313 50.096 243.033 49.696 242.632 49.376C242.249 49.056 241.729 48.896 241.072 48.896C240.225 48.896 239.553 49.128 239.057 49.592C238.561 50.056 238.313 50.688 238.313 51.488C238.313 52.08 238.425 52.592 238.649 53.024C238.873 53.44 239.257 53.824 239.801 54.176C240.36 54.528 241.12 54.904 242.08 55.304C243.553 55.896 244.673 56.576 245.441 57.344C246.208 58.096 246.592 59.08 246.592 60.296C246.592 61.832 246.04 63.04 244.937 63.92C243.849 64.8 242.377 65.24 240.52 65.24Z" fill="#666666"/>
<path d="M147.763 51H132V53H147.763V56L153 52L147.763 48V51Z" fill="#DFDFDF"/>
<path d="M298.763 51H283V53H298.763V56L304 52L298.763 48V51Z" fill="#DFDFDF"/>
<rect y="39" width="111" height="36" rx="4" fill="#666666"/>
<path d="M15.9453 62H10.3604V52.0059H15.9453V53.1133H11.6182V56.2305H15.6924V57.3242H11.6182V60.8926H15.9453V62ZM20.6416 62.1367C19.6663 62.1367 18.9098 61.7995 18.3721 61.125C17.8343 60.4505 17.5654 59.4958 17.5654 58.2607C17.5654 57.0348 17.8343 56.0778 18.3721 55.3896C18.9144 54.7015 19.6755 54.3574 20.6553 54.3574C21.6624 54.3574 22.4372 54.7266 22.9795 55.4648H23.0684C23.0547 55.3737 23.0365 55.1914 23.0137 54.918C22.9909 54.64 22.9795 54.4531 22.9795 54.3574V51.3633H24.21V62H23.2188L23.0342 60.9951H22.9795C22.4554 61.7562 21.6761 62.1367 20.6416 62.1367ZM20.8398 61.1182C21.5872 61.1182 22.1318 60.9154 22.4736 60.5098C22.82 60.0996 22.9932 59.4297 22.9932 58.5V58.2744C22.9932 57.2308 22.8177 56.488 22.4668 56.0459C22.1204 55.5993 21.5736 55.376 20.8262 55.376C20.1927 55.376 19.7028 55.6289 19.3564 56.1348C19.0101 56.6361 18.8369 57.3538 18.8369 58.2881C18.8369 59.2178 19.0078 59.9219 19.3496 60.4004C19.696 60.8789 20.1927 61.1182 20.8398 61.1182ZM27.8262 62H26.5957V54.4941H27.8262V62ZM26.5 52.4639C26.5 52.1904 26.5684 51.9922 26.7051 51.8691C26.8464 51.7461 27.0195 51.6846 27.2246 51.6846C27.416 51.6846 27.5824 51.7461 27.7236 51.8691C27.8695 51.9922 27.9424 52.1904 27.9424 52.4639C27.9424 52.7327 27.8695 52.931 27.7236 53.0586C27.5824 53.1862 27.416 53.25 27.2246 53.25C27.0195 53.25 26.8464 53.1862 26.7051 53.0586C26.5684 52.931 26.5 52.7327 26.5 52.4639ZM32.7139 61.1318C32.8734 61.1318 33.0602 61.1159 33.2744 61.084C33.4886 61.0521 33.6504 61.0156 33.7598 60.9746V61.918C33.6458 61.9681 33.4681 62.016 33.2266 62.0615C32.9896 62.1117 32.748 62.1367 32.502 62.1367C31.0345 62.1367 30.3008 61.3643 30.3008 59.8193V55.4512H29.2412V54.8633L30.3145 54.3711L30.8066 52.7715H31.5381V54.4941H33.7051V55.4512H31.5381V59.7852C31.5381 60.2181 31.6406 60.5508 31.8457 60.7832C32.0553 61.0156 32.3447 61.1318 32.7139 61.1318ZM38.9072 61.2412C38.9072 61.068 38.93 60.9222 38.9756 60.8037C39.0212 60.6807 39.0827 60.5827 39.1602 60.5098C39.2376 60.4323 39.3288 60.3776 39.4336 60.3457C39.5384 60.3092 39.6523 60.291 39.7754 60.291C39.8939 60.291 40.0055 60.3092 40.1104 60.3457C40.2197 60.3776 40.3132 60.4323 40.3906 60.5098C40.4681 60.5827 40.5296 60.6807 40.5752 60.8037C40.6208 60.9222 40.6436 61.068 40.6436 61.2412C40.6436 61.4098 40.6208 61.5557 40.5752 61.6787C40.5296 61.7972 40.4681 61.8952 40.3906 61.9727C40.3132 62.0501 40.2197 62.1071 40.1104 62.1436C40.0055 62.18 39.8939 62.1982 39.7754 62.1982C39.6523 62.1982 39.5384 62.18 39.4336 62.1436C39.3288 62.1071 39.2376 62.0501 39.1602 61.9727C39.0827 61.8952 39.0212 61.7972 38.9756 61.6787C38.93 61.5557 38.9072 61.4098 38.9072 61.2412ZM38.9072 55.2529C38.9072 55.0752 38.93 54.9271 38.9756 54.8086C39.0212 54.6855 39.0827 54.5876 39.1602 54.5146C39.2376 54.4372 39.3288 54.3825 39.4336 54.3506C39.5384 54.3187 39.6523 54.3027 39.7754 54.3027C39.8939 54.3027 40.0055 54.3187 40.1104 54.3506C40.2197 54.3825 40.3132 54.4372 40.3906 54.5146C40.4681 54.5876 40.5296 54.6855 40.5752 54.8086C40.6208 54.9271 40.6436 55.0752 40.6436 55.2529C40.6436 55.4215 40.6208 55.5651 40.5752 55.6836C40.5296 55.8021 40.4681 55.9001 40.3906 55.9775C40.3132 56.055 40.2197 56.112 40.1104 56.1484C40.0055 56.1849 39.8939 56.2031 39.7754 56.2031C39.6523 56.2031 39.5384 56.1849 39.4336 56.1484C39.3288 56.112 39.2376 56.055 39.1602 55.9775C39.0827 55.9001 39.0212 55.8021 38.9756 55.6836C38.93 55.5651 38.9072 55.4215 38.9072 55.2529ZM52.1963 56.4834L51.793 58.6094H53.6523V59.5322H51.6084L51.1367 62H50.1523L50.6377 59.5322H48.6895L48.2109 62H47.2471L47.6982 59.5322H45.9551V58.6094H47.876L48.2998 56.4834H46.4609V55.5674H48.4639L48.9287 53.1475H49.9131L49.4551 55.5674H51.417L51.8887 53.1475H52.8525L52.3809 55.5674H54.1377V56.4834H52.1963ZM48.8604 58.6094H50.8154L51.2256 56.4834H49.2773L48.8604 58.6094ZM59.4834 62H58.2803V55.7588C58.2803 55.5628 58.2803 55.3532 58.2803 55.1299C58.2848 54.9066 58.2894 54.6855 58.2939 54.4668C58.3031 54.2435 58.3099 54.0316 58.3145 53.8311C58.3236 53.626 58.3304 53.446 58.335 53.291C58.2575 53.373 58.1891 53.4437 58.1299 53.5029C58.0706 53.5622 58.0091 53.6191 57.9453 53.6738C57.8861 53.7285 57.8223 53.7878 57.7539 53.8516C57.6855 53.9108 57.6035 53.9814 57.5078 54.0635L56.4961 54.8906L55.8398 54.0498L58.458 52.0059H59.4834V62ZM69.2246 62H62.9902V60.9336L65.3828 58.3291C65.7246 57.96 66.0299 57.6227 66.2988 57.3174C66.5677 57.012 66.7956 56.7135 66.9824 56.4219C67.1738 56.1302 67.3197 55.8385 67.4199 55.5469C67.5202 55.2507 67.5703 54.9294 67.5703 54.583C67.5703 54.3141 67.5316 54.0771 67.4541 53.8721C67.3766 53.667 67.265 53.4938 67.1191 53.3525C66.9779 53.2067 66.8092 53.0973 66.6133 53.0244C66.4173 52.9515 66.1986 52.915 65.957 52.915C65.5241 52.915 65.1322 53.0039 64.7812 53.1816C64.4349 53.3548 64.1045 53.5781 63.79 53.8516L63.0928 53.0381C63.2751 52.874 63.471 52.7214 63.6807 52.5801C63.8903 52.4342 64.1159 52.3089 64.3574 52.2041C64.599 52.0993 64.8542 52.0173 65.123 51.958C65.3919 51.8942 65.6745 51.8623 65.9707 51.8623C66.4082 51.8623 66.8024 51.9238 67.1533 52.0469C67.5088 52.1699 67.8096 52.3477 68.0557 52.5801C68.3018 52.8079 68.4909 53.0882 68.623 53.4209C68.7598 53.749 68.8281 54.1204 68.8281 54.5352C68.8281 54.9225 68.7666 55.2917 68.6436 55.6426C68.5251 55.9935 68.3587 56.3398 68.1445 56.6816C67.9349 57.0189 67.682 57.3584 67.3857 57.7002C67.0941 58.042 66.7773 58.3975 66.4355 58.7666L64.5146 60.8105V60.8652H69.2246V62ZM77.4756 59.7578H76.0195V62H74.8164V59.7578H70.2021V58.6709L74.7344 51.9512H76.0195V58.623H77.4756V59.7578ZM74.8164 58.623V56.1895C74.8164 55.9342 74.8187 55.6676 74.8232 55.3896C74.8324 55.1071 74.8415 54.8337 74.8506 54.5693C74.8597 54.3005 74.8688 54.0498 74.8779 53.8174C74.8916 53.585 74.9007 53.3913 74.9053 53.2363H74.8438C74.8118 53.3275 74.7708 53.43 74.7207 53.5439C74.6751 53.6533 74.6227 53.765 74.5635 53.8789C74.5088 53.9883 74.4518 54.0954 74.3926 54.2002C74.3333 54.305 74.2786 54.3939 74.2285 54.4668L71.4189 58.623H74.8164ZM84.6465 62H78.4121V60.9336L80.8047 58.3291C81.1465 57.96 81.4518 57.6227 81.7207 57.3174C81.9896 57.012 82.2174 56.7135 82.4043 56.4219C82.5957 56.1302 82.7415 55.8385 82.8418 55.5469C82.9421 55.2507 82.9922 54.9294 82.9922 54.583C82.9922 54.3141 82.9535 54.0771 82.876 53.8721C82.7985 53.667 82.6868 53.4938 82.541 53.3525C82.3997 53.2067 82.2311 53.0973 82.0352 53.0244C81.8392 52.9515 81.6204 52.915 81.3789 52.915C80.946 52.915 80.554 53.0039 80.2031 53.1816C79.8568 53.3548 79.5264 53.5781 79.2119 53.8516L78.5146 53.0381C78.6969 52.874 78.8929 52.7214 79.1025 52.5801C79.3122 52.4342 79.5378 52.3089 79.7793 52.2041C80.0208 52.0993 80.276 52.0173 80.5449 51.958C80.8138 51.8942 81.0964 51.8623 81.3926 51.8623C81.8301 51.8623 82.2243 51.9238 82.5752 52.0469C82.9307 52.1699 83.2314 52.3477 83.4775 52.5801C83.7236 52.8079 83.9128 53.0882 84.0449 53.4209C84.1816 53.749 84.25 54.1204 84.25 54.5352C84.25 54.9225 84.1885 55.2917 84.0654 55.6426C83.9469 55.9935 83.7806 56.3398 83.5664 56.6816C83.3568 57.0189 83.1038 57.3584 82.8076 57.7002C82.516 58.042 82.1992 58.3975 81.8574 58.7666L79.9365 60.8105V60.8652H84.6465V62ZM92.0361 54.3438C92.0361 54.6764 91.9837 54.9795 91.8789 55.2529C91.7741 55.5264 91.626 55.7633 91.4346 55.9639C91.2477 56.1644 91.0221 56.3307 90.7578 56.4629C90.4935 56.5905 90.1995 56.6816 89.876 56.7363V56.7773C90.6826 56.8776 91.2956 57.1351 91.7148 57.5498C92.1341 57.96 92.3438 58.4954 92.3438 59.1562C92.3438 59.5938 92.2686 59.9948 92.1182 60.3594C91.9723 60.724 91.749 61.0384 91.4482 61.3027C91.1475 61.5671 90.7669 61.7721 90.3066 61.918C89.8464 62.0638 89.3018 62.1367 88.6729 62.1367C88.1761 62.1367 87.7067 62.098 87.2646 62.0205C86.8271 61.943 86.4147 61.8018 86.0273 61.5967V60.4346C86.4238 60.6442 86.8522 60.806 87.3125 60.9199C87.7773 61.0339 88.2217 61.0908 88.6455 61.0908C89.0648 61.0908 89.4271 61.0452 89.7324 60.9541C90.0378 60.863 90.2884 60.7331 90.4844 60.5645C90.6849 60.3958 90.8307 60.1885 90.9219 59.9424C91.0176 59.6963 91.0654 59.4206 91.0654 59.1152C91.0654 58.8053 91.0039 58.541 90.8809 58.3223C90.7624 58.099 90.5915 57.9167 90.3682 57.7754C90.1449 57.6296 89.8714 57.5225 89.5479 57.4541C89.2288 57.3857 88.8665 57.3516 88.4609 57.3516H87.5518V56.3193H88.4609C88.8301 56.3193 89.1582 56.2738 89.4453 56.1826C89.7324 56.0915 89.9717 55.9616 90.1631 55.793C90.359 55.6243 90.5072 55.4238 90.6074 55.1914C90.7077 54.959 90.7578 54.7038 90.7578 54.4258C90.7578 54.1888 90.7168 53.9769 90.6348 53.79C90.5527 53.6032 90.4365 53.446 90.2861 53.3184C90.1357 53.1862 89.9557 53.0859 89.7461 53.0176C89.5365 52.9492 89.304 52.915 89.0488 52.915C88.5612 52.915 88.1305 52.9925 87.7568 53.1475C87.3877 53.2979 87.0345 53.4961 86.6973 53.7422L86.0684 52.8877C86.2415 52.7464 86.4329 52.6143 86.6426 52.4912C86.8568 52.3682 87.0892 52.2611 87.3398 52.1699C87.5905 52.0742 87.8571 51.999 88.1396 51.9443C88.4268 51.8896 88.7298 51.8623 89.0488 51.8623C89.541 51.8623 89.9717 51.9238 90.3408 52.0469C90.7145 52.1699 91.0267 52.3431 91.2773 52.5664C91.528 52.7852 91.7171 53.0472 91.8447 53.3525C91.9723 53.6533 92.0361 53.9837 92.0361 54.3438ZM100.232 56.9893C100.232 57.7959 100.173 58.5182 100.055 59.1562C99.9408 59.7943 99.7539 60.3343 99.4941 60.7764C99.2389 61.2184 98.9085 61.5557 98.5029 61.7881C98.0973 62.0205 97.6051 62.1367 97.0264 62.1367C96.4886 62.1367 96.0192 62.0205 95.6182 61.7881C95.2217 61.5557 94.8913 61.2184 94.627 60.7764C94.3672 60.3343 94.1712 59.7943 94.0391 59.1562C93.9115 58.5182 93.8477 57.7959 93.8477 56.9893C93.8477 56.1826 93.9046 55.4603 94.0186 54.8223C94.137 54.1842 94.3216 53.6465 94.5723 53.209C94.8275 52.7669 95.1556 52.4297 95.5566 52.1973C95.9622 51.9648 96.4521 51.8486 97.0264 51.8486C97.5687 51.8486 98.0404 51.9648 98.4414 52.1973C98.8424 52.4251 99.1751 52.7601 99.4395 53.2021C99.7038 53.6396 99.902 54.1774 100.034 54.8154C100.166 55.4535 100.232 56.1781 100.232 56.9893ZM95.1123 56.9893C95.1123 57.6729 95.1465 58.2699 95.2148 58.7803C95.2832 59.2907 95.3926 59.7168 95.543 60.0586C95.6934 60.3958 95.8893 60.651 96.1309 60.8242C96.377 60.9928 96.6755 61.0771 97.0264 61.0771C97.3773 61.0771 97.6758 60.9928 97.9219 60.8242C98.168 60.6556 98.3685 60.4027 98.5234 60.0654C98.6829 59.7282 98.7969 59.3044 98.8652 58.7939C98.9382 58.279 98.9746 57.6774 98.9746 56.9893C98.9746 56.3057 98.9382 55.7087 98.8652 55.1982C98.7969 54.6878 98.6829 54.264 98.5234 53.9268C98.3685 53.5895 98.168 53.3366 97.9219 53.168C97.6758 52.9993 97.3773 52.915 97.0264 52.915C96.6755 52.915 96.377 52.9993 96.1309 53.168C95.8893 53.3366 95.6934 53.5895 95.543 53.9268C95.3926 54.264 95.2832 54.6878 95.2148 55.1982C95.1465 55.7087 95.1123 56.3057 95.1123 56.9893Z" fill="white"/>
<path d="M340.365 48.9072C340.365 50.557 339.914 51.8193 339.012 52.6943C338.114 53.5648 336.824 54 335.143 54H332.36V44.0059H335.437C336.991 44.0059 338.201 44.4342 339.066 45.291C339.932 46.1432 340.365 47.3486 340.365 48.9072ZM339.039 48.9482C339.039 47.6768 338.725 46.7152 338.096 46.0635C337.471 45.4072 336.526 45.0791 335.259 45.0791H333.618V52.9199H334.979C337.686 52.9199 339.039 51.596 339.039 48.9482ZM347.051 54L346.812 52.9336H346.757C346.383 53.403 346.009 53.722 345.636 53.8906C345.267 54.0547 344.799 54.1367 344.234 54.1367C343.496 54.1367 342.917 53.943 342.498 53.5557C342.079 53.1683 341.869 52.6214 341.869 51.915C341.869 50.3929 343.07 49.5954 345.472 49.5225L346.743 49.4746V49.0303C346.743 48.4606 346.62 48.0413 346.374 47.7725C346.128 47.499 345.734 47.3623 345.191 47.3623C344.795 47.3623 344.419 47.4215 344.063 47.54C343.713 47.6585 343.382 47.7907 343.072 47.9365L342.696 47.0137C343.075 46.8132 343.487 46.6559 343.934 46.542C344.38 46.4281 344.822 46.3711 345.26 46.3711C346.167 46.3711 346.841 46.5716 347.283 46.9727C347.725 47.3737 347.946 48.0117 347.946 48.8867V54H347.051ZM344.515 53.1455C345.203 53.1455 345.743 52.9609 346.135 52.5918C346.531 52.2181 346.729 51.6895 346.729 51.0059V50.3291L345.622 50.377C344.761 50.4089 344.132 50.5456 343.735 50.7871C343.343 51.0286 343.147 51.4092 343.147 51.9287C343.147 52.3206 343.266 52.6214 343.503 52.8311C343.744 53.0407 344.082 53.1455 344.515 53.1455ZM359.827 54V49.167C359.827 47.9821 359.319 47.3896 358.303 47.3896C357.605 47.3896 357.093 47.5924 356.765 47.998C356.437 48.4036 356.272 49.0234 356.272 49.8574V54H355.049V49.167C355.049 48.5745 354.924 48.1302 354.673 47.834C354.427 47.5378 354.039 47.3896 353.511 47.3896C352.818 47.3896 352.31 47.6016 351.986 48.0254C351.667 48.4492 351.508 49.1442 351.508 50.1104V54H350.277V46.4941H351.269L351.453 47.5195H351.521C351.736 47.1549 352.036 46.8701 352.424 46.665C352.816 46.46 353.253 46.3574 353.736 46.3574C354.912 46.3574 355.678 46.7767 356.033 47.6152H356.102C356.343 47.2142 356.671 46.9043 357.086 46.6855C357.505 46.4668 357.979 46.3574 358.508 46.3574C359.355 46.3574 359.989 46.5762 360.408 47.0137C360.832 47.4512 361.044 48.1507 361.044 49.1123V54H359.827ZM368.01 54L367.771 52.9336H367.716C367.342 53.403 366.968 53.722 366.595 53.8906C366.226 54.0547 365.758 54.1367 365.193 54.1367C364.455 54.1367 363.876 53.943 363.457 53.5557C363.038 53.1683 362.828 52.6214 362.828 51.915C362.828 50.3929 364.029 49.5954 366.431 49.5225L367.702 49.4746V49.0303C367.702 48.4606 367.579 48.0413 367.333 47.7725C367.087 47.499 366.693 47.3623 366.15 47.3623C365.754 47.3623 365.378 47.4215 365.022 47.54C364.672 47.6585 364.341 47.7907 364.031 47.9365L363.655 47.0137C364.034 46.8132 364.446 46.6559 364.893 46.542C365.339 46.4281 365.781 46.3711 366.219 46.3711C367.126 46.3711 367.8 46.5716 368.242 46.9727C368.684 47.3737 368.905 48.0117 368.905 48.8867V54H368.01ZM365.474 53.1455C366.162 53.1455 366.702 52.9609 367.094 52.5918C367.49 52.2181 367.688 51.6895 367.688 51.0059V50.3291L366.581 50.377C365.72 50.4089 365.091 50.5456 364.694 50.7871C364.302 51.0286 364.106 51.4092 364.106 51.9287C364.106 52.3206 364.225 52.6214 364.462 52.8311C364.703 53.0407 365.041 53.1455 365.474 53.1455ZM374.094 53.1318C374.85 53.1318 375.399 52.929 375.741 52.5234C376.088 52.1133 376.261 51.457 376.261 50.5547V50.2607C376.261 49.2581 376.088 48.529 375.741 48.0732C375.395 47.6175 374.837 47.3896 374.066 47.3896C373.438 47.3896 372.95 47.6403 372.604 48.1416C372.262 48.6383 372.091 49.3493 372.091 50.2744C372.091 51.2041 372.257 51.9128 372.59 52.4004C372.927 52.888 373.428 53.1318 374.094 53.1318ZM376.247 53.9316L376.288 53.0088H376.233C375.728 53.7607 374.953 54.1367 373.909 54.1367C372.938 54.1367 372.18 53.7995 371.633 53.125C371.09 52.446 370.819 51.4912 370.819 50.2607C370.819 49.0531 371.093 48.1006 371.64 47.4033C372.191 46.7061 372.943 46.3574 373.896 46.3574C374.912 46.3574 375.696 46.7357 376.247 47.4922H376.322L376.486 46.4941H377.464V54.123C377.464 55.1986 377.19 56.0075 376.644 56.5498C376.101 57.0921 375.256 57.3633 374.107 57.3633C373.014 57.3633 372.114 57.2038 371.407 56.8848V55.75C372.136 56.1419 373.059 56.3379 374.176 56.3379C374.814 56.3379 375.317 56.151 375.687 55.7773C376.06 55.4036 376.247 54.8864 376.247 54.2256V53.9316ZM381.08 54H379.85V46.4941H381.08V54ZM379.754 44.4639C379.754 44.1904 379.822 43.9922 379.959 43.8691C380.1 43.7461 380.273 43.6846 380.479 43.6846C380.67 43.6846 380.836 43.7461 380.978 43.8691C381.123 43.9922 381.196 44.1904 381.196 44.4639C381.196 44.7327 381.123 44.931 380.978 45.0586C380.836 45.1862 380.67 45.25 380.479 45.25C380.273 45.25 380.1 45.1862 379.959 45.0586C379.822 44.931 379.754 44.7327 379.754 44.4639ZM388.572 54V49.2012C388.572 48.5905 388.436 48.137 388.162 47.8408C387.893 47.54 387.469 47.3896 386.891 47.3896C386.12 47.3896 385.56 47.6038 385.209 48.0322C384.863 48.4561 384.689 49.1488 384.689 50.1104V54H383.459V46.4941H384.45L384.635 47.5195H384.703C384.936 47.1504 385.261 46.8656 385.681 46.665C386.1 46.46 386.562 46.3574 387.068 46.3574C387.989 46.3574 388.673 46.5807 389.119 47.0273C389.566 47.474 389.789 48.1689 389.789 49.1123V54H388.572ZM394.971 53.1318C395.727 53.1318 396.276 52.929 396.618 52.5234C396.965 52.1133 397.138 51.457 397.138 50.5547V50.2607C397.138 49.2581 396.965 48.529 396.618 48.0732C396.272 47.6175 395.714 47.3896 394.943 47.3896C394.314 47.3896 393.827 47.6403 393.48 48.1416C393.139 48.6383 392.968 49.3493 392.968 50.2744C392.968 51.2041 393.134 51.9128 393.467 52.4004C393.804 52.888 394.305 53.1318 394.971 53.1318ZM397.124 53.9316L397.165 53.0088H397.11C396.604 53.7607 395.83 54.1367 394.786 54.1367C393.815 54.1367 393.057 53.7995 392.51 53.125C391.967 52.446 391.696 51.4912 391.696 50.2607C391.696 49.0531 391.97 48.1006 392.517 47.4033C393.068 46.7061 393.82 46.3574 394.772 46.3574C395.789 46.3574 396.573 46.7357 397.124 47.4922H397.199L397.363 46.4941H398.341V54.123C398.341 55.1986 398.067 56.0075 397.521 56.5498C396.978 57.0921 396.133 57.3633 394.984 57.3633C393.891 57.3633 392.991 57.2038 392.284 56.8848V55.75C393.013 56.1419 393.936 56.3379 395.053 56.3379C395.691 56.3379 396.194 56.151 396.563 55.7773C396.937 55.4036 397.124 54.8864 397.124 54.2256V53.9316ZM400.733 53.2412C400.733 53.068 400.756 52.9222 400.802 52.8037C400.847 52.6807 400.909 52.5827 400.986 52.5098C401.064 52.4323 401.155 52.3776 401.26 52.3457C401.365 52.3092 401.479 52.291 401.602 52.291C401.72 52.291 401.832 52.3092 401.937 52.3457C402.046 52.3776 402.139 52.4323 402.217 52.5098C402.294 52.5827 402.356 52.6807 402.401 52.8037C402.447 52.9222 402.47 53.068 402.47 53.2412C402.47 53.4098 402.447 53.5557 402.401 53.6787C402.356 53.7972 402.294 53.8952 402.217 53.9727C402.139 54.0501 402.046 54.1071 401.937 54.1436C401.832 54.18 401.72 54.1982 401.602 54.1982C401.479 54.1982 401.365 54.18 401.26 54.1436C401.155 54.1071 401.064 54.0501 400.986 53.9727C400.909 53.8952 400.847 53.7972 400.802 53.6787C400.756 53.5557 400.733 53.4098 400.733 53.2412ZM400.733 47.2529C400.733 47.0752 400.756 46.9271 400.802 46.8086C400.847 46.6855 400.909 46.5876 400.986 46.5146C401.064 46.4372 401.155 46.3825 401.26 46.3506C401.365 46.3187 401.479 46.3027 401.602 46.3027C401.72 46.3027 401.832 46.3187 401.937 46.3506C402.046 46.3825 402.139 46.4372 402.217 46.5146C402.294 46.5876 402.356 46.6855 402.401 46.8086C402.447 46.9271 402.47 47.0752 402.47 47.2529C402.47 47.4215 402.447 47.5651 402.401 47.6836C402.356 47.8021 402.294 47.9001 402.217 47.9775C402.139 48.055 402.046 48.112 401.937 48.1484C401.832 48.1849 401.72 48.2031 401.602 48.2031C401.479 48.2031 401.365 48.1849 401.26 48.1484C401.155 48.112 401.064 48.055 400.986 47.9775C400.909 47.9001 400.847 47.8021 400.802 47.6836C400.756 47.5651 400.733 47.4215 400.733 47.2529Z" fill="#666666"/>
<path d="M421.631 48.9893C421.631 49.7959 421.572 50.5182 421.453 51.1562C421.339 51.7943 421.152 52.3343 420.893 52.7764C420.637 53.2184 420.307 53.5557 419.901 53.7881C419.496 54.0205 419.004 54.1367 418.425 54.1367C417.887 54.1367 417.418 54.0205 417.017 53.7881C416.62 53.5557 416.29 53.2184 416.025 52.7764C415.766 52.3343 415.57 51.7943 415.438 51.1562C415.31 50.5182 415.246 49.7959 415.246 48.9893C415.246 48.1826 415.303 47.4603 415.417 46.8223C415.535 46.1842 415.72 45.6465 415.971 45.209C416.226 44.7669 416.554 44.4297 416.955 44.1973C417.361 43.9648 417.851 43.8486 418.425 43.8486C418.967 43.8486 419.439 43.9648 419.84 44.1973C420.241 44.4251 420.574 44.7601 420.838 45.2021C421.102 45.6396 421.3 46.1774 421.433 46.8154C421.565 47.4535 421.631 48.1781 421.631 48.9893ZM416.511 48.9893C416.511 49.6729 416.545 50.2699 416.613 50.7803C416.682 51.2907 416.791 51.7168 416.941 52.0586C417.092 52.3958 417.288 52.651 417.529 52.8242C417.775 52.9928 418.074 53.0771 418.425 53.0771C418.776 53.0771 419.074 52.9928 419.32 52.8242C419.566 52.6556 419.767 52.4027 419.922 52.0654C420.081 51.7282 420.195 51.3044 420.264 50.7939C420.337 50.279 420.373 49.6774 420.373 48.9893C420.373 48.3057 420.337 47.7087 420.264 47.1982C420.195 46.6878 420.081 46.264 419.922 45.9268C419.767 45.5895 419.566 45.3366 419.32 45.168C419.074 44.9993 418.776 44.915 418.425 44.915C418.074 44.915 417.775 44.9993 417.529 45.168C417.288 45.3366 417.092 45.5895 416.941 45.9268C416.791 46.264 416.682 46.6878 416.613 47.1982C416.545 47.7087 416.511 48.3057 416.511 48.9893ZM423.292 53.2412C423.292 53.068 423.315 52.9222 423.36 52.8037C423.406 52.6807 423.467 52.5827 423.545 52.5098C423.622 52.4323 423.714 52.3776 423.818 52.3457C423.923 52.3092 424.037 52.291 424.16 52.291C424.279 52.291 424.39 52.3092 424.495 52.3457C424.604 52.3776 424.698 52.4323 424.775 52.5098C424.853 52.5827 424.914 52.6807 424.96 52.8037C425.006 52.9222 425.028 53.068 425.028 53.2412C425.028 53.4098 425.006 53.5557 424.96 53.6787C424.914 53.7972 424.853 53.8952 424.775 53.9727C424.698 54.0501 424.604 54.1071 424.495 54.1436C424.39 54.18 424.279 54.1982 424.16 54.1982C424.037 54.1982 423.923 54.18 423.818 54.1436C423.714 54.1071 423.622 54.0501 423.545 53.9727C423.467 53.8952 423.406 53.7972 423.36 53.6787C423.315 53.5557 423.292 53.4098 423.292 53.2412ZM429.909 43.8486C430.292 43.8486 430.652 43.8988 430.989 43.999C431.331 44.0993 431.63 44.2497 431.885 44.4502C432.145 44.6507 432.35 44.9014 432.5 45.2021C432.65 45.5029 432.726 45.8538 432.726 46.2549C432.726 46.5602 432.68 46.8359 432.589 47.082C432.498 47.3281 432.372 47.5514 432.213 47.752C432.053 47.9479 431.864 48.1257 431.646 48.2852C431.427 48.4401 431.19 48.5814 430.935 48.709C431.199 48.8503 431.456 49.0075 431.707 49.1807C431.962 49.3538 432.188 49.5498 432.384 49.7686C432.584 49.9827 432.744 50.2243 432.862 50.4932C432.985 50.762 433.047 51.0628 433.047 51.3955C433.047 51.8148 432.969 52.1953 432.814 52.5371C432.664 52.8743 432.45 53.1615 432.172 53.3984C431.898 53.6354 431.568 53.8177 431.181 53.9453C430.798 54.0729 430.374 54.1367 429.909 54.1367C429.408 54.1367 428.961 54.0752 428.569 53.9521C428.182 53.8291 427.854 53.6536 427.585 53.4258C427.321 53.1934 427.118 52.9108 426.977 52.5781C426.84 52.2454 426.771 51.8695 426.771 51.4502C426.771 51.1084 426.822 50.8008 426.922 50.5273C427.027 50.2539 427.166 50.0078 427.339 49.7891C427.512 49.5703 427.717 49.3766 427.954 49.208C428.191 49.0394 428.442 48.8913 428.706 48.7637C428.483 48.6224 428.273 48.4697 428.077 48.3057C427.881 48.137 427.71 47.9502 427.564 47.7451C427.423 47.54 427.309 47.3145 427.223 47.0684C427.141 46.8177 427.1 46.542 427.1 46.2412C427.1 45.8447 427.175 45.4984 427.325 45.2021C427.48 44.9014 427.688 44.6507 427.947 44.4502C428.207 44.2497 428.506 44.0993 428.843 43.999C429.185 43.8988 429.54 43.8486 429.909 43.8486ZM427.995 51.4639C427.995 51.7054 428.032 51.9287 428.104 52.1338C428.177 52.3343 428.291 52.5075 428.446 52.6533C428.601 52.7946 428.797 52.9062 429.034 52.9883C429.271 53.0658 429.554 53.1045 429.882 53.1045C430.201 53.1045 430.481 53.0658 430.723 52.9883C430.969 52.9062 431.174 52.7923 431.338 52.6465C431.502 52.4961 431.625 52.3161 431.707 52.1064C431.789 51.8968 431.83 51.6644 431.83 51.4092C431.83 51.1722 431.785 50.958 431.693 50.7666C431.607 50.5752 431.479 50.3975 431.311 50.2334C431.146 50.0693 430.948 49.9144 430.716 49.7686C430.483 49.6227 430.224 49.4792 429.937 49.3379L429.731 49.2422C429.157 49.5156 428.724 49.8301 428.433 50.1855C428.141 50.5365 427.995 50.9626 427.995 51.4639ZM429.896 44.8877C429.412 44.8877 429.027 45.0085 428.74 45.25C428.458 45.4915 428.316 45.8424 428.316 46.3027C428.316 46.5625 428.355 46.7858 428.433 46.9727C428.515 47.1595 428.626 47.3258 428.768 47.4717C428.909 47.6175 429.077 47.7497 429.273 47.8682C429.474 47.9821 429.69 48.0938 429.923 48.2031C430.142 48.1029 430.347 47.9935 430.538 47.875C430.734 47.7565 430.903 47.6221 431.044 47.4717C431.19 47.3213 431.304 47.1504 431.386 46.959C431.468 46.7676 431.509 46.5488 431.509 46.3027C431.509 45.8424 431.365 45.4915 431.078 45.25C430.791 45.0085 430.397 44.8877 429.896 44.8877ZM435.679 54L439.527 45.1406H434.373V44.0059H440.799V44.9971L437.005 54H435.679ZM446.329 54H445.126V47.7588C445.126 47.5628 445.126 47.3532 445.126 47.1299C445.131 46.9066 445.135 46.6855 445.14 46.4668C445.149 46.2435 445.156 46.0316 445.16 45.8311C445.169 45.626 445.176 45.446 445.181 45.291C445.103 45.373 445.035 45.4437 444.976 45.5029C444.916 45.5622 444.855 45.6191 444.791 45.6738C444.732 45.7285 444.668 45.7878 444.6 45.8516C444.531 45.9108 444.449 45.9814 444.354 46.0635L443.342 46.8906L442.686 46.0498L445.304 44.0059H446.329V54ZM456.61 51.7578H455.154V54H453.951V51.7578H449.337V50.6709L453.869 43.9512H455.154V50.623H456.61V51.7578ZM453.951 50.623V48.1895C453.951 47.9342 453.953 47.6676 453.958 47.3896C453.967 47.1071 453.976 46.8337 453.985 46.5693C453.994 46.3005 454.004 46.0498 454.013 45.8174C454.026 45.585 454.035 45.3913 454.04 45.2363H453.979C453.947 45.3275 453.906 45.43 453.855 45.5439C453.81 45.6533 453.757 45.765 453.698 45.8789C453.644 45.9883 453.587 46.0954 453.527 46.2002C453.468 46.305 453.413 46.3939 453.363 46.4668L450.554 50.623H453.951ZM463.781 54H457.547V52.9336L459.939 50.3291C460.281 49.96 460.587 49.6227 460.855 49.3174C461.124 49.012 461.352 48.7135 461.539 48.4219C461.73 48.1302 461.876 47.8385 461.977 47.5469C462.077 47.2507 462.127 46.9294 462.127 46.583C462.127 46.3141 462.088 46.0771 462.011 45.8721C461.933 45.667 461.822 45.4938 461.676 45.3525C461.535 45.2067 461.366 45.0973 461.17 45.0244C460.974 44.9515 460.755 44.915 460.514 44.915C460.081 44.915 459.689 45.0039 459.338 45.1816C458.992 45.3548 458.661 45.5781 458.347 45.8516L457.649 45.0381C457.832 44.874 458.028 44.7214 458.237 44.5801C458.447 44.4342 458.673 44.3089 458.914 44.2041C459.156 44.0993 459.411 44.0173 459.68 43.958C459.949 43.8942 460.231 43.8623 460.527 43.8623C460.965 43.8623 461.359 43.9238 461.71 44.0469C462.065 44.1699 462.366 44.3477 462.612 44.5801C462.858 44.8079 463.048 45.0882 463.18 45.4209C463.316 45.749 463.385 46.1204 463.385 46.5352C463.385 46.9225 463.323 47.2917 463.2 47.6426C463.082 47.9935 462.915 48.3398 462.701 48.6816C462.492 49.0189 462.239 49.3584 461.942 49.7002C461.651 50.042 461.334 50.3975 460.992 50.7666L459.071 52.8105V52.8652H463.781V54Z" fill="#3F3F3F"/>
<path d="M336.701 84.7227H340.153V89.624C339.625 89.7926 339.087 89.9202 338.54 90.0068C337.993 90.0934 337.36 90.1367 336.64 90.1367C335.118 90.1367 333.939 89.6855 333.105 88.7832C332.271 87.8809 331.854 86.6208 331.854 85.0029C331.854 83.9593 332.062 83.0479 332.477 82.2686C332.891 81.4893 333.488 80.8945 334.268 80.4844C335.051 80.0697 335.974 79.8623 337.036 79.8623C338.103 79.8623 339.096 80.0583 340.017 80.4502L339.538 81.5439C338.659 81.1611 337.799 80.9697 336.961 80.9697C335.771 80.9697 334.842 81.3298 334.172 82.0498C333.502 82.7699 333.167 83.7542 333.167 85.0029C333.167 86.3245 333.488 87.3294 334.131 88.0176C334.773 88.7057 335.708 89.0498 336.934 89.0498C337.604 89.0498 338.257 88.9701 338.896 88.8105V85.8438H336.701V84.7227ZM348.91 86.2334C348.91 87.4593 348.6 88.4163 347.98 89.1045C347.361 89.7926 346.504 90.1367 345.41 90.1367C344.731 90.1367 344.13 89.9795 343.605 89.665C343.081 89.346 342.678 88.8903 342.396 88.2979C342.113 87.7054 341.972 87.0173 341.972 86.2334C341.972 85.012 342.277 84.0618 342.888 83.3828C343.498 82.6992 344.355 82.3574 345.458 82.3574C346.515 82.3574 347.354 82.7061 347.974 83.4033C348.598 84.096 348.91 85.0394 348.91 86.2334ZM343.243 86.2334C343.243 87.1768 343.428 87.8945 343.797 88.3867C344.171 88.8743 344.72 89.1182 345.444 89.1182C346.16 89.1182 346.704 88.8743 347.078 88.3867C347.452 87.8945 347.639 87.1768 347.639 86.2334C347.639 85.29 347.45 84.5814 347.071 84.1074C346.698 83.6289 346.148 83.3896 345.424 83.3896C343.97 83.3896 343.243 84.3376 343.243 86.2334ZM357.387 86.2334C357.387 87.4593 357.077 88.4163 356.457 89.1045C355.837 89.7926 354.98 90.1367 353.887 90.1367C353.208 90.1367 352.606 89.9795 352.082 89.665C351.558 89.346 351.155 88.8903 350.872 88.2979C350.59 87.7054 350.448 87.0173 350.448 86.2334C350.448 85.012 350.754 84.0618 351.364 83.3828C351.975 82.6992 352.832 82.3574 353.935 82.3574C354.992 82.3574 355.83 82.7061 356.45 83.4033C357.075 84.096 357.387 85.0394 357.387 86.2334ZM351.72 86.2334C351.72 87.1768 351.904 87.8945 352.273 88.3867C352.647 88.8743 353.196 89.1182 353.921 89.1182C354.636 89.1182 355.181 88.8743 355.555 88.3867C355.928 87.8945 356.115 87.1768 356.115 86.2334C356.115 85.29 355.926 84.5814 355.548 84.1074C355.174 83.6289 354.625 83.3896 353.9 83.3896C352.447 83.3896 351.72 84.3376 351.72 86.2334ZM362.001 90.1367C361.026 90.1367 360.269 89.7995 359.731 89.125C359.194 88.4505 358.925 87.4958 358.925 86.2607C358.925 85.0348 359.194 84.0778 359.731 83.3896C360.274 82.7015 361.035 82.3574 362.015 82.3574C363.022 82.3574 363.797 82.7266 364.339 83.4648H364.428C364.414 83.3737 364.396 83.1914 364.373 82.918C364.35 82.64 364.339 82.4531 364.339 82.3574V79.3633H365.569V90H364.578L364.394 88.9951H364.339C363.815 89.7562 363.035 90.1367 362.001 90.1367ZM362.199 89.1182C362.947 89.1182 363.491 88.9154 363.833 88.5098C364.179 88.0996 364.353 87.4297 364.353 86.5V86.2744C364.353 85.2308 364.177 84.488 363.826 84.0459C363.48 83.5993 362.933 83.376 362.186 83.376C361.552 83.376 361.062 83.6289 360.716 84.1348C360.369 84.6361 360.196 85.3538 360.196 86.2881C360.196 87.2178 360.367 87.9219 360.709 88.4004C361.055 88.8789 361.552 89.1182 362.199 89.1182ZM371.414 83.4512H369.521V90H368.29V83.4512H366.978V82.877L368.29 82.4531V82.0225C368.29 81.111 368.488 80.4274 368.885 79.9717C369.286 79.516 369.901 79.2881 370.73 79.2881C371.209 79.2881 371.694 79.3724 372.187 79.541L371.858 80.5049C371.435 80.3682 371.063 80.2998 370.744 80.2998C370.329 80.2998 370.022 80.4365 369.821 80.71C369.621 80.9834 369.521 81.4163 369.521 82.0088V82.4941H371.414V83.4512ZM377.416 90L377.177 88.9336H377.122C376.748 89.403 376.375 89.722 376.001 89.8906C375.632 90.0547 375.165 90.1367 374.6 90.1367C373.861 90.1367 373.283 89.943 372.863 89.5557C372.444 89.1683 372.234 88.6214 372.234 87.915C372.234 86.3929 373.435 85.5954 375.837 85.5225L377.108 85.4746V85.0303C377.108 84.4606 376.985 84.0413 376.739 83.7725C376.493 83.499 376.099 83.3623 375.557 83.3623C375.16 83.3623 374.784 83.4215 374.429 83.54C374.078 83.6585 373.747 83.7907 373.438 83.9365L373.062 83.0137C373.44 82.8132 373.852 82.6559 374.299 82.542C374.745 82.4281 375.188 82.3711 375.625 82.3711C376.532 82.3711 377.206 82.5716 377.648 82.9727C378.09 83.3737 378.312 84.0117 378.312 84.8867V90H377.416ZM374.88 89.1455C375.568 89.1455 376.108 88.9609 376.5 88.5918C376.896 88.2181 377.095 87.6895 377.095 87.0059V86.3291L375.987 86.377C375.126 86.4089 374.497 86.5456 374.101 86.7871C373.709 87.0286 373.513 87.4092 373.513 87.9287C373.513 88.3206 373.631 88.6214 373.868 88.8311C374.11 89.0407 374.447 89.1455 374.88 89.1455ZM381.873 90H380.643V82.4941H381.873V90ZM380.547 80.4639C380.547 80.1904 380.615 79.9922 380.752 79.8691C380.893 79.7461 381.066 79.6846 381.271 79.6846C381.463 79.6846 381.629 79.7461 381.771 79.8691C381.916 79.9922 381.989 80.1904 381.989 80.4639C381.989 80.7327 381.916 80.931 381.771 81.0586C381.629 81.1862 381.463 81.25 381.271 81.25C381.066 81.25 380.893 81.1862 380.752 81.0586C380.615 80.931 380.547 80.7327 380.547 80.4639ZM386.761 89.1318C386.92 89.1318 387.107 89.1159 387.321 89.084C387.535 89.0521 387.697 89.0156 387.807 88.9746V89.918C387.693 89.9681 387.515 90.016 387.273 90.0615C387.036 90.1117 386.795 90.1367 386.549 90.1367C385.081 90.1367 384.348 89.3643 384.348 87.8193V83.4512H383.288V82.8633L384.361 82.3711L384.854 80.7715H385.585V82.4941H387.752V83.4512H385.585V87.7852C385.585 88.2181 385.688 88.5508 385.893 88.7832C386.102 89.0156 386.392 89.1318 386.761 89.1318ZM394.424 90V85.2012C394.424 84.5905 394.287 84.137 394.014 83.8408C393.745 83.54 393.321 83.3896 392.742 83.3896C391.981 83.3896 391.423 83.6016 391.067 84.0254C390.716 84.4492 390.541 85.1488 390.541 86.124V90H389.311V79.3633H390.541V82.4805C390.541 82.8906 390.518 83.2415 390.473 83.5332H390.555C390.778 83.1686 391.095 82.8838 391.505 82.6787C391.915 82.4736 392.378 82.3711 392.893 82.3711C393.804 82.3711 394.49 82.5898 394.95 83.0273C395.41 83.4603 395.641 84.1553 395.641 85.1123V90H394.424ZM397.972 89.2412C397.972 89.068 397.994 88.9222 398.04 88.8037C398.086 88.6807 398.147 88.5827 398.225 88.5098C398.302 88.4323 398.393 88.3776 398.498 88.3457C398.603 88.3092 398.717 88.291 398.84 88.291C398.958 88.291 399.07 88.3092 399.175 88.3457C399.284 88.3776 399.378 88.4323 399.455 88.5098C399.533 88.5827 399.594 88.6807 399.64 88.8037C399.685 88.9222 399.708 89.068 399.708 89.2412C399.708 89.4098 399.685 89.5557 399.64 89.6787C399.594 89.7972 399.533 89.8952 399.455 89.9727C399.378 90.0501 399.284 90.1071 399.175 90.1436C399.07 90.18 398.958 90.1982 398.84 90.1982C398.717 90.1982 398.603 90.18 398.498 90.1436C398.393 90.1071 398.302 90.0501 398.225 89.9727C398.147 89.8952 398.086 89.7972 398.04 89.6787C397.994 89.5557 397.972 89.4098 397.972 89.2412ZM397.972 83.2529C397.972 83.0752 397.994 82.9271 398.04 82.8086C398.086 82.6855 398.147 82.5876 398.225 82.5146C398.302 82.4372 398.393 82.3825 398.498 82.3506C398.603 82.3187 398.717 82.3027 398.84 82.3027C398.958 82.3027 399.07 82.3187 399.175 82.3506C399.284 82.3825 399.378 82.4372 399.455 82.5146C399.533 82.5876 399.594 82.6855 399.64 82.8086C399.685 82.9271 399.708 83.0752 399.708 83.2529C399.708 83.4215 399.685 83.5651 399.64 83.6836C399.594 83.8021 399.533 83.9001 399.455 83.9775C399.378 84.055 399.284 84.112 399.175 84.1484C399.07 84.1849 398.958 84.2031 398.84 84.2031C398.717 84.2031 398.603 84.1849 398.498 84.1484C398.393 84.112 398.302 84.055 398.225 83.9775C398.147 83.9001 398.086 83.8021 398.04 83.6836C397.994 83.5651 397.972 83.4215 397.972 83.2529Z" fill="#666666"/>
<path d="M422.506 84.9893C422.506 85.7959 422.447 86.5182 422.328 87.1562C422.214 87.7943 422.027 88.3343 421.768 88.7764C421.512 89.2184 421.182 89.5557 420.776 89.7881C420.371 90.0205 419.879 90.1367 419.3 90.1367C418.762 90.1367 418.293 90.0205 417.892 89.7881C417.495 89.5557 417.165 89.2184 416.9 88.7764C416.641 88.3343 416.445 87.7943 416.312 87.1562C416.185 86.5182 416.121 85.7959 416.121 84.9893C416.121 84.1826 416.178 83.4603 416.292 82.8223C416.41 82.1842 416.595 81.6465 416.846 81.209C417.101 80.7669 417.429 80.4297 417.83 80.1973C418.236 79.9648 418.726 79.8486 419.3 79.8486C419.842 79.8486 420.314 79.9648 420.715 80.1973C421.116 80.4251 421.449 80.7601 421.713 81.2021C421.977 81.6396 422.175 82.1774 422.308 82.8154C422.44 83.4535 422.506 84.1781 422.506 84.9893ZM417.386 84.9893C417.386 85.6729 417.42 86.2699 417.488 86.7803C417.557 87.2907 417.666 87.7168 417.816 88.0586C417.967 88.3958 418.163 88.651 418.404 88.8242C418.65 88.9928 418.949 89.0771 419.3 89.0771C419.651 89.0771 419.949 88.9928 420.195 88.8242C420.441 88.6556 420.642 88.4027 420.797 88.0654C420.956 87.7282 421.07 87.3044 421.139 86.7939C421.212 86.279 421.248 85.6774 421.248 84.9893C421.248 84.3057 421.212 83.7087 421.139 83.1982C421.07 82.6878 420.956 82.264 420.797 81.9268C420.642 81.5895 420.441 81.3366 420.195 81.168C419.949 80.9993 419.651 80.915 419.3 80.915C418.949 80.915 418.65 80.9993 418.404 81.168C418.163 81.3366 417.967 81.5895 417.816 81.9268C417.666 82.264 417.557 82.6878 417.488 83.1982C417.42 83.7087 417.386 84.3057 417.386 84.9893ZM424.167 89.2412C424.167 89.068 424.19 88.9222 424.235 88.8037C424.281 88.6807 424.342 88.5827 424.42 88.5098C424.497 88.4323 424.589 88.3776 424.693 88.3457C424.798 88.3092 424.912 88.291 425.035 88.291C425.154 88.291 425.265 88.3092 425.37 88.3457C425.479 88.3776 425.573 88.4323 425.65 88.5098C425.728 88.5827 425.789 88.6807 425.835 88.8037C425.881 88.9222 425.903 89.068 425.903 89.2412C425.903 89.4098 425.881 89.5557 425.835 89.6787C425.789 89.7972 425.728 89.8952 425.65 89.9727C425.573 90.0501 425.479 90.1071 425.37 90.1436C425.265 90.18 425.154 90.1982 425.035 90.1982C424.912 90.1982 424.798 90.18 424.693 90.1436C424.589 90.1071 424.497 90.0501 424.42 89.9727C424.342 89.8952 424.281 89.7972 424.235 89.6787C424.19 89.5557 424.167 89.4098 424.167 89.2412ZM433.949 84.2715C433.949 84.75 433.924 85.2285 433.874 85.707C433.828 86.181 433.744 86.6344 433.621 87.0674C433.503 87.5003 433.339 87.9059 433.129 88.2842C432.919 88.6579 432.653 88.9814 432.329 89.2549C432.006 89.5283 431.618 89.7448 431.167 89.9043C430.716 90.0592 430.187 90.1367 429.581 90.1367C429.494 90.1367 429.399 90.1344 429.294 90.1299C429.189 90.1253 429.084 90.1162 428.979 90.1025C428.875 90.0934 428.772 90.082 428.672 90.0684C428.572 90.0547 428.483 90.0365 428.405 90.0137V88.9473C428.565 89.0065 428.745 89.0498 428.945 89.0771C429.146 89.1045 429.344 89.1182 429.54 89.1182C430.155 89.1182 430.661 89.0111 431.058 88.7969C431.454 88.5827 431.769 88.2933 432.001 87.9287C432.233 87.5596 432.397 87.1312 432.493 86.6436C432.593 86.1559 432.655 85.641 432.678 85.0986H432.589C432.498 85.2627 432.388 85.4154 432.261 85.5566C432.133 85.6979 431.983 85.821 431.81 85.9258C431.636 86.0306 431.44 86.1126 431.222 86.1719C431.003 86.2311 430.759 86.2607 430.49 86.2607C430.057 86.2607 429.665 86.1947 429.314 86.0625C428.964 85.9258 428.665 85.7275 428.419 85.4678C428.173 85.208 427.981 84.8913 427.845 84.5176C427.713 84.1393 427.646 83.7087 427.646 83.2256C427.646 82.7061 427.717 82.2389 427.858 81.8242C428.004 81.4049 428.207 81.0518 428.467 80.7646C428.731 80.473 429.05 80.2497 429.424 80.0947C429.802 79.9398 430.224 79.8623 430.688 79.8623C431.149 79.8623 431.577 79.9512 431.974 80.1289C432.37 80.3066 432.714 80.5778 433.006 80.9424C433.298 81.307 433.528 81.7673 433.696 82.3232C433.865 82.8747 433.949 83.5241 433.949 84.2715ZM430.702 80.915C430.429 80.915 430.178 80.9606 429.95 81.0518C429.727 81.1429 429.533 81.2842 429.369 81.4756C429.205 81.667 429.077 81.9085 428.986 82.2002C428.9 82.4873 428.856 82.8291 428.856 83.2256C428.856 83.5446 428.893 83.8317 428.966 84.0869C429.043 84.3376 429.157 84.5518 429.308 84.7295C429.458 84.9072 429.645 85.0439 429.868 85.1396C430.096 85.2354 430.36 85.2832 430.661 85.2832C430.971 85.2832 431.251 85.2308 431.502 85.126C431.753 85.0166 431.967 84.8776 432.145 84.709C432.322 84.5358 432.459 84.3398 432.555 84.1211C432.655 83.9023 432.705 83.6836 432.705 83.4648C432.705 83.1595 432.662 82.8564 432.575 82.5557C432.493 82.2503 432.368 81.9769 432.199 81.7354C432.035 81.4893 431.828 81.291 431.577 81.1406C431.326 80.9902 431.035 80.915 430.702 80.915ZM441.523 90H435.289V88.9336L437.682 86.3291C438.023 85.96 438.329 85.6227 438.598 85.3174C438.867 85.012 439.094 84.7135 439.281 84.4219C439.473 84.1302 439.618 83.8385 439.719 83.5469C439.819 83.2507 439.869 82.9294 439.869 82.583C439.869 82.3141 439.83 82.0771 439.753 81.8721C439.675 81.667 439.564 81.4938 439.418 81.3525C439.277 81.2067 439.108 81.0973 438.912 81.0244C438.716 80.9515 438.497 80.915 438.256 80.915C437.823 80.915 437.431 81.0039 437.08 81.1816C436.734 81.3548 436.403 81.5781 436.089 81.8516L435.392 81.0381C435.574 80.874 435.77 80.7214 435.979 80.5801C436.189 80.4342 436.415 80.3089 436.656 80.2041C436.898 80.0993 437.153 80.0173 437.422 79.958C437.691 79.8942 437.973 79.8623 438.27 79.8623C438.707 79.8623 439.101 79.9238 439.452 80.0469C439.808 80.1699 440.108 80.3477 440.354 80.5801C440.601 80.8079 440.79 81.0882 440.922 81.4209C441.059 81.749 441.127 82.1204 441.127 82.5352C441.127 82.9225 441.065 83.2917 440.942 83.6426C440.824 83.9935 440.658 84.3398 440.443 84.6816C440.234 85.0189 439.981 85.3584 439.685 85.7002C439.393 86.042 439.076 86.3975 438.734 86.7666L436.813 88.8105V88.8652H441.523V90ZM449.234 90H443V88.9336L445.393 86.3291C445.734 85.96 446.04 85.6227 446.309 85.3174C446.577 85.012 446.805 84.7135 446.992 84.4219C447.184 84.1302 447.329 83.8385 447.43 83.5469C447.53 83.2507 447.58 82.9294 447.58 82.583C447.58 82.3141 447.541 82.0771 447.464 81.8721C447.386 81.667 447.275 81.4938 447.129 81.3525C446.988 81.2067 446.819 81.0973 446.623 81.0244C446.427 80.9515 446.208 80.915 445.967 80.915C445.534 80.915 445.142 81.0039 444.791 81.1816C444.445 81.3548 444.114 81.5781 443.8 81.8516L443.103 81.0381C443.285 80.874 443.481 80.7214 443.69 80.5801C443.9 80.4342 444.126 80.3089 444.367 80.2041C444.609 80.0993 444.864 80.0173 445.133 79.958C445.402 79.8942 445.684 79.8623 445.98 79.8623C446.418 79.8623 446.812 79.9238 447.163 80.0469C447.519 80.1699 447.819 80.3477 448.065 80.5801C448.312 80.8079 448.501 81.0882 448.633 81.4209C448.77 81.749 448.838 82.1204 448.838 82.5352C448.838 82.9225 448.776 83.2917 448.653 83.6426C448.535 83.9935 448.368 84.3398 448.154 84.6816C447.945 85.0189 447.692 85.3584 447.396 85.7002C447.104 86.042 446.787 86.3975 446.445 86.7666L444.524 88.8105V88.8652H449.234V90ZM457.485 87.7578H456.029V90H454.826V87.7578H450.212V86.6709L454.744 79.9512H456.029V86.623H457.485V87.7578ZM454.826 86.623V84.1895C454.826 83.9342 454.828 83.6676 454.833 83.3896C454.842 83.1071 454.851 82.8337 454.86 82.5693C454.869 82.3005 454.879 82.0498 454.888 81.8174C454.901 81.585 454.91 81.3913 454.915 81.2363H454.854C454.822 81.3275 454.781 81.43 454.73 81.5439C454.685 81.6533 454.632 81.765 454.573 81.8789C454.519 81.9883 454.462 82.0954 454.402 82.2002C454.343 82.305 454.288 82.3939 454.238 82.4668L451.429 86.623H454.826ZM461.491 83.8682C461.942 83.8682 462.362 83.932 462.749 84.0596C463.141 84.1826 463.48 84.3672 463.768 84.6133C464.059 84.8594 464.287 85.1647 464.451 85.5293C464.615 85.8939 464.697 86.3154 464.697 86.7939C464.697 87.3135 464.62 87.7806 464.465 88.1953C464.31 88.61 464.08 88.9609 463.774 89.248C463.469 89.5352 463.091 89.7562 462.64 89.9111C462.193 90.0615 461.678 90.1367 461.095 90.1367C460.862 90.1367 460.632 90.1253 460.404 90.1025C460.181 90.0798 459.965 90.0456 459.755 90C459.55 89.959 459.354 89.9043 459.167 89.8359C458.98 89.7676 458.812 89.6878 458.661 89.5967V88.4209C458.812 88.5257 458.987 88.6191 459.188 88.7012C459.393 88.7832 459.607 88.8516 459.83 88.9062C460.053 88.9609 460.277 89.0042 460.5 89.0361C460.728 89.0635 460.938 89.0771 461.129 89.0771C461.489 89.0771 461.81 89.0361 462.093 88.9541C462.375 88.8675 462.615 88.7354 462.811 88.5576C463.007 88.3799 463.157 88.1566 463.262 87.8877C463.367 87.6188 463.419 87.2998 463.419 86.9307C463.419 86.279 463.218 85.7822 462.817 85.4404C462.416 85.0941 461.833 84.9209 461.067 84.9209C460.944 84.9209 460.81 84.9277 460.664 84.9414C460.523 84.9505 460.379 84.9642 460.233 84.9824C460.092 85.0007 459.955 85.0212 459.823 85.0439C459.696 85.0622 459.584 85.0804 459.488 85.0986L458.873 84.709L459.249 80.0059H463.966V81.1406H460.329L460.062 84.0049C460.208 83.9775 460.4 83.9479 460.637 83.916C460.878 83.8841 461.163 83.8682 461.491 83.8682Z" fill="#323232"/>
</svg>
