<svg width="169" height="122" viewBox="0 0 169 122" fill="none" xmlns="http://www.w3.org/2000/svg">
<path d="M88.532 12L85.947 5.114H85.903C85.925 5.34133 85.9433 5.64933 85.958 6.038C85.9727 6.41933 85.98 6.819 85.98 7.237V12H85.067V4.146H86.53L88.95 10.581H88.994L91.458 4.146H92.91V12H91.931V7.171C91.931 6.78967 91.9383 6.412 91.953 6.038C91.975 5.664 91.9933 5.35967 92.008 5.125H91.964L89.346 12H88.532ZM95.4095 3.893C95.5562 3.893 95.6845 3.94433 95.7945 4.047C95.9118 4.14233 95.9705 4.29633 95.9705 4.509C95.9705 4.71433 95.9118 4.86833 95.7945 4.971C95.6845 5.07367 95.5562 5.125 95.4095 5.125C95.2482 5.125 95.1125 5.07367 95.0025 4.971C94.8925 4.86833 94.8375 4.71433 94.8375 4.509C94.8375 4.29633 94.8925 4.14233 95.0025 4.047C95.1125 3.94433 95.2482 3.893 95.4095 3.893ZM95.8825 6.104V12H94.9145V6.104H95.8825ZM101.589 10.372C101.589 10.944 101.377 11.3767 100.951 11.67C100.526 11.9633 99.9541 12.11 99.2354 12.11C98.8248 12.11 98.4691 12.077 98.1684 12.011C97.8751 11.945 97.6148 11.8533 97.3874 11.736V10.856C97.6221 10.9733 97.9044 11.0833 98.2344 11.186C98.5718 11.2813 98.9128 11.329 99.2574 11.329C99.7488 11.329 100.104 11.252 100.324 11.098C100.544 10.9367 100.654 10.724 100.654 10.46C100.654 10.3133 100.614 10.1813 100.533 10.064C100.453 9.94667 100.306 9.82933 100.093 9.712C99.8881 9.59467 99.5911 9.46267 99.2024 9.316C98.8211 9.16933 98.4948 9.02267 98.2234 8.876C97.9521 8.72933 97.7431 8.55333 97.5964 8.348C97.4498 8.14267 97.3764 7.87867 97.3764 7.556C97.3764 7.05733 97.5781 6.67233 97.9814 6.401C98.3921 6.12967 98.9274 5.994 99.5874 5.994C99.9468 5.994 100.28 6.03067 100.588 6.104C100.904 6.17 101.197 6.26533 101.468 6.39L101.138 7.16C100.889 7.05733 100.629 6.96933 100.357 6.896C100.086 6.82267 99.8074 6.786 99.5214 6.786C99.1254 6.786 98.8211 6.852 98.6084 6.984C98.4031 7.10867 98.3004 7.281 98.3004 7.501C98.3004 7.66233 98.3481 7.80167 98.4434 7.919C98.5388 8.029 98.6964 8.139 98.9164 8.249C99.1438 8.35167 99.4444 8.47633 99.8184 8.623C100.192 8.76233 100.511 8.90533 100.775 9.052C101.039 9.19867 101.241 9.37833 101.38 9.591C101.52 9.79633 101.589 10.0567 101.589 10.372ZM105.379 12.11C104.858 12.11 104.393 12.0037 103.982 11.791C103.579 11.5783 103.26 11.2483 103.025 10.801C102.798 10.3537 102.684 9.78167 102.684 9.085C102.684 8.359 102.805 7.76867 103.047 7.314C103.289 6.85933 103.615 6.52567 104.026 6.313C104.444 6.10033 104.917 5.994 105.445 5.994C105.746 5.994 106.035 6.027 106.314 6.093C106.593 6.15167 106.82 6.225 106.996 6.313L106.699 7.116C106.523 7.05 106.318 6.98767 106.083 6.929C105.848 6.87033 105.628 6.841 105.423 6.841C104.264 6.841 103.685 7.58533 103.685 9.074C103.685 9.78533 103.824 10.3317 104.103 10.713C104.389 11.087 104.811 11.274 105.368 11.274C105.691 11.274 105.973 11.241 106.215 11.175C106.464 11.109 106.692 11.0283 106.897 10.933V11.791C106.699 11.8937 106.479 11.9707 106.237 12.022C106.002 12.0807 105.716 12.11 105.379 12.11ZM109.267 12H108.299V3.64H109.267V12ZM113.368 6.005C114.087 6.005 114.619 6.16267 114.963 6.478C115.308 6.79333 115.48 7.29567 115.48 7.985V12H114.776L114.589 11.164H114.545C114.289 11.4867 114.017 11.725 113.731 11.879C113.453 12.033 113.064 12.11 112.565 12.11C112.03 12.11 111.586 11.9707 111.234 11.692C110.882 11.406 110.706 10.9623 110.706 10.361C110.706 9.77433 110.937 9.32333 111.399 9.008C111.861 8.68533 112.573 8.50933 113.533 8.48L114.534 8.447V8.095C114.534 7.60367 114.428 7.26267 114.215 7.072C114.003 6.88133 113.702 6.786 113.313 6.786C113.005 6.786 112.712 6.83367 112.433 6.929C112.155 7.017 111.894 7.11967 111.652 7.237L111.355 6.511C111.612 6.37167 111.916 6.25433 112.268 6.159C112.62 6.05633 112.987 6.005 113.368 6.005ZM114.523 9.118L113.654 9.151C112.921 9.18033 112.411 9.29767 112.125 9.503C111.847 9.70833 111.707 9.998 111.707 10.372C111.707 10.702 111.806 10.944 112.004 11.098C112.21 11.252 112.47 11.329 112.785 11.329C113.284 11.329 113.698 11.1933 114.028 10.922C114.358 10.6433 114.523 10.218 114.523 9.646V9.118ZM121.14 10.372C121.14 10.944 120.928 11.3767 120.502 11.67C120.077 11.9633 119.505 12.11 118.786 12.11C118.376 12.11 118.02 12.077 117.719 12.011C117.426 11.945 117.166 11.8533 116.938 11.736V10.856C117.173 10.9733 117.455 11.0833 117.785 11.186C118.123 11.2813 118.464 11.329 118.808 11.329C119.3 11.329 119.655 11.252 119.875 11.098C120.095 10.9367 120.205 10.724 120.205 10.46C120.205 10.3133 120.165 10.1813 120.084 10.064C120.004 9.94667 119.857 9.82933 119.644 9.712C119.439 9.59467 119.142 9.46267 118.753 9.316C118.372 9.16933 118.046 9.02267 117.774 8.876C117.503 8.72933 117.294 8.55333 117.147 8.348C117.001 8.14267 116.927 7.87867 116.927 7.556C116.927 7.05733 117.129 6.67233 117.532 6.401C117.943 6.12967 118.478 5.994 119.138 5.994C119.498 5.994 119.831 6.03067 120.139 6.104C120.455 6.17 120.748 6.26533 121.019 6.39L120.689 7.16C120.44 7.05733 120.18 6.96933 119.908 6.896C119.637 6.82267 119.358 6.786 119.072 6.786C118.676 6.786 118.372 6.852 118.159 6.984C117.954 7.10867 117.851 7.281 117.851 7.501C117.851 7.66233 117.899 7.80167 117.994 7.919C118.09 8.029 118.247 8.139 118.467 8.249C118.695 8.35167 118.995 8.47633 119.369 8.623C119.743 8.76233 120.062 8.90533 120.326 9.052C120.59 9.19867 120.792 9.37833 120.931 9.591C121.071 9.79633 121.14 10.0567 121.14 10.372ZM126.404 10.372C126.404 10.944 126.191 11.3767 125.766 11.67C125.341 11.9633 124.769 12.11 124.05 12.11C123.639 12.11 123.284 12.077 122.983 12.011C122.69 11.945 122.429 11.8533 122.202 11.736V10.856C122.437 10.9733 122.719 11.0833 123.049 11.186C123.386 11.2813 123.727 11.329 124.072 11.329C124.563 11.329 124.919 11.252 125.139 11.098C125.359 10.9367 125.469 10.724 125.469 10.46C125.469 10.3133 125.429 10.1813 125.348 10.064C125.267 9.94667 125.121 9.82933 124.908 9.712C124.703 9.59467 124.406 9.46267 124.017 9.316C123.636 9.16933 123.309 9.02267 123.038 8.876C122.767 8.72933 122.558 8.55333 122.411 8.348C122.264 8.14267 122.191 7.87867 122.191 7.556C122.191 7.05733 122.393 6.67233 122.796 6.401C123.207 6.12967 123.742 5.994 124.402 5.994C124.761 5.994 125.095 6.03067 125.403 6.104C125.718 6.17 126.012 6.26533 126.283 6.39L125.953 7.16C125.704 7.05733 125.443 6.96933 125.172 6.896C124.901 6.82267 124.622 6.786 124.336 6.786C123.94 6.786 123.636 6.852 123.423 6.984C123.218 7.10867 123.115 7.281 123.115 7.501C123.115 7.66233 123.163 7.80167 123.258 7.919C123.353 8.029 123.511 8.139 123.731 8.249C123.958 8.35167 124.259 8.47633 124.633 8.623C125.007 8.76233 125.326 8.90533 125.59 9.052C125.854 9.19867 126.056 9.37833 126.195 9.591C126.334 9.79633 126.404 10.0567 126.404 10.372ZM128.324 3.893C128.47 3.893 128.599 3.94433 128.709 4.047C128.826 4.14233 128.885 4.29633 128.885 4.509C128.885 4.71433 128.826 4.86833 128.709 4.971C128.599 5.07367 128.47 5.125 128.324 5.125C128.162 5.125 128.027 5.07367 127.917 4.971C127.807 4.86833 127.752 4.71433 127.752 4.509C127.752 4.29633 127.807 4.14233 127.917 4.047C128.027 3.94433 128.162 3.893 128.324 3.893ZM128.797 6.104V12H127.829V6.104H128.797ZM133.381 6.852H131.896V12H130.928V6.852H129.894V6.401L130.928 6.071V5.73C130.928 4.96733 131.097 4.421 131.434 4.091C131.772 3.75367 132.241 3.585 132.842 3.585C133.077 3.585 133.29 3.607 133.48 3.651C133.678 3.68767 133.847 3.73167 133.986 3.783L133.733 4.542C133.616 4.50533 133.48 4.46867 133.326 4.432C133.172 4.39533 133.015 4.377 132.853 4.377C132.531 4.377 132.289 4.487 132.127 4.707C131.973 4.91967 131.896 5.257 131.896 5.719V6.104H133.381V6.852ZM134.943 3.893C135.09 3.893 135.218 3.94433 135.328 4.047C135.446 4.14233 135.504 4.29633 135.504 4.509C135.504 4.71433 135.446 4.86833 135.328 4.971C135.218 5.07367 135.09 5.125 134.943 5.125C134.782 5.125 134.646 5.07367 134.536 4.971C134.426 4.86833 134.371 4.71433 134.371 4.509C134.371 4.29633 134.426 4.14233 134.536 4.047C134.646 3.94433 134.782 3.893 134.943 3.893ZM135.416 6.104V12H134.448V6.104H135.416ZM139.559 5.994C140.065 5.994 140.497 6.104 140.857 6.324C141.223 6.544 141.502 6.85567 141.693 7.259C141.891 7.655 141.99 8.12067 141.99 8.656V9.239H137.953C137.967 9.90633 138.136 10.416 138.459 10.768C138.789 11.1127 139.247 11.285 139.834 11.285C140.208 11.285 140.538 11.252 140.824 11.186C141.117 11.1127 141.418 11.01 141.726 10.878V11.725C141.425 11.857 141.128 11.9523 140.835 12.011C140.541 12.077 140.193 12.11 139.79 12.11C139.232 12.11 138.737 11.9963 138.305 11.769C137.879 11.5417 137.546 11.2043 137.304 10.757C137.069 10.3023 136.952 9.74867 136.952 9.096C136.952 8.45067 137.058 7.897 137.271 7.435C137.491 6.973 137.795 6.61733 138.184 6.368C138.58 6.11867 139.038 5.994 139.559 5.994ZM139.548 6.786C139.086 6.786 138.719 6.93633 138.448 7.237C138.184 7.53033 138.026 7.941 137.975 8.469H140.978C140.97 7.97033 140.853 7.567 140.626 7.259C140.398 6.94367 140.039 6.786 139.548 6.786ZM145.581 12.11C144.847 12.11 144.261 11.857 143.821 11.351C143.381 10.8377 143.161 10.075 143.161 9.063C143.161 8.051 143.381 7.28833 143.821 6.775C144.268 6.25433 144.858 5.994 145.592 5.994C146.046 5.994 146.417 6.07833 146.703 6.247C146.996 6.41567 147.234 6.621 147.418 6.863H147.484C147.476 6.76767 147.462 6.62833 147.44 6.445C147.425 6.25433 147.418 6.104 147.418 5.994V3.64H148.386V12H147.605L147.462 11.208H147.418C147.242 11.4573 147.007 11.67 146.714 11.846C146.42 12.022 146.043 12.11 145.581 12.11ZM145.735 11.307C146.358 11.307 146.794 11.1383 147.044 10.801C147.3 10.4563 147.429 9.93933 147.429 9.25V9.074C147.429 8.34067 147.308 7.77967 147.066 7.391C146.824 6.995 146.376 6.797 145.724 6.797C145.203 6.797 144.811 7.006 144.547 7.424C144.29 7.83467 144.162 8.38833 144.162 9.085C144.162 9.789 144.29 10.3353 144.547 10.724C144.811 11.1127 145.207 11.307 145.735 11.307ZM87.025 20.994C87.4137 20.994 87.762 21.0673 88.07 21.214C88.3853 21.3607 88.653 21.5843 88.873 21.885H88.928L89.06 21.104H89.83V27.099C89.83 27.9423 89.6137 28.5767 89.181 29.002C88.7557 29.4273 88.092 29.64 87.19 29.64C86.3247 29.64 85.617 29.5153 85.067 29.266V28.375C85.6463 28.683 86.3723 28.837 87.245 28.837C87.751 28.837 88.147 28.6867 88.433 28.386C88.7263 28.0927 88.873 27.6893 88.873 27.176V26.945C88.873 26.857 88.8767 26.7323 88.884 26.571C88.8913 26.4023 88.8987 26.285 88.906 26.219H88.862C88.466 26.813 87.8573 27.11 87.036 27.11C86.2733 27.11 85.6757 26.8423 85.243 26.307C84.8177 25.7717 84.605 25.0237 84.605 24.063C84.605 23.1243 84.8177 22.38 85.243 21.83C85.6757 21.2727 86.2697 20.994 87.025 20.994ZM87.157 21.808C86.6657 21.808 86.2843 22.006 86.013 22.402C85.7417 22.7907 85.606 23.348 85.606 24.074C85.606 24.8 85.738 25.3573 86.002 25.746C86.2733 26.1273 86.6657 26.318 87.179 26.318C87.773 26.318 88.2057 26.1603 88.477 25.845C88.7483 25.5223 88.884 25.0053 88.884 24.294V24.063C88.884 23.2563 88.7447 22.6807 88.466 22.336C88.1873 21.984 87.751 21.808 87.157 21.808ZM96.8286 24.041C96.8286 25.0163 96.5792 25.7717 96.0806 26.307C95.5892 26.8423 94.9219 27.11 94.0786 27.11C93.5579 27.11 93.0922 26.9927 92.6816 26.758C92.2782 26.516 91.9592 26.1677 91.7246 25.713C91.4899 25.251 91.3726 24.6937 91.3726 24.041C91.3726 23.0657 91.6182 22.314 92.1096 21.786C92.6009 21.258 93.2682 20.994 94.1116 20.994C94.6469 20.994 95.1162 21.115 95.5196 21.357C95.9302 21.5917 96.2492 21.9363 96.4766 22.391C96.7112 22.8383 96.8286 23.3883 96.8286 24.041ZM92.3736 24.041C92.3736 24.7377 92.5092 25.2913 92.7806 25.702C93.0592 26.1053 93.4992 26.307 94.1006 26.307C94.6946 26.307 95.1309 26.1053 95.4096 25.702C95.6882 25.2913 95.8276 24.7377 95.8276 24.041C95.8276 23.3443 95.6882 22.798 95.4096 22.402C95.1309 22.006 94.6909 21.808 94.0896 21.808C93.4882 21.808 93.0519 22.006 92.7806 22.402C92.5092 22.798 92.3736 23.3443 92.3736 24.041ZM103.489 24.041C103.489 25.0163 103.239 25.7717 102.741 26.307C102.249 26.8423 101.582 27.11 100.739 27.11C100.218 27.11 99.7524 26.9927 99.3417 26.758C98.9384 26.516 98.6194 26.1677 98.3847 25.713C98.1501 25.251 98.0327 24.6937 98.0327 24.041C98.0327 23.0657 98.2784 22.314 98.7697 21.786C99.2611 21.258 99.9284 20.994 100.772 20.994C101.307 20.994 101.776 21.115 102.18 21.357C102.59 21.5917 102.909 21.9363 103.137 22.391C103.371 22.8383 103.489 23.3883 103.489 24.041ZM99.0337 24.041C99.0337 24.7377 99.1694 25.2913 99.4407 25.702C99.7194 26.1053 100.159 26.307 100.761 26.307C101.355 26.307 101.791 26.1053 102.07 25.702C102.348 25.2913 102.488 24.7377 102.488 24.041C102.488 23.3443 102.348 22.798 102.07 22.402C101.791 22.006 101.351 21.808 100.75 21.808C100.148 21.808 99.7121 22.006 99.4407 22.402C99.1694 22.798 99.0337 23.3443 99.0337 24.041ZM107.113 27.11C106.38 27.11 105.793 26.857 105.353 26.351C104.913 25.8377 104.693 25.075 104.693 24.063C104.693 23.051 104.913 22.2883 105.353 21.775C105.8 21.2543 106.391 20.994 107.124 20.994C107.579 20.994 107.949 21.0783 108.235 21.247C108.528 21.4157 108.767 21.621 108.95 21.863H109.016C109.009 21.7677 108.994 21.6283 108.972 21.445C108.957 21.2543 108.95 21.104 108.95 20.994V18.64H109.918V27H109.137L108.994 26.208H108.95C108.774 26.4573 108.539 26.67 108.246 26.846C107.953 27.022 107.575 27.11 107.113 27.11ZM107.267 26.307C107.89 26.307 108.327 26.1383 108.576 25.801C108.833 25.4563 108.961 24.9393 108.961 24.25V24.074C108.961 23.3407 108.84 22.7797 108.598 22.391C108.356 21.995 107.909 21.797 107.256 21.797C106.735 21.797 106.343 22.006 106.079 22.424C105.822 22.8347 105.694 23.3883 105.694 24.085C105.694 24.789 105.822 25.3353 106.079 25.724C106.343 26.1127 106.739 26.307 107.267 26.307ZM116.925 20.994C117.431 20.994 117.864 21.104 118.223 21.324C118.59 21.544 118.868 21.8557 119.059 22.259C119.257 22.655 119.356 23.1207 119.356 23.656V24.239H115.319C115.334 24.9063 115.502 25.416 115.825 25.768C116.155 26.1127 116.613 26.285 117.2 26.285C117.574 26.285 117.904 26.252 118.19 26.186C118.483 26.1127 118.784 26.01 119.092 25.878V26.725C118.791 26.857 118.494 26.9523 118.201 27.011C117.908 27.077 117.559 27.11 117.156 27.11C116.599 27.11 116.104 26.9963 115.671 26.769C115.246 26.5417 114.912 26.2043 114.67 25.757C114.435 25.3023 114.318 24.7487 114.318 24.096C114.318 23.4507 114.424 22.897 114.637 22.435C114.857 21.973 115.161 21.6173 115.55 21.368C115.946 21.1187 116.404 20.994 116.925 20.994ZM116.914 21.786C116.452 21.786 116.085 21.9363 115.814 22.237C115.55 22.5303 115.392 22.941 115.341 23.469H118.344C118.337 22.9703 118.219 22.567 117.992 22.259C117.765 21.9437 117.405 21.786 116.914 21.786ZM122.947 27.11C122.214 27.11 121.627 26.857 121.187 26.351C120.747 25.8377 120.527 25.075 120.527 24.063C120.527 23.051 120.747 22.2883 121.187 21.775C121.634 21.2543 122.225 20.994 122.958 20.994C123.413 20.994 123.783 21.0783 124.069 21.247C124.362 21.4157 124.601 21.621 124.784 21.863H124.85C124.843 21.7677 124.828 21.6283 124.806 21.445C124.791 21.2543 124.784 21.104 124.784 20.994V18.64H125.752V27H124.971L124.828 26.208H124.784C124.608 26.4573 124.373 26.67 124.08 26.846C123.787 27.022 123.409 27.11 122.947 27.11ZM123.101 26.307C123.724 26.307 124.161 26.1383 124.41 25.801C124.667 25.4563 124.795 24.9393 124.795 24.25V24.074C124.795 23.3407 124.674 22.7797 124.432 22.391C124.19 21.995 123.743 21.797 123.09 21.797C122.569 21.797 122.177 22.006 121.913 22.424C121.656 22.8347 121.528 23.3883 121.528 24.085C121.528 24.789 121.656 25.3353 121.913 25.724C122.177 26.1127 122.573 26.307 123.101 26.307ZM128.119 18.893C128.266 18.893 128.394 18.9443 128.504 19.047C128.622 19.1423 128.68 19.2963 128.68 19.509C128.68 19.7143 128.622 19.8683 128.504 19.971C128.394 20.0737 128.266 20.125 128.119 20.125C127.958 20.125 127.822 20.0737 127.712 19.971C127.602 19.8683 127.547 19.7143 127.547 19.509C127.547 19.2963 127.602 19.1423 127.712 19.047C127.822 18.9443 127.958 18.893 128.119 18.893ZM128.592 21.104V27H127.624V21.104H128.592ZM132.429 26.318C132.576 26.318 132.726 26.307 132.88 26.285C133.034 26.2557 133.159 26.2263 133.254 26.197V26.934C133.152 26.9853 133.005 27.0257 132.814 27.055C132.624 27.0917 132.44 27.11 132.264 27.11C131.956 27.11 131.67 27.0587 131.406 26.956C131.15 26.846 130.941 26.659 130.779 26.395C130.618 26.131 130.537 25.7607 130.537 25.284V21.852H129.701V21.39L130.548 21.005L130.933 19.751H131.505V21.104H133.21V21.852H131.505V25.262C131.505 25.6213 131.59 25.889 131.758 26.065C131.934 26.2337 132.158 26.318 132.429 26.318ZM138.274 25.372C138.274 25.944 138.061 26.3767 137.636 26.67C137.211 26.9633 136.639 27.11 135.92 27.11C135.509 27.11 135.154 27.077 134.853 27.011C134.56 26.945 134.299 26.8533 134.072 26.736V25.856C134.307 25.9733 134.589 26.0833 134.919 26.186C135.256 26.2813 135.597 26.329 135.942 26.329C136.433 26.329 136.789 26.252 137.009 26.098C137.229 25.9367 137.339 25.724 137.339 25.46C137.339 25.3133 137.299 25.1813 137.218 25.064C137.137 24.9467 136.991 24.8293 136.778 24.712C136.573 24.5947 136.276 24.4627 135.887 24.316C135.506 24.1693 135.179 24.0227 134.908 23.876C134.637 23.7293 134.428 23.5533 134.281 23.348C134.134 23.1427 134.061 22.8787 134.061 22.556C134.061 22.0573 134.263 21.6723 134.666 21.401C135.077 21.1297 135.612 20.994 136.272 20.994C136.631 20.994 136.965 21.0307 137.273 21.104C137.588 21.17 137.882 21.2653 138.153 21.39L137.823 22.16C137.574 22.0573 137.313 21.9693 137.042 21.896C136.771 21.8227 136.492 21.786 136.206 21.786C135.81 21.786 135.506 21.852 135.293 21.984C135.088 22.1087 134.985 22.281 134.985 22.501C134.985 22.6623 135.033 22.8017 135.128 22.919C135.223 23.029 135.381 23.139 135.601 23.249C135.828 23.3517 136.129 23.4763 136.503 23.623C136.877 23.7623 137.196 23.9053 137.46 24.052C137.724 24.1987 137.926 24.3783 138.065 24.591C138.204 24.7963 138.274 25.0567 138.274 25.372Z" fill="#515151"/>
<path d="M87.0415 93.1475V98.2285C87.0415 99.1237 86.7712 99.8273 86.2305 100.339C85.6898 100.851 84.9396 101.107 83.98 101.107C83.0311 101.107 82.2952 100.85 81.7725 100.334C81.2497 99.8148 80.9883 99.1058 80.9883 98.207V93.1475H81.9819V98.2393C81.9819 98.8802 82.152 99.3761 82.4922 99.7271C82.8359 100.078 83.3516 100.253 84.0391 100.253C84.6872 100.253 85.1849 100.08 85.5322 99.7324C85.8831 99.3851 86.0586 98.8838 86.0586 98.2285V93.1475H87.0415ZM92.998 101V97.2295C92.998 96.7497 92.8906 96.3934 92.6758 96.1606C92.4645 95.9243 92.1315 95.8062 91.6768 95.8062C91.0716 95.8062 90.6312 95.9744 90.3555 96.311C90.0833 96.644 89.9473 97.1883 89.9473 97.9438V101H88.9805V95.1025H89.7593L89.9043 95.9082H89.958C90.1406 95.6182 90.3966 95.3944 90.7261 95.2368C91.0555 95.0757 91.4189 94.9951 91.8164 94.9951C92.5397 94.9951 93.0768 95.1706 93.4277 95.5215C93.7786 95.8724 93.9541 96.4185 93.9541 97.1597V101H92.998ZM98.1436 101.107C97.2949 101.107 96.6343 100.848 96.1616 100.329C95.689 99.8058 95.4526 99.0575 95.4526 98.0835C95.4526 97.0952 95.6908 96.3343 96.167 95.8008C96.6468 95.2637 97.3289 94.9951 98.2134 94.9951C98.4998 94.9951 98.7827 95.0256 99.062 95.0864C99.3449 95.1437 99.5776 95.2189 99.7603 95.312L99.4648 96.1177C98.9671 95.9315 98.5428 95.8384 98.1919 95.8384C97.5975 95.8384 97.1589 96.0264 96.876 96.4023C96.5931 96.7747 96.4517 97.3315 96.4517 98.0728C96.4517 98.7853 96.5931 99.3314 96.876 99.7109C97.1589 100.087 97.5778 100.275 98.1328 100.275C98.652 100.275 99.1623 100.16 99.6636 99.9312V100.791C99.2554 101.002 98.7487 101.107 98.1436 101.107ZM104.707 101L104.519 100.162H104.476C104.182 100.531 103.889 100.782 103.595 100.914C103.305 101.043 102.938 101.107 102.494 101.107C101.914 101.107 101.459 100.955 101.13 100.651C100.8 100.347 100.636 99.9168 100.636 99.3618C100.636 98.1659 101.579 97.5392 103.466 97.4819L104.465 97.4443V97.0952C104.465 96.6476 104.369 96.3182 104.175 96.1069C103.982 95.8921 103.672 95.7847 103.246 95.7847C102.935 95.7847 102.639 95.8312 102.36 95.9243C102.084 96.0174 101.825 96.1213 101.581 96.2358L101.286 95.5107C101.583 95.3532 101.907 95.2297 102.258 95.1401C102.609 95.0506 102.956 95.0059 103.3 95.0059C104.012 95.0059 104.542 95.1634 104.89 95.4785C105.237 95.7936 105.411 96.2949 105.411 96.9824V101H104.707ZM102.714 100.329C103.255 100.329 103.679 100.184 103.987 99.8936C104.299 99.5999 104.455 99.1846 104.455 98.6475V98.1157L103.584 98.1533C102.908 98.1784 102.414 98.2858 102.102 98.4756C101.794 98.6654 101.64 98.9644 101.64 99.3726C101.64 99.6805 101.733 99.9168 101.919 100.082C102.109 100.246 102.374 100.329 102.714 100.329ZM108.155 95.1025V98.8999C108.155 99.3761 108.261 99.7306 108.472 99.9634C108.687 100.193 109.018 100.307 109.466 100.307C110.071 100.307 110.511 100.139 110.787 99.8022C111.063 99.4657 111.201 98.9232 111.201 98.1748V95.1025H112.173V101H111.378L111.238 100.221H111.19C111.014 100.504 110.766 100.722 110.443 100.876C110.121 101.03 109.747 101.107 109.321 101.107C108.612 101.107 108.076 100.937 107.715 100.597C107.357 100.257 107.178 99.7127 107.178 98.9644V95.1025H108.155ZM116.287 100.318C116.882 100.318 117.313 100.159 117.582 99.8398C117.854 99.5176 117.99 99.002 117.99 98.293V98.062C117.99 97.2743 117.854 96.7013 117.582 96.3433C117.309 95.9852 116.871 95.8062 116.266 95.8062C115.771 95.8062 115.388 96.0031 115.116 96.397C114.848 96.7873 114.713 97.3459 114.713 98.0728C114.713 98.8032 114.844 99.36 115.105 99.7432C115.37 100.126 115.764 100.318 116.287 100.318ZM117.979 100.946L118.011 100.221H117.968C117.571 100.812 116.962 101.107 116.142 101.107C115.379 101.107 114.783 100.842 114.354 100.312C113.927 99.779 113.714 99.0288 113.714 98.062C113.714 97.1131 113.929 96.3647 114.359 95.8169C114.792 95.269 115.383 94.9951 116.131 94.9951C116.93 94.9951 117.546 95.2923 117.979 95.8867H118.038L118.167 95.1025H118.935V101.097C118.935 101.942 118.72 102.577 118.291 103.003C117.864 103.43 117.2 103.643 116.298 103.643C115.438 103.643 114.731 103.517 114.176 103.267V102.375C114.749 102.683 115.474 102.837 116.352 102.837C116.853 102.837 117.249 102.69 117.539 102.396C117.832 102.103 117.979 101.696 117.979 101.177V100.946ZM124.827 101V97.2295C124.827 96.7497 124.72 96.3934 124.505 96.1606C124.294 95.9243 123.961 95.8062 123.506 95.8062C122.908 95.8062 122.469 95.9727 122.19 96.3057C121.914 96.6387 121.776 97.1883 121.776 97.9546V101H120.81V92.6426H121.776V95.0918C121.776 95.4141 121.758 95.6898 121.723 95.9189H121.787C121.963 95.6325 122.211 95.4087 122.534 95.2476C122.856 95.0864 123.219 95.0059 123.624 95.0059C124.34 95.0059 124.879 95.1777 125.241 95.5215C125.602 95.8617 125.783 96.4077 125.783 97.1597V101H124.827ZM129.581 100.318C129.706 100.318 129.853 100.305 130.021 100.28C130.189 100.255 130.316 100.227 130.402 100.194V100.936C130.313 100.975 130.173 101.013 129.983 101.048C129.797 101.088 129.607 101.107 129.414 101.107C128.261 101.107 127.685 100.5 127.685 99.2866V95.8545H126.852V95.3926L127.695 95.0059L128.082 93.749H128.657V95.1025H130.359V95.8545H128.657V99.2598C128.657 99.5999 128.737 99.8613 128.898 100.044C129.063 100.227 129.291 100.318 129.581 100.318ZM83.0239 116.107C82.2576 116.107 81.6632 115.842 81.2407 115.312C80.8182 114.783 80.6069 114.032 80.6069 113.062C80.6069 112.099 80.8182 111.347 81.2407 110.806C81.6668 110.265 82.2648 109.995 83.0347 109.995C83.826 109.995 84.4347 110.285 84.8608 110.865H84.9307C84.9199 110.794 84.9056 110.65 84.8877 110.436C84.8698 110.217 84.8608 110.07 84.8608 109.995V107.643H85.8276V116H85.0488L84.9038 115.21H84.8608C84.4491 115.808 83.8368 116.107 83.0239 116.107ZM83.1797 115.307C83.7669 115.307 84.1948 115.148 84.4634 114.829C84.7355 114.507 84.8716 113.98 84.8716 113.25V113.073C84.8716 112.253 84.7337 111.669 84.458 111.322C84.1859 110.971 83.7562 110.795 83.1689 110.795C82.6712 110.795 82.2863 110.994 82.0142 111.392C81.742 111.785 81.606 112.349 81.606 113.083C81.606 113.814 81.7402 114.367 82.0088 114.743C82.2809 115.119 82.6712 115.307 83.1797 115.307ZM91.3438 116L91.1558 115.162H91.1128C90.8192 115.531 90.5256 115.782 90.2319 115.914C89.9419 116.043 89.5749 116.107 89.1309 116.107C88.5508 116.107 88.096 115.955 87.7666 115.651C87.4372 115.347 87.2725 114.917 87.2725 114.362C87.2725 113.166 88.216 112.539 90.103 112.482L91.1021 112.444V112.095C91.1021 111.648 91.0054 111.318 90.812 111.107C90.6187 110.892 90.3089 110.785 89.8828 110.785C89.5713 110.785 89.2759 110.831 88.9966 110.924C88.7209 111.017 88.4613 111.121 88.2178 111.236L87.9224 110.511C88.2196 110.353 88.5436 110.23 88.8945 110.14C89.2454 110.051 89.5928 110.006 89.9365 110.006C90.6491 110.006 91.179 110.163 91.5264 110.479C91.8737 110.794 92.0474 111.295 92.0474 111.982V116H91.3438ZM89.3511 115.329C89.8918 115.329 90.3161 115.184 90.624 114.894C90.9355 114.6 91.0913 114.185 91.0913 113.647V113.116L90.2212 113.153C89.5444 113.178 89.0503 113.286 88.7388 113.476C88.4308 113.665 88.2769 113.964 88.2769 114.373C88.2769 114.681 88.37 114.917 88.5562 115.082C88.7459 115.246 89.0109 115.329 89.3511 115.329ZM101.382 116V112.203C101.382 111.272 100.983 110.806 100.185 110.806C99.6367 110.806 99.2339 110.965 98.9761 111.284C98.7183 111.603 98.5894 112.09 98.5894 112.745V116H97.6279V112.203C97.6279 111.737 97.5295 111.388 97.3325 111.155C97.1392 110.923 96.8348 110.806 96.4194 110.806C95.8752 110.806 95.4759 110.973 95.2217 111.306C94.971 111.639 94.8457 112.185 94.8457 112.944V116H93.8789V110.103H94.6577L94.8027 110.908H94.8564C95.0247 110.622 95.2611 110.398 95.5654 110.237C95.8734 110.076 96.2171 109.995 96.5967 109.995C97.5205 109.995 98.1221 110.325 98.4014 110.983H98.4551C98.6449 110.668 98.9027 110.425 99.2285 110.253C99.5579 110.081 99.9303 109.995 100.346 109.995C101.012 109.995 101.509 110.167 101.839 110.511C102.172 110.854 102.338 111.404 102.338 112.16V116H101.382ZM107.812 116L107.624 115.162H107.581C107.287 115.531 106.993 115.782 106.7 115.914C106.41 116.043 106.043 116.107 105.599 116.107C105.019 116.107 104.564 115.955 104.234 115.651C103.905 115.347 103.74 114.917 103.74 114.362C103.74 113.166 104.684 112.539 106.571 112.482L107.57 112.444V112.095C107.57 111.648 107.473 111.318 107.28 111.107C107.086 110.892 106.777 110.785 106.351 110.785C106.039 110.785 105.744 110.831 105.464 110.924C105.189 111.017 104.929 111.121 104.686 111.236L104.39 110.511C104.687 110.353 105.011 110.23 105.362 110.14C105.713 110.051 106.061 110.006 106.404 110.006C107.117 110.006 107.647 110.163 107.994 110.479C108.341 110.794 108.515 111.295 108.515 111.982V116H107.812ZM105.819 115.329C106.36 115.329 106.784 115.184 107.092 114.894C107.403 114.6 107.559 114.185 107.559 113.647V113.116L106.689 113.153C106.012 113.178 105.518 113.286 105.207 113.476C104.899 113.665 104.745 113.964 104.745 114.373C104.745 114.681 104.838 114.917 105.024 115.082C105.214 115.246 105.479 115.329 105.819 115.329ZM112.592 115.318C113.186 115.318 113.618 115.159 113.886 114.84C114.158 114.518 114.294 114.002 114.294 113.293V113.062C114.294 112.274 114.158 111.701 113.886 111.343C113.614 110.985 113.175 110.806 112.57 110.806C112.076 110.806 111.693 111.003 111.421 111.397C111.152 111.787 111.018 112.346 111.018 113.073C111.018 113.803 111.149 114.36 111.41 114.743C111.675 115.126 112.069 115.318 112.592 115.318ZM114.284 115.946L114.316 115.221H114.273C113.875 115.812 113.267 116.107 112.447 116.107C111.684 116.107 111.088 115.842 110.658 115.312C110.232 114.779 110.019 114.029 110.019 113.062C110.019 112.113 110.234 111.365 110.664 110.817C111.097 110.269 111.688 109.995 112.436 109.995C113.235 109.995 113.85 110.292 114.284 110.887H114.343L114.472 110.103H115.24V116.097C115.24 116.942 115.025 117.577 114.595 118.003C114.169 118.43 113.505 118.643 112.603 118.643C111.743 118.643 111.036 118.517 110.481 118.267V117.375C111.054 117.683 111.779 117.837 112.656 117.837C113.158 117.837 113.553 117.69 113.843 117.396C114.137 117.103 114.284 116.696 114.284 116.177V115.946ZM118.081 116H117.114V110.103H118.081V116ZM117.039 108.507C117.039 108.292 117.093 108.137 117.2 108.04C117.311 107.943 117.447 107.895 117.608 107.895C117.759 107.895 117.889 107.943 118 108.04C118.115 108.137 118.172 108.292 118.172 108.507C118.172 108.719 118.115 108.874 118 108.975C117.889 109.075 117.759 109.125 117.608 109.125C117.447 109.125 117.311 109.075 117.2 108.975C117.093 108.874 117.039 108.719 117.039 108.507ZM123.968 116V112.229C123.968 111.75 123.86 111.393 123.646 111.161C123.434 110.924 123.101 110.806 122.646 110.806C122.041 110.806 121.601 110.974 121.325 111.311C121.053 111.644 120.917 112.188 120.917 112.944V116H119.95V110.103H120.729L120.874 110.908H120.928C121.11 110.618 121.366 110.394 121.696 110.237C122.025 110.076 122.389 109.995 122.786 109.995C123.509 109.995 124.047 110.171 124.397 110.521C124.748 110.872 124.924 111.418 124.924 112.16V116H123.968ZM128.995 115.318C129.59 115.318 130.021 115.159 130.29 114.84C130.562 114.518 130.698 114.002 130.698 113.293V113.062C130.698 112.274 130.562 111.701 130.29 111.343C130.017 110.985 129.579 110.806 128.974 110.806C128.479 110.806 128.096 111.003 127.824 111.397C127.556 111.787 127.421 112.346 127.421 113.073C127.421 113.803 127.552 114.36 127.813 114.743C128.078 115.126 128.472 115.318 128.995 115.318ZM130.687 115.946L130.719 115.221H130.676C130.279 115.812 129.67 116.107 128.85 116.107C128.087 116.107 127.491 115.842 127.062 115.312C126.635 114.779 126.422 114.029 126.422 113.062C126.422 112.113 126.637 111.365 127.067 110.817C127.5 110.269 128.091 109.995 128.839 109.995C129.638 109.995 130.254 110.292 130.687 110.887H130.746L130.875 110.103H131.643V116.097C131.643 116.942 131.428 117.577 130.999 118.003C130.572 118.43 129.908 118.643 129.006 118.643C128.146 118.643 127.439 118.517 126.884 118.267V117.375C127.457 117.683 128.182 117.837 129.06 117.837C129.561 117.837 129.957 117.69 130.247 117.396C130.54 117.103 130.687 116.696 130.687 116.177V115.946ZM138.883 116.107C137.999 116.107 137.304 115.841 136.799 115.307C136.298 114.77 136.047 114.032 136.047 113.094C136.047 112.149 136.282 111.397 136.751 110.838C137.22 110.276 137.854 109.995 138.652 109.995C139.394 109.995 139.984 110.235 140.425 110.715C140.865 111.191 141.085 111.837 141.085 112.654V113.239H137.046C137.064 113.909 137.234 114.417 137.557 114.765C137.879 115.112 138.335 115.286 138.926 115.286C139.241 115.286 139.54 115.259 139.823 115.205C140.106 115.148 140.437 115.039 140.817 114.877V115.726C140.491 115.866 140.185 115.964 139.898 116.021C139.612 116.079 139.274 116.107 138.883 116.107ZM138.642 110.785C138.18 110.785 137.814 110.933 137.546 111.23C137.277 111.528 137.118 111.941 137.068 112.471H140.07C140.063 111.92 139.936 111.501 139.689 111.214C139.442 110.928 139.093 110.785 138.642 110.785ZM144.673 116.107C143.907 116.107 143.313 115.842 142.89 115.312C142.468 114.783 142.256 114.032 142.256 113.062C142.256 112.099 142.468 111.347 142.89 110.806C143.316 110.265 143.914 109.995 144.684 109.995C145.475 109.995 146.084 110.285 146.51 110.865H146.58C146.569 110.794 146.555 110.65 146.537 110.436C146.519 110.217 146.51 110.07 146.51 109.995V107.643H147.477V116H146.698L146.553 115.21H146.51C146.098 115.808 145.486 116.107 144.673 116.107ZM144.829 115.307C145.416 115.307 145.844 115.148 146.113 114.829C146.385 114.507 146.521 113.98 146.521 113.25V113.073C146.521 112.253 146.383 111.669 146.107 111.322C145.835 110.971 145.406 110.795 144.818 110.795C144.321 110.795 143.936 110.994 143.664 111.392C143.391 111.785 143.255 112.349 143.255 113.083C143.255 113.814 143.39 114.367 143.658 114.743C143.93 115.119 144.321 115.307 144.829 115.307ZM150.318 116H149.352V110.103H150.318V116ZM149.276 108.507C149.276 108.292 149.33 108.137 149.438 108.04C149.549 107.943 149.685 107.895 149.846 107.895C149.996 107.895 150.127 107.943 150.238 108.04C150.352 108.137 150.41 108.292 150.41 108.507C150.41 108.719 150.352 108.874 150.238 108.975C150.127 109.075 149.996 109.125 149.846 109.125C149.685 109.125 149.549 109.075 149.438 108.975C149.33 108.874 149.276 108.719 149.276 108.507ZM154.159 115.318C154.284 115.318 154.431 115.305 154.599 115.28C154.767 115.255 154.895 115.227 154.98 115.194V115.936C154.891 115.975 154.751 116.013 154.562 116.048C154.375 116.088 154.186 116.107 153.992 116.107C152.839 116.107 152.263 115.5 152.263 114.287V110.854H151.43V110.393L152.273 110.006L152.66 108.749H153.235V110.103H154.938V110.854H153.235V114.26C153.235 114.6 153.315 114.861 153.477 115.044C153.641 115.227 153.869 115.318 154.159 115.318ZM160.002 114.373C160.002 114.924 159.797 115.352 159.385 115.656C158.973 115.957 158.395 116.107 157.65 116.107C156.873 116.107 156.255 115.984 155.797 115.737V114.856C156.445 115.171 157.07 115.329 157.671 115.329C158.158 115.329 158.513 115.25 158.735 115.092C158.957 114.935 159.068 114.723 159.068 114.458C159.068 114.226 158.96 114.029 158.746 113.868C158.534 113.707 158.157 113.522 157.612 113.314C157.057 113.1 156.667 112.917 156.441 112.767C156.216 112.613 156.049 112.441 155.942 112.251C155.838 112.061 155.786 111.83 155.786 111.558C155.786 111.075 155.983 110.693 156.377 110.414C156.771 110.135 157.312 109.995 157.999 109.995C158.669 109.995 159.295 110.128 159.879 110.393L159.551 111.161C158.953 110.91 158.414 110.785 157.935 110.785C157.534 110.785 157.229 110.849 157.021 110.978C156.814 111.103 156.71 111.277 156.71 111.499C156.71 111.714 156.799 111.893 156.979 112.036C157.158 112.176 157.575 112.371 158.23 112.622C158.721 112.804 159.082 112.974 159.315 113.132C159.551 113.289 159.725 113.467 159.836 113.664C159.947 113.861 160.002 114.097 160.002 114.373Z" fill="#515151"/>
<rect x="0.500787" y="-0.49931" width="45.8252" height="65.3777" rx="1.5" transform="matrix(0.00157506 -0.999999 0.999999 0.00137894 0.999308 47.8274)" stroke="#C57619" stroke-dasharray="5 5"/>
<rect x="0.500787" y="-0.49931" width="20.5231" height="64.581" rx="1.5" transform="matrix(0.00157506 -0.999999 0.999999 0.00137894 1.38395 118.523)" stroke="#A7A7A7" stroke-dasharray="5 5"/>
<rect y="93.8994" width="92.8995" height="66.0811" rx="2" transform="rotate(-89.9156 0 93.8994)" fill="#C57619" fill-opacity="0.1"/>
<circle cx="11.5" cy="56.5" r="3.5" transform="rotate(-90 11.5 56.5)" fill="#C57619"/>
<circle cx="11.5" cy="70.5" r="3.5" transform="rotate(-90 11.5 70.5)" fill="#C57619"/>
<circle cx="11.5" cy="84.5" r="3.5" transform="rotate(-90 11.5 84.5)" fill="#C57619"/>
<circle cx="26.5" cy="56.5" r="3.5" transform="rotate(-90 26.5 56.5)" fill="#C57619"/>
<circle cx="41.5" cy="56.5" r="3.5" transform="rotate(-90 41.5 56.5)" fill="#C57619"/>
<circle cx="56.5" cy="56.5" r="3.5" transform="rotate(-90 56.5 56.5)" fill="#C57619"/>
<circle cx="26.5" cy="70.5" r="3.5" transform="rotate(-90 26.5 70.5)" fill="#C57619"/>
<circle cx="41.5" cy="70.5" r="3.5" transform="rotate(-90 41.5 70.5)" fill="#C57619"/>
<circle cx="56.5" cy="70.5" r="3.5" transform="rotate(-90 56.5 70.5)" fill="#C57619"/>
<circle cx="26.5" cy="84.5" r="3.5" transform="rotate(-90 26.5 84.5)" fill="#C57619"/>
<circle cx="41.5" cy="84.5" r="3.5" transform="rotate(-90 41.5 84.5)" fill="#C57619"/>
<circle cx="56.5" cy="84.5" r="3.5" transform="rotate(-90 56.5 84.5)" fill="#C57619"/>
<line x1="24.0607" y1="9" x2="29.6418" y2="14.5811" stroke="#C47619" stroke-width="1.5" stroke-linecap="round" stroke-linejoin="round"/>
<line x1="0.75" y1="-0.75" x2="8.64285" y2="-0.75" transform="matrix(-0.707107 0.707107 0.707107 0.707107 30.5 9)" stroke="#C47619" stroke-width="1.5" stroke-linecap="round" stroke-linejoin="round"/>
<line x1="24.0607" y1="22" x2="29.6418" y2="27.5811" stroke="#C47619" stroke-width="1.5" stroke-linecap="round" stroke-linejoin="round"/>
<line x1="0.75" y1="-0.75" x2="8.64285" y2="-0.75" transform="matrix(-0.707107 0.707107 0.707107 0.707107 30.5 22)" stroke="#C47619" stroke-width="1.5" stroke-linecap="round" stroke-linejoin="round"/>
<line x1="24.0607" y1="35" x2="29.6418" y2="40.5811" stroke="#C47619" stroke-width="1.5" stroke-linecap="round" stroke-linejoin="round"/>
<line x1="0.75" y1="-0.75" x2="8.64285" y2="-0.75" transform="matrix(-0.707107 0.707107 0.707107 0.707107 30.5 35)" stroke="#C47619" stroke-width="1.5" stroke-linecap="round" stroke-linejoin="round"/>
<line x1="39.0607" y1="22" x2="44.6418" y2="27.5811" stroke="#C47619" stroke-width="1.5" stroke-linecap="round" stroke-linejoin="round"/>
<line x1="0.75" y1="-0.75" x2="8.64285" y2="-0.75" transform="matrix(-0.707107 0.707107 0.707107 0.707107 45.5 22)" stroke="#C47619" stroke-width="1.5" stroke-linecap="round" stroke-linejoin="round"/>
<line x1="39.0607" y1="35" x2="44.6418" y2="40.5811" stroke="#C47619" stroke-width="1.5" stroke-linecap="round" stroke-linejoin="round"/>
<line x1="0.75" y1="-0.75" x2="8.64285" y2="-0.75" transform="matrix(-0.707107 0.707107 0.707107 0.707107 45.5 35)" stroke="#C47619" stroke-width="1.5" stroke-linecap="round" stroke-linejoin="round"/>
<line x1="54.0607" y1="22" x2="59.6418" y2="27.5811" stroke="#C47619" stroke-width="1.5" stroke-linecap="round" stroke-linejoin="round"/>
<line x1="0.75" y1="-0.75" x2="8.64285" y2="-0.75" transform="matrix(-0.707107 0.707107 0.707107 0.707107 60.5 22)" stroke="#C47619" stroke-width="1.5" stroke-linecap="round" stroke-linejoin="round"/>
<line x1="54.0607" y1="35" x2="59.6418" y2="40.5811" stroke="#C47619" stroke-width="1.5" stroke-linecap="round" stroke-linejoin="round"/>
<line x1="0.75" y1="-0.75" x2="8.64285" y2="-0.75" transform="matrix(-0.707107 0.707107 0.707107 0.707107 60.5 35)" stroke="#C47619" stroke-width="1.5" stroke-linecap="round" stroke-linejoin="round"/>
<line x1="8.06066" y1="9" x2="13.6418" y2="14.5811" stroke="#C47619" stroke-width="1.5" stroke-linecap="round" stroke-linejoin="round"/>
<line x1="0.75" y1="-0.75" x2="8.64285" y2="-0.75" transform="matrix(-0.707107 0.707107 0.707107 0.707107 14.5 9)" stroke="#C47619" stroke-width="1.5" stroke-linecap="round" stroke-linejoin="round"/>
<line x1="8.06066" y1="22" x2="13.6418" y2="27.5811" stroke="#C47619" stroke-width="1.5" stroke-linecap="round" stroke-linejoin="round"/>
<line x1="0.75" y1="-0.75" x2="8.64285" y2="-0.75" transform="matrix(-0.707107 0.707107 0.707107 0.707107 14.5 22)" stroke="#C47619" stroke-width="1.5" stroke-linecap="round" stroke-linejoin="round"/>
<line x1="8.06066" y1="35" x2="13.6418" y2="40.5811" stroke="#C47619" stroke-width="1.5" stroke-linecap="round" stroke-linejoin="round"/>
<line x1="0.75" y1="-0.75" x2="8.64285" y2="-0.75" transform="matrix(-0.707107 0.707107 0.707107 0.707107 14.5 35)" stroke="#C47619" stroke-width="1.5" stroke-linecap="round" stroke-linejoin="round"/>
<line x1="8.06066" y1="105" x2="13.6418" y2="110.581" stroke="#A7A7A7" stroke-width="1.5" stroke-linecap="round" stroke-linejoin="round"/>
<line x1="0.75" y1="-0.75" x2="8.64285" y2="-0.75" transform="matrix(-0.707107 0.707107 0.707107 0.707107 14.5 105)" stroke="#A7A7A7" stroke-width="1.5" stroke-linecap="round" stroke-linejoin="round"/>
</svg>
