<svg width="185" height="174" viewBox="0 0 185 174" fill="none" xmlns="http://www.w3.org/2000/svg">
<path d="M89.0835 82.5598L88.1158 82.8116L89.0835 82.5598ZM185 168L175.44 161.524L174.611 173.041L185 168ZM79.2843 44.9079L78.3165 45.1597L79.2843 44.9079ZM0.977371 1.99974L24.444 2.5309L24.4892 0.53141L1.02263 0.000256062L0.977371 1.99974ZM78.3165 45.1597L88.1158 82.8116L90.0513 82.3079L80.252 44.656L78.3165 45.1597ZM88.1158 82.8116L98.4692 122.593L100.405 122.089L90.0513 82.3079L88.1158 82.8116ZM151.333 166.58L175.951 168.352L176.095 166.357L151.476 164.585L151.333 166.58ZM98.4692 122.593C104.84 147.071 126.104 164.765 151.333 166.58L151.476 164.585C127.103 162.832 106.559 145.737 100.405 122.089L98.4692 122.593ZM24.444 2.5309C49.9092 3.10729 71.9009 20.5092 78.3165 45.1597L80.252 44.656C73.6114 19.1405 50.848 1.12803 24.4892 0.53141L24.444 2.5309Z" fill="#3777A5"/>
</svg>
