<svg width="169" height="113" viewBox="0 0 169 113" fill="none" xmlns="http://www.w3.org/2000/svg">
<path d="M85.5332 12.9414L82.9443 6.05566H82.9014C82.9551 6.62858 82.9819 7.33577 82.9819 8.17725V12.9414H82.0688V5.08887H83.5298L85.9521 11.5234H85.9951L88.4604 5.08887H89.9106V12.9414H88.9331V8.11279C88.9331 7.57568 88.9582 6.89355 89.0083 6.06641H88.9653L86.3442 12.9414H85.5332ZM92.8809 12.9414H91.9141V7.04395H92.8809V12.9414ZM91.8389 5.44873C91.8389 5.23389 91.8926 5.07812 92 4.98145C92.111 4.88477 92.2471 4.83643 92.4082 4.83643C92.5586 4.83643 92.6893 4.88477 92.8003 4.98145C92.9149 5.07812 92.9722 5.23389 92.9722 5.44873C92.9722 5.65999 92.9149 5.81576 92.8003 5.91602C92.6893 6.01628 92.5586 6.06641 92.4082 6.06641C92.2471 6.06641 92.111 6.01628 92 5.91602C91.8926 5.81576 91.8389 5.65999 91.8389 5.44873ZM98.5903 11.314C98.5903 11.8654 98.3844 12.2933 97.9727 12.5977C97.5609 12.8984 96.9826 13.0488 96.2378 13.0488C95.4608 13.0488 94.8431 12.9253 94.3848 12.6782V11.7974C95.0329 12.1125 95.6577 12.27 96.2593 12.27C96.7463 12.27 97.1007 12.1912 97.3228 12.0337C97.5448 11.8761 97.6558 11.6649 97.6558 11.3999C97.6558 11.1672 97.5483 10.9702 97.3335 10.8091C97.1222 10.6479 96.7445 10.4635 96.2002 10.2559C95.6452 10.041 95.2549 9.8584 95.0293 9.70801C94.8037 9.55404 94.6372 9.38216 94.5298 9.19238C94.4259 9.0026 94.374 8.77165 94.374 8.49951C94.374 8.01611 94.571 7.63477 94.9648 7.35547C95.3587 7.07617 95.8994 6.93652 96.5869 6.93652C97.2565 6.93652 97.8831 7.06901 98.4668 7.33398L98.1392 8.10205C97.5412 7.8514 97.0023 7.72607 96.5225 7.72607C96.1214 7.72607 95.8171 7.79053 95.6094 7.91943C95.4017 8.04476 95.2979 8.21842 95.2979 8.44043C95.2979 8.65527 95.3874 8.83431 95.5664 8.97754C95.7454 9.11719 96.1626 9.31234 96.8179 9.56299C97.3084 9.74561 97.6701 9.91569 97.9028 10.0732C98.1392 10.2308 98.3128 10.408 98.4238 10.605C98.5348 10.8019 98.5903 11.0382 98.5903 11.314ZM102.388 13.0488C101.539 13.0488 100.878 12.7892 100.406 12.27C99.9331 11.7472 99.6968 10.9989 99.6968 10.0249C99.6968 9.03662 99.9349 8.27572 100.411 7.74219C100.891 7.20508 101.573 6.93652 102.458 6.93652C102.744 6.93652 103.027 6.96696 103.306 7.02783C103.589 7.08512 103.822 7.16032 104.004 7.25342L103.709 8.05908C103.211 7.87288 102.787 7.77979 102.436 7.77979C101.842 7.77979 101.403 7.96777 101.12 8.34375C100.837 8.71615 100.696 9.27295 100.696 10.0142C100.696 10.7267 100.837 11.2728 101.12 11.6523C101.403 12.0283 101.822 12.2163 102.377 12.2163C102.896 12.2163 103.406 12.1017 103.908 11.8726V12.7319C103.5 12.9432 102.993 13.0488 102.388 13.0488ZM106.276 12.9414H105.31V4.58398H106.276V12.9414ZM111.787 12.9414L111.599 12.1035H111.556C111.263 12.4723 110.969 12.723 110.675 12.8555C110.385 12.9844 110.018 13.0488 109.574 13.0488C108.994 13.0488 108.539 12.8966 108.21 12.5923C107.881 12.2879 107.716 11.8582 107.716 11.3032C107.716 10.1073 108.659 9.48063 110.546 9.42334L111.545 9.38574V9.03662C111.545 8.58903 111.449 8.2596 111.255 8.04834C111.062 7.8335 110.752 7.72607 110.326 7.72607C110.015 7.72607 109.719 7.77262 109.44 7.86572C109.164 7.95882 108.905 8.06266 108.661 8.17725L108.366 7.45215C108.663 7.2946 108.987 7.17106 109.338 7.08154C109.689 6.99202 110.036 6.94727 110.38 6.94727C111.092 6.94727 111.622 7.10482 111.97 7.41992C112.317 7.73503 112.491 8.23633 112.491 8.92383V12.9414H111.787ZM109.794 12.27C110.335 12.27 110.759 12.125 111.067 11.835C111.379 11.5413 111.535 11.126 111.535 10.5889V10.0571L110.665 10.0947C109.988 10.1198 109.494 10.2272 109.182 10.417C108.874 10.6068 108.72 10.9058 108.72 11.314C108.72 11.6219 108.813 11.8582 109 12.0229C109.189 12.1877 109.454 12.27 109.794 12.27ZM118.163 11.314C118.163 11.8654 117.957 12.2933 117.545 12.5977C117.133 12.8984 116.555 13.0488 115.81 13.0488C115.033 13.0488 114.415 12.9253 113.957 12.6782V11.7974C114.605 12.1125 115.23 12.27 115.832 12.27C116.319 12.27 116.673 12.1912 116.895 12.0337C117.117 11.8761 117.228 11.6649 117.228 11.3999C117.228 11.1672 117.121 10.9702 116.906 10.8091C116.694 10.6479 116.317 10.4635 115.772 10.2559C115.217 10.041 114.827 9.8584 114.602 9.70801C114.376 9.55404 114.209 9.38216 114.102 9.19238C113.998 9.0026 113.946 8.77165 113.946 8.49951C113.946 8.01611 114.143 7.63477 114.537 7.35547C114.931 7.07617 115.472 6.93652 116.159 6.93652C116.829 6.93652 117.455 7.06901 118.039 7.33398L117.711 8.10205C117.113 7.8514 116.575 7.72607 116.095 7.72607C115.694 7.72607 115.389 7.79053 115.182 7.91943C114.974 8.04476 114.87 8.21842 114.87 8.44043C114.87 8.65527 114.96 8.83431 115.139 8.97754C115.318 9.11719 115.735 9.31234 116.39 9.56299C116.881 9.74561 117.242 9.91569 117.475 10.0732C117.711 10.2308 117.885 10.408 117.996 10.605C118.107 10.8019 118.163 11.0382 118.163 11.314ZM123.437 11.314C123.437 11.8654 123.231 12.2933 122.819 12.5977C122.408 12.8984 121.829 13.0488 121.084 13.0488C120.307 13.0488 119.69 12.9253 119.231 12.6782V11.7974C119.88 12.1125 120.504 12.27 121.106 12.27C121.593 12.27 121.947 12.1912 122.169 12.0337C122.391 11.8761 122.502 11.6649 122.502 11.3999C122.502 11.1672 122.395 10.9702 122.18 10.8091C121.969 10.6479 121.591 10.4635 121.047 10.2559C120.492 10.041 120.102 9.8584 119.876 9.70801C119.65 9.55404 119.484 9.38216 119.376 9.19238C119.273 9.0026 119.221 8.77165 119.221 8.49951C119.221 8.01611 119.418 7.63477 119.812 7.35547C120.205 7.07617 120.746 6.93652 121.434 6.93652C122.103 6.93652 122.73 7.06901 123.313 7.33398L122.986 8.10205C122.388 7.8514 121.849 7.72607 121.369 7.72607C120.968 7.72607 120.664 7.79053 120.456 7.91943C120.248 8.04476 120.145 8.21842 120.145 8.44043C120.145 8.65527 120.234 8.83431 120.413 8.97754C120.592 9.11719 121.009 9.31234 121.665 9.56299C122.155 9.74561 122.517 9.91569 122.75 10.0732C122.986 10.2308 123.16 10.408 123.271 10.605C123.382 10.8019 123.437 11.0382 123.437 11.314ZM125.838 12.9414H124.871V7.04395H125.838V12.9414ZM124.796 5.44873C124.796 5.23389 124.85 5.07812 124.957 4.98145C125.068 4.88477 125.204 4.83643 125.365 4.83643C125.516 4.83643 125.646 4.88477 125.757 4.98145C125.872 5.07812 125.929 5.23389 125.929 5.44873C125.929 5.65999 125.872 5.81576 125.757 5.91602C125.646 6.01628 125.516 6.06641 125.365 6.06641C125.204 6.06641 125.068 6.01628 124.957 5.91602C124.85 5.81576 124.796 5.65999 124.796 5.44873ZM130.425 7.7959H128.937V12.9414H127.97V7.7959H126.939V7.34473L127.97 7.01172V6.67334C127.97 5.95719 128.126 5.42008 128.438 5.06201C128.753 4.70394 129.236 4.5249 129.888 4.5249C130.264 4.5249 130.645 4.59115 131.032 4.72363L130.774 5.48096C130.441 5.37354 130.149 5.31982 129.898 5.31982C129.573 5.31982 129.331 5.42725 129.173 5.64209C129.016 5.85693 128.937 6.1971 128.937 6.6626V7.04395H130.425V7.7959ZM132.466 12.9414H131.499V7.04395H132.466V12.9414ZM131.424 5.44873C131.424 5.23389 131.478 5.07812 131.585 4.98145C131.696 4.88477 131.832 4.83643 131.993 4.83643C132.144 4.83643 132.274 4.88477 132.385 4.98145C132.5 5.07812 132.557 5.23389 132.557 5.44873C132.557 5.65999 132.5 5.81576 132.385 5.91602C132.274 6.01628 132.144 6.06641 131.993 6.06641C131.832 6.06641 131.696 6.01628 131.585 5.91602C131.478 5.81576 131.424 5.65999 131.424 5.44873ZM136.843 13.0488C135.959 13.0488 135.264 12.7821 134.759 12.2485C134.258 11.7114 134.007 10.9738 134.007 10.0356C134.007 9.09033 134.242 8.33838 134.711 7.77979C135.18 7.21761 135.814 6.93652 136.612 6.93652C137.354 6.93652 137.944 7.17643 138.385 7.65625C138.825 8.13249 139.045 8.77881 139.045 9.59521V10.1807H135.006C135.024 10.8503 135.194 11.3587 135.517 11.7061C135.839 12.0534 136.295 12.2271 136.886 12.2271C137.201 12.2271 137.5 12.2002 137.783 12.1465C138.066 12.0892 138.397 11.98 138.777 11.8188V12.6675C138.451 12.8071 138.145 12.9056 137.858 12.9629C137.572 13.0202 137.234 13.0488 136.843 13.0488ZM136.602 7.72607C136.14 7.72607 135.774 7.87467 135.506 8.17188C135.237 8.46908 135.078 8.88265 135.028 9.4126H138.03C138.023 8.86117 137.896 8.44222 137.649 8.15576C137.402 7.8693 137.053 7.72607 136.602 7.72607ZM142.633 13.0488C141.867 13.0488 141.273 12.7839 140.85 12.2539C140.428 11.724 140.216 10.9738 140.216 10.0034C140.216 9.0402 140.428 8.28825 140.85 7.74756C141.276 7.20687 141.874 6.93652 142.644 6.93652C143.435 6.93652 144.044 7.22656 144.47 7.80664H144.54C144.529 7.73503 144.515 7.5918 144.497 7.37695C144.479 7.15853 144.47 7.01172 144.47 6.93652V4.58398H145.437V12.9414H144.658L144.513 12.1519H144.47C144.058 12.7498 143.446 13.0488 142.633 13.0488ZM142.789 12.2485C143.376 12.2485 143.804 12.0892 144.073 11.7705C144.345 11.4482 144.481 10.9219 144.481 10.1914V10.0142C144.481 9.19417 144.343 8.61051 144.067 8.26318C143.795 7.91227 143.366 7.73682 142.778 7.73682C142.281 7.73682 141.896 7.93555 141.624 8.33301C141.351 8.72689 141.215 9.29085 141.215 10.0249C141.215 10.7554 141.35 11.3086 141.618 11.6846C141.89 12.0605 142.281 12.2485 142.789 12.2485ZM84.1797 27.2593C84.7741 27.2593 85.2056 27.0999 85.4741 26.7812C85.7463 26.459 85.8823 25.9434 85.8823 25.2344V25.0034C85.8823 24.2157 85.7463 23.6427 85.4741 23.2847C85.202 22.9266 84.7633 22.7476 84.1582 22.7476C83.6641 22.7476 83.2809 22.9445 83.0088 23.3384C82.7402 23.7287 82.606 24.2873 82.606 25.0142C82.606 25.7446 82.7367 26.3014 82.998 26.6846C83.263 27.0677 83.6569 27.2593 84.1797 27.2593ZM85.8716 27.8877L85.9038 27.1626H85.8608C85.4634 27.7534 84.8547 28.0488 84.0347 28.0488C83.272 28.0488 82.6758 27.7839 82.2461 27.2539C81.82 26.7204 81.6069 25.9702 81.6069 25.0034C81.6069 24.0545 81.8218 23.3062 82.2515 22.7583C82.6847 22.2104 83.2756 21.9365 84.0239 21.9365C84.8224 21.9365 85.4383 22.2337 85.8716 22.8281H85.9307L86.0596 22.0439H86.8276V28.0381C86.8276 28.8831 86.6128 29.5187 86.1831 29.9448C85.757 30.3709 85.0928 30.584 84.1904 30.584C83.3311 30.584 82.6239 30.4587 82.0688 30.208V29.3164C82.6418 29.6243 83.3669 29.7783 84.2441 29.7783C84.7454 29.7783 85.1411 29.6315 85.4312 29.3379C85.7248 29.0443 85.8716 28.6379 85.8716 28.1187V27.8877ZM93.8262 24.9819C93.8262 25.9451 93.5827 26.6971 93.0957 27.2378C92.6087 27.7785 91.9355 28.0488 91.0762 28.0488C90.5426 28.0488 90.07 27.9253 89.6582 27.6782C89.2464 27.4276 88.9295 27.0695 88.7075 26.604C88.4855 26.1385 88.3745 25.5978 88.3745 24.9819C88.3745 24.0223 88.6144 23.2757 89.0942 22.7422C89.5741 22.2051 90.2472 21.9365 91.1138 21.9365C91.9445 21.9365 92.6034 22.2104 93.0903 22.7583C93.5809 23.3026 93.8262 24.0438 93.8262 24.9819ZM89.3735 24.9819C89.3735 25.7231 89.5186 26.2871 89.8086 26.6738C90.1022 27.057 90.5337 27.2485 91.103 27.2485C91.6652 27.2485 92.0931 27.057 92.3867 26.6738C92.6803 26.2871 92.8271 25.7231 92.8271 24.9819C92.8271 24.2407 92.6785 23.6839 92.3813 23.3115C92.0877 22.9355 91.6562 22.7476 91.0869 22.7476C89.9447 22.7476 89.3735 23.4924 89.3735 24.9819ZM100.486 24.9819C100.486 25.9451 100.243 26.6971 99.7559 27.2378C99.2689 27.7785 98.5957 28.0488 97.7363 28.0488C97.2028 28.0488 96.7301 27.9253 96.3184 27.6782C95.9066 27.4276 95.5897 27.0695 95.3677 26.604C95.1457 26.1385 95.0347 25.5978 95.0347 24.9819C95.0347 24.0223 95.2746 23.2757 95.7544 22.7422C96.2342 22.2051 96.9074 21.9365 97.7739 21.9365C98.6047 21.9365 99.2635 22.2104 99.7505 22.7583C100.241 23.3026 100.486 24.0438 100.486 24.9819ZM96.0337 24.9819C96.0337 25.7231 96.1787 26.2871 96.4688 26.6738C96.7624 27.057 97.1938 27.2485 97.7632 27.2485C98.3254 27.2485 98.7533 27.057 99.0469 26.6738C99.3405 26.2871 99.4873 25.7231 99.4873 24.9819C99.4873 24.2407 99.3387 23.6839 99.0415 23.3115C98.7479 22.9355 98.3164 22.7476 97.7471 22.7476C96.6048 22.7476 96.0337 23.4924 96.0337 24.9819ZM104.112 28.0488C103.346 28.0488 102.751 27.7839 102.329 27.2539C101.906 26.724 101.695 25.9738 101.695 25.0034C101.695 24.0402 101.906 23.2882 102.329 22.7476C102.755 22.2069 103.353 21.9365 104.123 21.9365C104.914 21.9365 105.523 22.2266 105.949 22.8066H106.019C106.008 22.735 105.993 22.5918 105.976 22.377C105.958 22.1585 105.949 22.0117 105.949 21.9365V19.584H106.916V27.9414H106.137L105.992 27.1519H105.949C105.537 27.7498 104.925 28.0488 104.112 28.0488ZM104.268 27.2485C104.855 27.2485 105.283 27.0892 105.551 26.7705C105.823 26.4482 105.959 25.9219 105.959 25.1914V25.0142C105.959 24.1942 105.822 23.6105 105.546 23.2632C105.274 22.9123 104.844 22.7368 104.257 22.7368C103.759 22.7368 103.374 22.9355 103.102 23.333C102.83 23.7269 102.694 24.2909 102.694 25.0249C102.694 25.7554 102.828 26.3086 103.097 26.6846C103.369 27.0605 103.759 27.2485 104.268 27.2485ZM114.156 28.0488C113.271 28.0488 112.577 27.7821 112.072 27.2485C111.57 26.7114 111.32 25.9738 111.32 25.0356C111.32 24.0903 111.554 23.3384 112.023 22.7798C112.493 22.2176 113.126 21.9365 113.925 21.9365C114.666 21.9365 115.257 22.1764 115.697 22.6562C116.138 23.1325 116.358 23.7788 116.358 24.5952V25.1807H112.319C112.337 25.8503 112.507 26.3587 112.829 26.7061C113.151 27.0534 113.608 27.2271 114.199 27.2271C114.514 27.2271 114.813 27.2002 115.096 27.1465C115.379 27.0892 115.71 26.98 116.089 26.8188V27.6675C115.764 27.8071 115.457 27.9056 115.171 27.9629C114.884 28.0202 114.546 28.0488 114.156 28.0488ZM113.914 22.7261C113.452 22.7261 113.087 22.8747 112.818 23.1719C112.55 23.4691 112.39 23.8826 112.34 24.4126H115.343C115.336 23.8612 115.208 23.4422 114.961 23.1558C114.714 22.8693 114.365 22.7261 113.914 22.7261ZM119.946 28.0488C119.18 28.0488 118.585 27.7839 118.163 27.2539C117.74 26.724 117.529 25.9738 117.529 25.0034C117.529 24.0402 117.74 23.2882 118.163 22.7476C118.589 22.2069 119.187 21.9365 119.957 21.9365C120.748 21.9365 121.357 22.2266 121.783 22.8066H121.853C121.842 22.735 121.827 22.5918 121.81 22.377C121.792 22.1585 121.783 22.0117 121.783 21.9365V19.584H122.75V27.9414H121.971L121.826 27.1519H121.783C121.371 27.7498 120.759 28.0488 119.946 28.0488ZM120.102 27.2485C120.689 27.2485 121.117 27.0892 121.385 26.7705C121.657 26.4482 121.793 25.9219 121.793 25.1914V25.0142C121.793 24.1942 121.656 23.6105 121.38 23.2632C121.108 22.9123 120.678 22.7368 120.091 22.7368C119.593 22.7368 119.208 22.9355 118.936 23.333C118.664 23.7269 118.528 24.2909 118.528 25.0249C118.528 25.7554 118.662 26.3086 118.931 26.6846C119.203 27.0605 119.593 27.2485 120.102 27.2485ZM125.591 27.9414H124.624V22.0439H125.591V27.9414ZM124.549 20.4487C124.549 20.2339 124.603 20.0781 124.71 19.9814C124.821 19.8848 124.957 19.8364 125.118 19.8364C125.269 19.8364 125.399 19.8848 125.51 19.9814C125.625 20.0781 125.682 20.2339 125.682 20.4487C125.682 20.66 125.625 20.8158 125.51 20.916C125.399 21.0163 125.269 21.0664 125.118 21.0664C124.957 21.0664 124.821 21.0163 124.71 20.916C124.603 20.8158 124.549 20.66 124.549 20.4487ZM129.431 27.2593C129.556 27.2593 129.703 27.2467 129.872 27.2217C130.04 27.1966 130.167 27.168 130.253 27.1357V27.877C130.163 27.9163 130.024 27.9539 129.834 27.9897C129.648 28.0291 129.458 28.0488 129.265 28.0488C128.112 28.0488 127.535 27.4419 127.535 26.228V22.7959H126.703V22.334L127.546 21.9473L127.933 20.6904H128.507V22.0439H130.21V22.7959H128.507V26.2012C128.507 26.5413 128.588 26.8027 128.749 26.9854C128.914 27.168 129.141 27.2593 129.431 27.2593ZM135.275 26.314C135.275 26.8654 135.069 27.2933 134.657 27.5977C134.245 27.8984 133.667 28.0488 132.922 28.0488C132.145 28.0488 131.528 27.9253 131.069 27.6782V26.7974C131.717 27.1125 132.342 27.27 132.944 27.27C133.431 27.27 133.785 27.1912 134.007 27.0337C134.229 26.8761 134.34 26.6649 134.34 26.3999C134.34 26.1672 134.233 25.9702 134.018 25.8091C133.807 25.6479 133.429 25.4635 132.885 25.2559C132.33 25.041 131.939 24.8584 131.714 24.708C131.488 24.554 131.322 24.3822 131.214 24.1924C131.111 24.0026 131.059 23.7716 131.059 23.4995C131.059 23.0161 131.256 22.6348 131.649 22.3555C132.043 22.0762 132.584 21.9365 133.271 21.9365C133.941 21.9365 134.568 22.069 135.151 22.334L134.824 23.1021C134.226 22.8514 133.687 22.7261 133.207 22.7261C132.806 22.7261 132.502 22.7905 132.294 22.9194C132.086 23.0448 131.982 23.2184 131.982 23.4404C131.982 23.6553 132.072 23.8343 132.251 23.9775C132.43 24.1172 132.847 24.3123 133.502 24.563C133.993 24.7456 134.355 24.9157 134.587 25.0732C134.824 25.2308 134.997 25.408 135.108 25.605C135.219 25.8019 135.275 26.0382 135.275 26.314Z" fill="#515151"/>
<path d="M86.9893 82.814V87.895C86.9893 88.7902 86.7189 89.4938 86.1782 90.0059C85.6375 90.5179 84.8874 90.7739 83.9277 90.7739C82.9788 90.7739 82.243 90.5161 81.7202 90.0005C81.1974 89.4813 80.936 88.7723 80.936 87.8735V82.814H81.9297V87.9058C81.9297 88.5467 82.0998 89.0426 82.4399 89.3936C82.7837 89.7445 83.2993 89.9199 83.9868 89.9199C84.6349 89.9199 85.1326 89.7463 85.48 89.3989C85.8309 89.0516 86.0063 88.5503 86.0063 87.895V82.814H86.9893ZM92.9458 90.6665V86.896C92.9458 86.4162 92.8384 86.0599 92.6235 85.8271C92.4123 85.5908 92.0793 85.4727 91.6245 85.4727C91.0194 85.4727 90.5789 85.641 90.3032 85.9775C90.0311 86.3105 89.895 86.8548 89.895 87.6104V90.6665H88.9282V84.769H89.707L89.8521 85.5747H89.9058C90.0884 85.2847 90.3444 85.0609 90.6738 84.9033C91.0033 84.7422 91.3667 84.6616 91.7642 84.6616C92.4875 84.6616 93.0246 84.8371 93.3755 85.188C93.7264 85.5389 93.9019 86.085 93.9019 86.8262V90.6665H92.9458ZM98.0913 90.7739C97.2427 90.7739 96.582 90.5143 96.1094 89.9951C95.6367 89.4723 95.4004 88.724 95.4004 87.75C95.4004 86.7617 95.6385 86.0008 96.1147 85.4673C96.5946 84.9302 97.2767 84.6616 98.1611 84.6616C98.4476 84.6616 98.7305 84.6921 99.0098 84.7529C99.2926 84.8102 99.5254 84.8854 99.708 84.9785L99.4126 85.7842C98.9149 85.598 98.4906 85.5049 98.1396 85.5049C97.5452 85.5049 97.1066 85.6929 96.8237 86.0688C96.5409 86.4412 96.3994 86.998 96.3994 87.7393C96.3994 88.4518 96.5409 88.9979 96.8237 89.3774C97.1066 89.7534 97.5256 89.9414 98.0806 89.9414C98.5998 89.9414 99.11 89.8268 99.6113 89.5977V90.457C99.2031 90.6683 98.6965 90.7739 98.0913 90.7739ZM104.655 90.6665L104.467 89.8286H104.424C104.13 90.1974 103.837 90.4481 103.543 90.5806C103.253 90.7095 102.886 90.7739 102.442 90.7739C101.862 90.7739 101.407 90.6217 101.078 90.3174C100.748 90.013 100.583 89.5833 100.583 89.0283C100.583 87.8324 101.527 87.2057 103.414 87.1484L104.413 87.1108V86.7617C104.413 86.3141 104.316 85.9847 104.123 85.7734C103.93 85.5586 103.62 85.4512 103.194 85.4512C102.882 85.4512 102.587 85.4977 102.308 85.5908C102.032 85.6839 101.772 85.7878 101.529 85.9023L101.233 85.1772C101.531 85.0197 101.855 84.8962 102.206 84.8066C102.556 84.7171 102.904 84.6724 103.248 84.6724C103.96 84.6724 104.49 84.8299 104.837 85.145C105.185 85.4601 105.358 85.9614 105.358 86.6489V90.6665H104.655ZM102.662 89.9951C103.203 89.9951 103.627 89.8501 103.935 89.5601C104.247 89.2664 104.402 88.8511 104.402 88.314V87.7822L103.532 87.8198C102.855 87.8449 102.361 87.9523 102.05 88.1421C101.742 88.3319 101.588 88.6309 101.588 89.0391C101.588 89.347 101.681 89.5833 101.867 89.748C102.057 89.9128 102.322 89.9951 102.662 89.9951ZM108.103 84.769V88.5664C108.103 89.0426 108.209 89.3971 108.42 89.6299C108.635 89.859 108.966 89.9736 109.414 89.9736C110.019 89.9736 110.459 89.8053 110.735 89.4688C111.011 89.1322 111.148 88.5897 111.148 87.8413V84.769H112.121V90.6665H111.326L111.186 89.8877H111.138C110.962 90.1706 110.713 90.389 110.391 90.543C110.069 90.6969 109.695 90.7739 109.269 90.7739C108.56 90.7739 108.024 90.6038 107.663 90.2637C107.305 89.9235 107.125 89.3792 107.125 88.6309V84.769H108.103ZM116.235 89.9844C116.829 89.9844 117.261 89.825 117.529 89.5063C117.801 89.1841 117.938 88.6685 117.938 87.9595V87.7285C117.938 86.9408 117.801 86.3678 117.529 86.0098C117.257 85.6517 116.819 85.4727 116.213 85.4727C115.719 85.4727 115.336 85.6696 115.064 86.0635C114.795 86.4538 114.661 87.0124 114.661 87.7393C114.661 88.4697 114.792 89.0265 115.053 89.4097C115.318 89.7928 115.712 89.9844 116.235 89.9844ZM117.927 90.6128L117.959 89.8877H117.916C117.519 90.4785 116.91 90.7739 116.09 90.7739C115.327 90.7739 114.731 90.509 114.301 89.979C113.875 89.4455 113.662 88.6953 113.662 87.7285C113.662 86.7796 113.877 86.0312 114.307 85.4834C114.74 84.9355 115.331 84.6616 116.079 84.6616C116.878 84.6616 117.493 84.9588 117.927 85.5532H117.986L118.115 84.769H118.883V90.7632C118.883 91.6082 118.668 92.2438 118.238 92.6699C117.812 93.096 117.148 93.3091 116.246 93.3091C115.386 93.3091 114.679 93.1838 114.124 92.9331V92.0415C114.697 92.3494 115.422 92.5034 116.299 92.5034C116.801 92.5034 117.196 92.3566 117.486 92.063C117.78 91.7694 117.927 91.363 117.927 90.8438V90.6128ZM124.775 90.6665V86.896C124.775 86.4162 124.667 86.0599 124.453 85.8271C124.241 85.5908 123.908 85.4727 123.454 85.4727C122.856 85.4727 122.417 85.6392 122.138 85.9722C121.862 86.3052 121.724 86.8548 121.724 87.6211V90.6665H120.757V82.3091H121.724V84.7583C121.724 85.0806 121.706 85.3563 121.67 85.5854H121.735C121.91 85.299 122.159 85.0752 122.481 84.9141C122.804 84.7529 123.167 84.6724 123.572 84.6724C124.288 84.6724 124.827 84.8442 125.188 85.188C125.55 85.5282 125.731 86.0742 125.731 86.8262V90.6665H124.775ZM129.528 89.9844C129.654 89.9844 129.8 89.9718 129.969 89.9468C130.137 89.9217 130.264 89.8931 130.35 89.8608V90.6021C130.261 90.6414 130.121 90.679 129.931 90.7148C129.745 90.7542 129.555 90.7739 129.362 90.7739C128.209 90.7739 127.632 90.167 127.632 88.9531V85.521H126.8V85.0591L127.643 84.6724L128.03 83.4155H128.604V84.769H130.307V85.521H128.604V88.9263C128.604 89.2664 128.685 89.5278 128.846 89.7104C129.011 89.8931 129.238 89.9844 129.528 89.9844ZM82.9717 105.774C82.2054 105.774 81.611 105.509 81.1885 104.979C80.766 104.449 80.5547 103.699 80.5547 102.729C80.5547 101.765 80.766 101.013 81.1885 100.473C81.6146 99.932 82.2126 99.6616 82.9824 99.6616C83.7738 99.6616 84.3825 99.9517 84.8086 100.532H84.8784C84.8677 100.46 84.8534 100.317 84.8354 100.102C84.8175 99.8836 84.8086 99.7368 84.8086 99.6616V97.3091H85.7754V105.667H84.9966L84.8516 104.877H84.8086C84.3968 105.475 83.7845 105.774 82.9717 105.774ZM83.1274 104.974C83.7147 104.974 84.1426 104.814 84.4111 104.496C84.6833 104.173 84.8193 103.647 84.8193 102.917V102.739C84.8193 101.919 84.6815 101.336 84.4058 100.988C84.1336 100.637 83.7039 100.462 83.1167 100.462C82.619 100.462 82.234 100.661 81.9619 101.058C81.6898 101.452 81.5537 102.016 81.5537 102.75C81.5537 103.48 81.688 104.034 81.9565 104.41C82.2287 104.786 82.619 104.974 83.1274 104.974ZM91.2915 105.667L91.1035 104.829H91.0605C90.7669 105.197 90.4733 105.448 90.1797 105.581C89.8896 105.709 89.5226 105.774 89.0786 105.774C88.4985 105.774 88.0438 105.622 87.7144 105.317C87.3849 105.013 87.2202 104.583 87.2202 104.028C87.2202 102.832 88.1637 102.206 90.0508 102.148L91.0498 102.111V101.762C91.0498 101.314 90.9531 100.985 90.7598 100.773C90.5664 100.559 90.2567 100.451 89.8306 100.451C89.519 100.451 89.2236 100.498 88.9443 100.591C88.6686 100.684 88.409 100.788 88.1655 100.902L87.8701 100.177C88.1673 100.02 88.4914 99.8962 88.8423 99.8066C89.1932 99.7171 89.5405 99.6724 89.8843 99.6724C90.5968 99.6724 91.1268 99.8299 91.4741 100.145C91.8215 100.46 91.9951 100.961 91.9951 101.649V105.667H91.2915ZM89.2988 104.995C89.8395 104.995 90.2638 104.85 90.5718 104.56C90.8833 104.266 91.0391 103.851 91.0391 103.314V102.782L90.1689 102.82C89.4922 102.845 88.998 102.952 88.6865 103.142C88.3786 103.332 88.2246 103.631 88.2246 104.039C88.2246 104.347 88.3177 104.583 88.5039 104.748C88.6937 104.913 88.9587 104.995 89.2988 104.995ZM101.33 105.667V101.869C101.33 100.938 100.931 100.473 100.132 100.473C99.5845 100.473 99.1816 100.632 98.9238 100.951C98.666 101.269 98.5371 101.756 98.5371 102.412V105.667H97.5757V101.869C97.5757 101.404 97.4772 101.055 97.2803 100.822C97.0869 100.589 96.7826 100.473 96.3672 100.473C95.8229 100.473 95.4237 100.639 95.1694 100.972C94.9188 101.305 94.7935 101.851 94.7935 102.61V105.667H93.8267V99.769H94.6055L94.7505 100.575H94.8042C94.9725 100.288 95.2088 100.064 95.5132 99.9033C95.8211 99.7422 96.1649 99.6616 96.5444 99.6616C97.4683 99.6616 98.0698 99.991 98.3491 100.65H98.4028C98.5926 100.335 98.8504 100.091 99.1763 99.9194C99.5057 99.7476 99.8781 99.6616 100.293 99.6616C100.959 99.6616 101.457 99.8335 101.787 100.177C102.12 100.521 102.286 101.071 102.286 101.826V105.667H101.33ZM107.759 105.667L107.571 104.829H107.528C107.235 105.197 106.941 105.448 106.647 105.581C106.357 105.709 105.99 105.774 105.546 105.774C104.966 105.774 104.512 105.622 104.182 105.317C103.853 105.013 103.688 104.583 103.688 104.028C103.688 102.832 104.632 102.206 106.519 102.148L107.518 102.111V101.762C107.518 101.314 107.421 100.985 107.228 100.773C107.034 100.559 106.724 100.451 106.298 100.451C105.987 100.451 105.691 100.498 105.412 100.591C105.136 100.684 104.877 100.788 104.633 100.902L104.338 100.177C104.635 100.02 104.959 99.8962 105.31 99.8066C105.661 99.7171 106.008 99.6724 106.352 99.6724C107.065 99.6724 107.595 99.8299 107.942 100.145C108.289 100.46 108.463 100.961 108.463 101.649V105.667H107.759ZM105.767 104.995C106.307 104.995 106.732 104.85 107.04 104.56C107.351 104.266 107.507 103.851 107.507 103.314V102.782L106.637 102.82C105.96 102.845 105.466 102.952 105.154 103.142C104.846 103.332 104.692 103.631 104.692 104.039C104.692 104.347 104.785 104.583 104.972 104.748C105.161 104.913 105.426 104.995 105.767 104.995ZM112.54 104.984C113.134 104.984 113.565 104.825 113.834 104.506C114.106 104.184 114.242 103.668 114.242 102.959V102.729C114.242 101.941 114.106 101.368 113.834 101.01C113.562 100.652 113.123 100.473 112.518 100.473C112.024 100.473 111.641 100.67 111.369 101.063C111.1 101.454 110.966 102.012 110.966 102.739C110.966 103.47 111.097 104.027 111.358 104.41C111.623 104.793 112.017 104.984 112.54 104.984ZM114.231 105.613L114.264 104.888H114.221C113.823 105.479 113.215 105.774 112.395 105.774C111.632 105.774 111.036 105.509 110.606 104.979C110.18 104.445 109.967 103.695 109.967 102.729C109.967 101.78 110.182 101.031 110.611 100.483C111.045 99.9355 111.635 99.6616 112.384 99.6616C113.182 99.6616 113.798 99.9588 114.231 100.553H114.291L114.419 99.769H115.188V105.763C115.188 106.608 114.973 107.244 114.543 107.67C114.117 108.096 113.453 108.309 112.55 108.309C111.691 108.309 110.984 108.184 110.429 107.933V107.042C111.002 107.349 111.727 107.503 112.604 107.503C113.105 107.503 113.501 107.357 113.791 107.063C114.085 106.769 114.231 106.363 114.231 105.844V105.613ZM118.029 105.667H117.062V99.769H118.029V105.667ZM116.987 98.1738C116.987 97.959 117.041 97.8032 117.148 97.7065C117.259 97.6099 117.395 97.5615 117.556 97.5615C117.707 97.5615 117.837 97.6099 117.948 97.7065C118.063 97.8032 118.12 97.959 118.12 98.1738C118.12 98.3851 118.063 98.5409 117.948 98.6411C117.837 98.7414 117.707 98.7915 117.556 98.7915C117.395 98.7915 117.259 98.7414 117.148 98.6411C117.041 98.5409 116.987 98.3851 116.987 98.1738ZM123.916 105.667V101.896C123.916 101.416 123.808 101.06 123.593 100.827C123.382 100.591 123.049 100.473 122.594 100.473C121.989 100.473 121.549 100.641 121.273 100.978C121.001 101.311 120.865 101.855 120.865 102.61V105.667H119.898V99.769H120.677L120.822 100.575H120.875C121.058 100.285 121.314 100.061 121.644 99.9033C121.973 99.7422 122.336 99.6616 122.734 99.6616C123.457 99.6616 123.994 99.8371 124.345 100.188C124.696 100.539 124.872 101.085 124.872 101.826V105.667H123.916ZM128.943 104.984C129.537 104.984 129.969 104.825 130.237 104.506C130.509 104.184 130.646 103.668 130.646 102.959V102.729C130.646 101.941 130.509 101.368 130.237 101.01C129.965 100.652 129.527 100.473 128.921 100.473C128.427 100.473 128.044 100.67 127.772 101.063C127.503 101.454 127.369 102.012 127.369 102.739C127.369 103.47 127.5 104.027 127.761 104.41C128.026 104.793 128.42 104.984 128.943 104.984ZM130.635 105.613L130.667 104.888H130.624C130.227 105.479 129.618 105.774 128.798 105.774C128.035 105.774 127.439 105.509 127.009 104.979C126.583 104.445 126.37 103.695 126.37 102.729C126.37 101.78 126.585 101.031 127.015 100.483C127.448 99.9355 128.039 99.6616 128.787 99.6616C129.586 99.6616 130.201 99.9588 130.635 100.553H130.694L130.823 99.769H131.591V105.763C131.591 106.608 131.376 107.244 130.946 107.67C130.52 108.096 129.856 108.309 128.954 108.309C128.094 108.309 127.387 108.184 126.832 107.933V107.042C127.405 107.349 128.13 107.503 129.007 107.503C129.509 107.503 129.904 107.357 130.194 107.063C130.488 106.769 130.635 106.363 130.635 105.844V105.613ZM138.831 105.774C137.947 105.774 137.252 105.507 136.747 104.974C136.246 104.437 135.995 103.699 135.995 102.761C135.995 101.815 136.23 101.063 136.699 100.505C137.168 99.9427 137.802 99.6616 138.6 99.6616C139.341 99.6616 139.932 99.9015 140.373 100.381C140.813 100.858 141.033 101.504 141.033 102.32V102.906H136.994C137.012 103.575 137.182 104.084 137.504 104.431C137.827 104.778 138.283 104.952 138.874 104.952C139.189 104.952 139.488 104.925 139.771 104.872C140.054 104.814 140.385 104.705 140.765 104.544V105.393C140.439 105.532 140.133 105.631 139.846 105.688C139.56 105.745 139.221 105.774 138.831 105.774ZM138.589 100.451C138.127 100.451 137.762 100.6 137.494 100.897C137.225 101.194 137.066 101.608 137.016 102.138H140.018C140.011 101.586 139.884 101.167 139.637 100.881C139.39 100.594 139.041 100.451 138.589 100.451ZM144.621 105.774C143.855 105.774 143.26 105.509 142.838 104.979C142.415 104.449 142.204 103.699 142.204 102.729C142.204 101.765 142.415 101.013 142.838 100.473C143.264 99.932 143.862 99.6616 144.632 99.6616C145.423 99.6616 146.032 99.9517 146.458 100.532H146.528C146.517 100.46 146.503 100.317 146.485 100.102C146.467 99.8836 146.458 99.7368 146.458 99.6616V97.3091H147.425V105.667H146.646L146.501 104.877H146.458C146.046 105.475 145.434 105.774 144.621 105.774ZM144.777 104.974C145.364 104.974 145.792 104.814 146.061 104.496C146.333 104.173 146.469 103.647 146.469 102.917V102.739C146.469 101.919 146.331 101.336 146.055 100.988C145.783 100.637 145.353 100.462 144.766 100.462C144.268 100.462 143.883 100.661 143.611 101.058C143.339 101.452 143.203 102.016 143.203 102.75C143.203 103.48 143.337 104.034 143.606 104.41C143.878 104.786 144.268 104.974 144.777 104.974ZM150.266 105.667H149.299V99.769H150.266V105.667ZM149.224 98.1738C149.224 97.959 149.278 97.8032 149.385 97.7065C149.496 97.6099 149.632 97.5615 149.793 97.5615C149.944 97.5615 150.075 97.6099 150.186 97.7065C150.3 97.8032 150.357 97.959 150.357 98.1738C150.357 98.3851 150.3 98.5409 150.186 98.6411C150.075 98.7414 149.944 98.7915 149.793 98.7915C149.632 98.7915 149.496 98.7414 149.385 98.6411C149.278 98.5409 149.224 98.3851 149.224 98.1738ZM154.106 104.984C154.232 104.984 154.379 104.972 154.547 104.947C154.715 104.922 154.842 104.893 154.928 104.861V105.602C154.839 105.641 154.699 105.679 154.509 105.715C154.323 105.754 154.133 105.774 153.94 105.774C152.787 105.774 152.21 105.167 152.21 103.953V100.521H151.378V100.059L152.221 99.6724L152.608 98.4155H153.183V99.769H154.885V100.521H153.183V103.926C153.183 104.266 153.263 104.528 153.424 104.71C153.589 104.893 153.816 104.984 154.106 104.984ZM159.95 104.039C159.95 104.59 159.744 105.018 159.333 105.323C158.921 105.624 158.342 105.774 157.598 105.774C156.821 105.774 156.203 105.65 155.745 105.403V104.522C156.393 104.838 157.018 104.995 157.619 104.995C158.106 104.995 158.461 104.916 158.683 104.759C158.905 104.601 159.016 104.39 159.016 104.125C159.016 103.892 158.908 103.695 158.693 103.534C158.482 103.373 158.104 103.189 157.56 102.981C157.005 102.766 156.615 102.583 156.389 102.433C156.164 102.279 155.997 102.107 155.89 101.917C155.786 101.728 155.734 101.497 155.734 101.225C155.734 100.741 155.931 100.36 156.325 100.081C156.719 99.8013 157.259 99.6616 157.947 99.6616C158.616 99.6616 159.243 99.7941 159.827 100.059L159.499 100.827C158.901 100.576 158.362 100.451 157.882 100.451C157.481 100.451 157.177 100.516 156.969 100.645C156.762 100.77 156.658 100.944 156.658 101.166C156.658 101.38 156.747 101.559 156.926 101.703C157.105 101.842 157.522 102.037 158.178 102.288C158.668 102.471 159.03 102.641 159.263 102.798C159.499 102.956 159.673 103.133 159.784 103.33C159.895 103.527 159.95 103.763 159.95 104.039Z" fill="#515151"/>
<rect x="0.500787" y="-0.49931" width="34.8295" height="65.3896" rx="3.5" transform="matrix(0.00157506 -0.999999 0.999999 0.00137894 2.2122 36.8316)" stroke="#C57619" stroke-dasharray="5 5"/>
<rect x="0.500787" y="-0.49931" width="35.9117" height="66.222" rx="3.5" transform="matrix(0.00157506 -0.999999 0.999999 0.00137894 1.97514 111.914)" stroke="#A7A7A7" stroke-dasharray="5 5"/>
<rect x="1" y="70.8995" width="69.2448" height="66.4422" rx="2" transform="rotate(-89.9156 1 70.8995)" fill="#C57619" fill-opacity="0.1"/>
<circle cx="9.5" cy="46.9342" r="3.5" transform="rotate(-90 9.5 46.9342)" fill="#C57619"/>
<circle cx="9.5" cy="61.9342" r="3.5" transform="rotate(-90 9.5 61.9342)" fill="#C57619"/>
<circle cx="25.5" cy="46.9342" r="3.5" transform="rotate(-90 25.5 46.9342)" fill="#C57619"/>
<circle cx="41.5" cy="46.9342" r="3.5" transform="rotate(-90 41.5 46.9342)" fill="#C57619"/>
<circle cx="57.5" cy="46.9342" r="3.5" transform="rotate(-90 57.5 46.9342)" fill="#C57619"/>
<circle cx="25.5" cy="61.9342" r="3.5" transform="rotate(-90 25.5 61.9342)" fill="#C57619"/>
<circle cx="41.5" cy="61.9342" r="3.5" transform="rotate(-90 41.5 61.9342)" fill="#C57619"/>
<circle cx="57.5" cy="61.9342" r="3.5" transform="rotate(-90 57.5 61.9342)" fill="#C57619"/>
<line x1="25.0607" y1="9.00012" x2="30.6418" y2="14.5812" stroke="#C47619" stroke-width="1.5" stroke-linecap="round" stroke-linejoin="round"/>
<line x1="0.75" y1="-0.75" x2="8.64285" y2="-0.75" transform="matrix(-0.707107 0.707107 0.707107 0.707107 31.5 9.00012)" stroke="#C47619" stroke-width="1.5" stroke-linecap="round" stroke-linejoin="round"/>
<line x1="41.0607" y1="9.00012" x2="46.6418" y2="14.5812" stroke="#C47619" stroke-width="1.5" stroke-linecap="round" stroke-linejoin="round"/>
<line x1="0.75" y1="-0.75" x2="8.64285" y2="-0.75" transform="matrix(-0.707107 0.707107 0.707107 0.707107 47.5 9.00012)" stroke="#C47619" stroke-width="1.5" stroke-linecap="round" stroke-linejoin="round"/>
<line x1="25.0607" y1="22.0001" x2="30.6418" y2="27.5812" stroke="#C47619" stroke-width="1.5" stroke-linecap="round" stroke-linejoin="round"/>
<line x1="0.75" y1="-0.75" x2="8.64285" y2="-0.75" transform="matrix(-0.707107 0.707107 0.707107 0.707107 31.5 22.0001)" stroke="#C47619" stroke-width="1.5" stroke-linecap="round" stroke-linejoin="round"/>
<line x1="23.1789" y1="83.0001" x2="28.8492" y2="88.6704" stroke="#A7A7A7" stroke-width="2" stroke-linecap="round" stroke-linejoin="round"/>
<line x1="1" y1="-1" x2="9.01904" y2="-1" transform="matrix(-0.707107 0.707107 0.707107 0.707107 29.7646 83.0001)" stroke="#A7A7A7" stroke-width="2" stroke-linecap="round" stroke-linejoin="round"/>
<line x1="23.1789" y1="98.0001" x2="28.8492" y2="103.67" stroke="#A7A7A7" stroke-width="2" stroke-linecap="round" stroke-linejoin="round"/>
<line x1="1" y1="-1" x2="9.01904" y2="-1" transform="matrix(-0.707107 0.707107 0.707107 0.707107 29.7646 98.0001)" stroke="#A7A7A7" stroke-width="2" stroke-linecap="round" stroke-linejoin="round"/>
<line x1="39.4162" y1="83.0001" x2="45.0865" y2="88.6704" stroke="#A7A7A7" stroke-width="2" stroke-linecap="round" stroke-linejoin="round"/>
<line x1="1" y1="-1" x2="9.01904" y2="-1" transform="matrix(-0.707107 0.707107 0.707107 0.707107 46.002 83.0001)" stroke="#A7A7A7" stroke-width="2" stroke-linecap="round" stroke-linejoin="round"/>
<line x1="39.4162" y1="98.0001" x2="45.0865" y2="103.67" stroke="#A7A7A7" stroke-width="2" stroke-linecap="round" stroke-linejoin="round"/>
<line x1="1" y1="-1" x2="9.01904" y2="-1" transform="matrix(-0.707107 0.707107 0.707107 0.707107 46.002 98.0001)" stroke="#A7A7A7" stroke-width="2" stroke-linecap="round" stroke-linejoin="round"/>
<line x1="54.4162" y1="83.0001" x2="60.0865" y2="88.6704" stroke="#A7A7A7" stroke-width="2" stroke-linecap="round" stroke-linejoin="round"/>
<line x1="1" y1="-1" x2="9.01904" y2="-1" transform="matrix(-0.707107 0.707107 0.707107 0.707107 61.002 83.0001)" stroke="#A7A7A7" stroke-width="2" stroke-linecap="round" stroke-linejoin="round"/>
<line x1="40.0607" y1="22.0001" x2="45.6418" y2="27.5812" stroke="#C47619" stroke-width="1.5" stroke-linecap="round" stroke-linejoin="round"/>
<line x1="0.75" y1="-0.75" x2="8.64285" y2="-0.75" transform="matrix(-0.707107 0.707107 0.707107 0.707107 46.5 22.0001)" stroke="#C47619" stroke-width="1.5" stroke-linecap="round" stroke-linejoin="round"/>
<line x1="55.0607" y1="22.0001" x2="60.6418" y2="27.5812" stroke="#C47619" stroke-width="1.5" stroke-linecap="round" stroke-linejoin="round"/>
<line x1="0.75" y1="-0.75" x2="8.64285" y2="-0.75" transform="matrix(-0.707107 0.707107 0.707107 0.707107 61.5 22.0001)" stroke="#C47619" stroke-width="1.5" stroke-linecap="round" stroke-linejoin="round"/>
<circle cx="9.5" cy="46.9342" r="3.5" transform="rotate(-90 9.5 46.9342)" fill="#C57619"/>
<circle cx="9.5" cy="61.9342" r="3.5" transform="rotate(-90 9.5 61.9342)" fill="#C57619"/>
<circle cx="25.5" cy="46.9342" r="3.5" transform="rotate(-90 25.5 46.9342)" fill="#C57619"/>
<circle cx="41.5" cy="46.9342" r="3.5" transform="rotate(-90 41.5 46.9342)" fill="#C57619"/>
<circle cx="57.5" cy="46.9342" r="3.5" transform="rotate(-90 57.5 46.9342)" fill="#C57619"/>
<circle cx="25.5" cy="61.9342" r="3.5" transform="rotate(-90 25.5 61.9342)" fill="#C57619"/>
<circle cx="41.5" cy="61.9342" r="3.5" transform="rotate(-90 41.5 61.9342)" fill="#C57619"/>
<circle cx="57.5" cy="61.9342" r="3.5" transform="rotate(-90 57.5 61.9342)" fill="#C57619"/>
<line x1="9.06066" y1="9.00012" x2="14.6418" y2="14.5812" stroke="#C47619" stroke-width="1.5" stroke-linecap="round" stroke-linejoin="round"/>
<line x1="0.75" y1="-0.75" x2="8.64285" y2="-0.75" transform="matrix(-0.707107 0.707107 0.707107 0.707107 15.5 9.00012)" stroke="#C47619" stroke-width="1.5" stroke-linecap="round" stroke-linejoin="round"/>
<line x1="9.06066" y1="22.0001" x2="14.6418" y2="27.5812" stroke="#C47619" stroke-width="1.5" stroke-linecap="round" stroke-linejoin="round"/>
<line x1="0.75" y1="-0.75" x2="8.64285" y2="-0.75" transform="matrix(-0.707107 0.707107 0.707107 0.707107 15.5 22.0001)" stroke="#C47619" stroke-width="1.5" stroke-linecap="round" stroke-linejoin="round"/>
<line x1="8.17886" y1="83.0001" x2="13.8492" y2="88.6704" stroke="#A7A7A7" stroke-width="2" stroke-linecap="round" stroke-linejoin="round"/>
<line x1="1" y1="-1" x2="9.01904" y2="-1" transform="matrix(-0.707107 0.707107 0.707107 0.707107 14.7646 83.0001)" stroke="#A7A7A7" stroke-width="2" stroke-linecap="round" stroke-linejoin="round"/>
<line x1="8.17886" y1="98.0001" x2="13.8492" y2="103.67" stroke="#A7A7A7" stroke-width="2" stroke-linecap="round" stroke-linejoin="round"/>
<line x1="1" y1="-1" x2="9.01904" y2="-1" transform="matrix(-0.707107 0.707107 0.707107 0.707107 14.7646 98.0001)" stroke="#A7A7A7" stroke-width="2" stroke-linecap="round" stroke-linejoin="round"/>
</svg>
