<svg width="186" height="12" viewBox="0 0 186 12" fill="none" xmlns="http://www.w3.org/2000/svg">
<path d="M186 6L176 0.226498V11.7735L186 6ZM0 7H3.875V5H0V7ZM11.625 7H19.375V5H11.625V7ZM27.125 7H34.875V5H27.125V7ZM42.625 7H50.375V5H42.625V7ZM58.125 7H65.875V5H58.125V7ZM73.625 7H81.375V5H73.625V7ZM89.125 7H96.875V5H89.125V7ZM104.625 7H112.375V5H104.625V7ZM120.125 7H127.875V5H120.125V7ZM135.625 7H143.375V5H135.625V7ZM151.125 7H158.875V5H151.125V7ZM166.625 7H174.375V5H166.625V7Z" fill="#B6B6B6"/>
</svg>
